  0
SECTION
  2
HEADER
  9
$ACADVER
  1
AC1015
  9
$ACADMAINTVER
 70
     6
  9
$DWGCODEPAGE
  3
ANSI_1252
  9
$INSBASE
 10
0.0
 20
0.0
 30
0.0
  9
$EXTMIN
 10
0.0
 20
0.0
 30
0.0
  9
$EXTMAX
 10
1189.0
 20
841.0
 30
0.0
  9
$LIMMIN
 10
0.0
 20
0.0
  9
$LIMMAX
 10
1189.0
 20
841.0
  9
$ORTHOMODE
 70
     0
  9
$REGENMODE
 70
     1
  9
$FILLMODE
 70
     1
  9
$QTEXTMODE
 70
     0
  9
$MIRRTEXT
 70
     1
  9
$LTSCALE
 40
1.0
  9
$ATTMODE
 70
     1
  9
$TEXTSIZE
 40
3.5
  9
$TRACEWID
 40
1.0
  9
$TEXTSTYLE
  7
Standard
  9
$CLAYER
  8
0
  9
$CELTYPE
  6
ByLayer
  9
$CECOLOR
 62
   256
  9
$CELTSCALE
 40
1.0
  9
$DISPSILH
 70
     0
  9
$DIMSCALE
 40
1.0
  9
$DIMASZ
 40
3.302
  9
$DIMEXO
 40
1.0
  9
$DIMDLI
 40
3.75
  9
$DIMRND
 40
0.0
  9
$DIMDLE
 40
0.0
  9
$DIMEXE
 40
1.0
  9
$DIMTP
 40
0.0
  9
$DIMTM
 40
0.0
  9
$DIMTXT
 40
3.5
  9
$DIMCEN
 40
2.5
  9
$DIMTSZ
 40
0.0
  9
$DIMTOL
 70
     0
  9
$DIMLIM
 70
     0
  9
$DIMTIH
 70
     1
  9
$DIMTOH
 70
     1
  9
$DIMSE1
 70
     0
  9
$DIMSE2
 70
     0
  9
$DIMTAD
 70
     1
  9
$DIMZIN
 70
     0
  9
$DIMBLK
  1

  9
$DIMASO
 70
     1
  9
$DIMSHO
 70
     1
  9
$DIMPOST
  1

  9
$DIMAPOST
  1

  9
$DIMALT
 70
     0
  9
$DIMALTD
 70
     3
  9
$DIMALTF
 40
0.0393700787
  9
$DIMLFAC
 40
2.0
  9
$DIMTOFL
 70
     1
  9
$DIMTVP
 40
0.0
  9
$DIMTIX
 70
     0
  9
$DIMSOXD
 70
     0
  9
$DIMSAH
 70
     0
  9
$DIMBLK1
  1

  9
$DIMBLK2
  1

  9
$DIMSTYLE
  2
ISO-25
  9
$DIMCLRD
 70
     0
  9
$DIMCLRE
 70
     0
  9
$DIMCLRT
 70
     0
  9
$DIMTFAC
 40
1.0
  9
$DIMGAP
 40
1.524
  9
$DIMJUST
 70
     0
  9
$DIMSD1
 70
     0
  9
$DIMSD2
 70
     0
  9
$DIMTOLJ
 70
     0
  9
$DIMTZIN
 70
     0
  9
$DIMALTZ
 70
     0
  9
$DIMALTTZ
 70
     0
  9
$DIMUPT
 70
     0
  9
$DIMDEC
 70
     2
  9
$DIMTDEC
 70
     2
  9
$DIMALTU
 70
     2
  9
$DIMALTTD
 70
     3
  9
$DIMTXSTY
  7
Standard
  9
$DIMAUNIT
 70
     0
  9
$DIMADEC
 70
     2
  9
$DIMALTRND
 40
0.0
  9
$DIMAZIN
 70
     0
  9
$DIMDSEP
 70
    44
  9
$DIMATFIT
 70
     3
  9
$DIMFRAC
 70
     0
  9
$DIMLDRBLK
  1

  9
$DIMLUNIT
 70
     2
  9
$DIMLWD
 70
    -2
  9
$DIMLWE
 70
    -2
  9
$DIMTMOVE
 70
     0
  9
$LUNITS
 70
     2
  9
$LUPREC
 70
     2
  9
$SKETCHINC
 40
1.0
  9
$FILLETRAD
 40
10.0
  9
$AUNITS
 70
     0
  9
$AUPREC
 70
     2
  9
$MENU
  1
.
  9
$ELEVATION
 40
0.0
  9
$PELEVATION
 40
0.0
  9
$THICKNESS
 40
0.0
  9
$LIMCHECK
 70
     0
  9
$CHAMFERA
 40
0.0
  9
$CHAMFERB
 40
0.0
  9
$CHAMFERC
 40
0.0
  9
$CHAMFERD
 40
0.0
  9
$SKPOLY
 70
     0
  9
$TDCREATE
 40
2457844.638892384
  9
$TDUCREATE
 40
2457844.597225718
  9
$TDUPDATE
 40
2457844.638897269
  9
$TDUUPDATE
 40
2457844.597230602
  9
$TDINDWG
 40
0.0000000116
  9
$TDUSRTIMER
 40
0.0000000116
  9
$USRTIMER
 70
     1
  9
$ANGBASE
 50
0.0
  9
$ANGDIR
 70
     0
  9
$PDMODE
 70
     0
  9
$PDSIZE
 40
-1.0
  9
$PLINEWID
 40
0.0
  9
$SPLFRAME
 70
     0
  9
$SPLINETYPE
 70
     6
  9
$SPLINESEGS
 70
     8
  9
$HANDSEED
  5
2E2
  9
$SURFTAB1
 70
     6
  9
$SURFTAB2
 70
     6
  9
$SURFTYPE
 70
     6
  9
$SURFU
 70
     6
  9
$SURFV
 70
     6
  9
$UCSBASE
  2

  9
$UCSNAME
  2

  9
$UCSORG
 10
0.0
 20
0.0
 30
0.0
  9
$UCSXDIR
 10
1.0
 20
0.0
 30
0.0
  9
$UCSYDIR
 10
0.0
 20
1.0
 30
0.0
  9
$UCSORTHOREF
  2

  9
$UCSORTHOVIEW
 70
     0
  9
$UCSORGTOP
 10
0.0
 20
0.0
 30
0.0
  9
$UCSORGBOTTOM
 10
0.0
 20
0.0
 30
0.0
  9
$UCSORGLEFT
 10
0.0
 20
0.0
 30
0.0
  9
$UCSORGRIGHT
 10
0.0
 20
0.0
 30
0.0
  9
$UCSORGFRONT
 10
0.0
 20
0.0
 30
0.0
  9
$UCSORGBACK
 10
0.0
 20
0.0
 30
0.0
  9
$PUCSBASE
  2

  9
$PUCSNAME
  2

  9
$PUCSORG
 10
0.0
 20
0.0
 30
0.0
  9
$PUCSXDIR
 10
1.0
 20
0.0
 30
0.0
  9
$PUCSYDIR
 10
0.0
 20
1.0
 30
0.0
  9
$PUCSORTHOREF
  2

  9
$PUCSORTHOVIEW
 70
     0
  9
$PUCSORGTOP
 10
0.0
 20
0.0
 30
0.0
  9
$PUCSORGBOTTOM
 10
0.0
 20
0.0
 30
0.0
  9
$PUCSORGLEFT
 10
0.0
 20
0.0
 30
0.0
  9
$PUCSORGRIGHT
 10
0.0
 20
0.0
 30
0.0
  9
$PUCSORGFRONT
 10
0.0
 20
0.0
 30
0.0
  9
$PUCSORGBACK
 10
0.0
 20
0.0
 30
0.0
  9
$USERI1
 70
     0
  9
$USERI2
 70
     0
  9
$USERI3
 70
     0
  9
$USERI4
 70
     0
  9
$USERI5
 70
     0
  9
$USERR1
 40
0.0
  9
$USERR2
 40
0.0
  9
$USERR3
 40
0.0
  9
$USERR4
 40
0.0
  9
$USERR5
 40
0.0
  9
$WORLDVIEW
 70
     1
  9
$SHADEDGE
 70
     3
  9
$SHADEDIF
 70
    70
  9
$TILEMODE
 70
     1
  9
$MAXACTVP
 70
    64
  9
$PINSBASE
 10
0.0
 20
0.0
 30
0.0
  9
$PLIMCHECK
 70
     0
  9
$PEXTMIN
 10
1.0000000000E+20
 20
1.0000000000E+20
 30
1.0000000000E+20
  9
$PEXTMAX
 10
-1.0000000000E+20
 20
-1.0000000000E+20
 30
-1.0000000000E+20
  9
$PLIMMIN
 10
0.0
 20
0.0
  9
$PLIMMAX
 10
420.0
 20
297.0
  9
$UNITMODE
 70
     0
  9
$VISRETAIN
 70
     1
  9
$PLINEGEN
 70
     0
  9
$PSLTSCALE
 70
     1
  9
$TREEDEPTH
 70
  3020
  9
$CMLSTYLE
  2
Standard
  9
$CMLJUST
 70
     0
  9
$CMLSCALE
 40
20.0
  9
$PROXYGRAPHICS
 70
     1
  9
$MEASUREMENT
 70
     1
  9
$CELWEIGHT
370
    -1
  9
$ENDCAPS
280
     0
  9
$JOINSTYLE
280
     0
  9
$LWDISPLAY
290
     1
  9
$INSUNITS
 70
     4
  9
$HYPERLINKBASE
  1

  9
$STYLESHEET
  1

  9
$XEDIT
290
     1
  9
$CEPSNTYPE
380
     0
  9
$PSTYLEMODE
290
     1
  9
$FINGERPRINTGUID
  2
{176109A4-ADFB-42F3-9C59-DF76C3035A43}
  9
$VERSIONGUID
  2
{FAEB1C32-E019-11D5-929B-00C0DF256EC4}
  9
$EXTNAMES
290
     1
  9
$PSVPSCALE
 40
0.0
  9
$OLESTARTUP
290
     0
  0
ENDSEC
  0
SECTION
  2
CLASSES
  0
CLASS
  1
ACDBDICTIONARYWDFLT
  2
AcDbDictionaryWithDefault
  3
ObjectDBX Classes
 90
        0
280
     0
281
     0
  0
CLASS
  1
VISUALSTYLE
  2
AcDbVisualStyle
  3
ObjectDBX Classes
 90
     4095
280
     0
281
     0
  0
CLASS
  1
MATERIAL
  2
AcDbMaterial
  3
ObjectDBX Classes
 90
     1153
280
     0
281
     0
  0
CLASS
  1
SCALE
  2
AcDbScale
  3
ObjectDBX Classes
 90
     1153
280
     0
281
     0
  0
CLASS
  1
TABLESTYLE
  2
AcDbTableStyle
  3
ObjectDBX Classes
 90
     4095
280
     0
281
     0
  0
CLASS
  1
MLEADERSTYLE
  2
AcDbMLeaderStyle
  3
ACDB_MLEADERSTYLE_CLASS
 90
     4095
280
     0
281
     0
  0
CLASS
  1
SUN
  2
AcDbSun
  3
SCENEOE
 90
     1153
280
     0
281
     0
  0
CLASS
  1
ACDBPLACEHOLDER
  2
AcDbPlaceHolder
  3
ObjectDBX Classes
 90
        0
280
     0
281
     0
  0
CLASS
  1
LAYOUT
  2
AcDbLayout
  3
ObjectDBX Classes
 90
        0
280
     0
281
     0
  0
ENDSEC
  0
SECTION
  2
TABLES
  0
TABLE
  2
VPORT
  5
8
330
0
100
AcDbSymbolTable
 70
     1
  0
VPORT
  5
29
330
8
100
AcDbSymbolTableRecord
100
AcDbViewportTableRecord
  2
*Active
 70
     0
 10
0.0
 20
0.0
 11
1.0
 21
1.0
 12
594.5
 22
420.5
 13
0.0
 23
0.0
 14
10.0
 24
10.0
 15
10.0
 25
10.0
 16
0.0
 26
0.0
 36
1.0
 17
0.0
 27
0.0
 37
0.0
 40
841.0
 41
1.4137931034
 42
50.0
 43
0.0
 44
0.0
 50
0.0
 51
0.0
 71
     0
 72
  2000
 73
     1
 74
     3
 75
     0
 76
     0
 77
     0
 78
     0
281
     0
 65
     1
110
0.0
120
0.0
130
0.0
111
1.0
121
0.0
131
0.0
112
0.0
122
1.0
132
0.0
 79
     0
146
0.0
  0
ENDTAB
  0
TABLE
  2
LTYPE
  5
5
330
0
100
AcDbSymbolTable
 70
     6
  0
LTYPE
  5
14
330
5
100
AcDbSymbolTableRecord
100
AcDbLinetypeTableRecord
  2
ByBlock
 70
     0
  3

 72
    65
 73
     0
 40
0.0
  0
LTYPE
  5
15
330
5
100
AcDbSymbolTableRecord
100
AcDbLinetypeTableRecord
  2
ByLayer
 70
     0
  3

 72
    65
 73
     0
 40
0.0
  0
LTYPE
  5
16
330
5
100
AcDbSymbolTableRecord
100
AcDbLinetypeTableRecord
  2
Continuous
 70
     0
  3
Solid line
 72
    65
 73
     0
 40
0.0
  0
LTYPE
  5
6E
330
5
100
AcDbSymbolTableRecord
100
AcDbLinetypeTableRecord
  2
HIDDEN
 70
     0
  3
Hidden __ __ __ __ __ __ __ __ __ __ __ __ __ __
 72
    65
 73
     2
 40
1.905
 49
1.27
 74
     0
 49
-0.635
 74
     0
  0
LTYPE
  5
6F
330
5
100
AcDbSymbolTableRecord
100
AcDbLinetypeTableRecord
  2
PHANTOM
 70
     0
  3
Phantom ______  __  __  ______  __  __  ______
 72
    65
 73
     6
 40
12.7
 49
6.35
 74
     0
 49
-1.27
 74
     0
 49
1.27
 74
     0
 49
-1.27
 74
     0
 49
1.27
 74
     0
 49
-1.27
 74
     0
  0
LTYPE
  5
70
330
5
100
AcDbSymbolTableRecord
100
AcDbLinetypeTableRecord
  2
CENTER
 70
     0
  3
Center ____ _ ____ _ ____ _ ____ _ ____ _ ____
 72
    65
 73
     4
 40
10.16
 49
6.35
 74
     0
 49
-1.27
 74
     0
 49
1.27
 74
     0
 49
-1.27
 74
     0
  0
LTYPE
  5
71
330
5
100
AcDbSymbolTableRecord
100
AcDbLinetypeTableRecord
  2
CENTERX2
 70
     0
  3
Center (2x) ________  __  ________  __  _____
 72
    65
 73
     4
 40
20.32
 49
12.7
 74
     0
 49
-2.54
 74
     0
 49
2.54
 74
     0
 49
-2.54
 74
     0
  0
LTYPE
  5
72
330
5
100
AcDbSymbolTableRecord
100
AcDbLinetypeTableRecord
  2
DOT2
 70
     0
  3
Dot (.5x) ........................................
 72
    65
 73
     2
 40
0.635
 49
0.0
 74
     0
 49
-0.635
 74
     0
  0
ENDTAB
  0
TABLE
  2
LAYER
  5
2
330
0
100
AcDbSymbolTable
 70
     1
  0
LAYER
  5
10
330
2
100
AcDbSymbolTableRecord
100
AcDbLayerTableRecord
  2
0
 70
     0
 62
     7
  6
Continuous
370
    -3
390
F
  0
ENDTAB
  0
TABLE
  2
STYLE
  5
3
330
0
100
AcDbSymbolTable
 70
     1
  0
STYLE
  5
11
330
3
100
AcDbSymbolTableRecord
100
AcDbTextStyleTableRecord
  2
Standard
 70
     0
 40
0.0
 41
1.0
 50
0.0
 71
     0
 42
3.5
  3
txt
  4

  0
ENDTAB
  0
TABLE
  2
VIEW
  5
6
330
0
100
AcDbSymbolTable
 70
     0
  0
ENDTAB
  0
TABLE
  2
UCS
  5
7
330
0
100
AcDbSymbolTable
 70
     0
  0
ENDTAB
  0
TABLE
  2
APPID
  5
9
330
0
100
AcDbSymbolTable
 70
     1
  0
APPID
  5
12
330
9
100
AcDbSymbolTableRecord
100
AcDbRegAppTableRecord
  2
ACAD
 70
     0
  0
ENDTAB
  0
TABLE
  2
DIMSTYLE
  5
A
330
0
100
AcDbSymbolTable
 70
     1
100
AcDbDimStyleTable
  0
DIMSTYLE
105
27
330
A
100
AcDbSymbolTableRecord
100
AcDbDimStyleTableRecord
  2
ISO-25
 70
     0
 41
2.5
 42
0.625
 43
3.75
 44
1.25
 73
     0
 74
     0
 77
     1
 78
     8
140
2.5
141
2.5
143
0.0393700787
147
0.625
171
     3
172
     1
178
     0
271
     2
272
     2
274
     3
278
    44
283
     0
284
     8
340
11
  0
ENDTAB
  0
TABLE
  2
BLOCK_RECORD
  5
1
330
0
100
AcDbSymbolTable
 70
     1
  0
BLOCK_RECORD
  5
1F
330
1
100
AcDbSymbolTableRecord
100
AcDbBlockTableRecord
  2
*Model_Space
340
22
  0
BLOCK_RECORD
  5
1B
330
1
100
AcDbSymbolTableRecord
100
AcDbBlockTableRecord
  2
*Paper_Space
340
1E
  0
BLOCK_RECORD
  5
23
330
1
100
AcDbSymbolTableRecord
100
AcDbBlockTableRecord
  2
*Paper_Space0
340
26
  0
ENDTAB
  0
ENDSEC
  0
SECTION
  2
BLOCKS
  0
BLOCK
  5
20
330
1F
100
AcDbEntity
  8
0
100
AcDbBlockBegin
  2
*Model_Space
 70
     0
 10
0.0
 20
0.0
 30
0.0
  3
*Model_Space
  1

  0
ENDBLK
  5
21
330
1F
100
AcDbEntity
  8
0
100
AcDbBlockEnd
  0
BLOCK
  5
1C
330
1B
100
AcDbEntity
 67
     1
  8
0
100
AcDbBlockBegin
  2
*Paper_Space
 70
     0
 10
0.0
 20
0.0
 30
0.0
  3
*Paper_Space
  1

  0
ENDBLK
  5
1D
330
1B
100
AcDbEntity
 67
     1
  8
0
100
AcDbBlockEnd
  0
BLOCK
  5
24
330
23
100
AcDbEntity
  8
0
100
AcDbBlockBegin
  2
*Paper_Space0
 70
     0
 10
0.0
 20
0.0
 30
0.0
  3
*Paper_Space0
  1

  0
ENDBLK
  5
25
330
23
100
AcDbEntity
  8
0
100
AcDbBlockEnd
  0
ENDSEC
  0
SECTION
  2
ENTITIES
  0
CIRCLE
  5
73
330
1F
100
AcDbEntity
  8
0
  6
Continuous
 62
     7
370
    15
100
AcDbCircle
 10
136.9058069498
 20
148.7664594595
 30
0.0
 40
5.0
  0
CIRCLE
  5
74
330
1F
100
AcDbEntity
  8
0
  6
Continuous
 62
     7
370
    15
100
AcDbCircle
 10
252.0829498069
 20
148.7664594595
 30
0.0
 40
5.0
  0
CIRCLE
  5
75
330
1F
100
AcDbEntity
  8
0
  6
Continuous
 62
     7
370
    15
100
AcDbCircle
 10
252.0829498069
 20
350.3264594595
 30
0.0
 40
5.0
  0
ARC
  5
76
330
1F
100
AcDbEntity
  8
0
  6
Continuous
 62
     7
370
    15
100
AcDbCircle
 10
284.4943783784
 20
84.5464594595
 30
0.0
 40
10.00000000000001
100
AcDbArc
 50
270.0
 51
0.0
  0
LINE
  5
77
330
1F
100
AcDbEntity
  8
0
  6
Continuous
 62
     7
370
    15
100
AcDbLine
 10
104.4943783784
 20
74.5464594595
 30
0.0
 11
284.4943783784
 21
74.5464594595
 31
0.0
  0
ARC
  5
78
330
1F
100
AcDbEntity
  8
0
  6
Continuous
 62
     7
370
    15
100
AcDbCircle
 10
104.4943783784
 20
84.5464594595
 30
0.0
 40
10.00000000000001
100
AcDbArc
 50
180.0
 51
270.0
  0
LINE
  5
79
330
1F
100
AcDbEntity
  8
0
  6
Continuous
 62
     7
370
    15
100
AcDbLine
 10
94.4943783784
 20
414.5464594595
 30
0.0
 11
94.4943783784
 21
84.5464594595
 31
0.0
  0
ARC
  5
7A
330
1F
100
AcDbEntity
  8
0
  6
Continuous
 62
     7
370
    15
100
AcDbCircle
 10
104.4943783784
 20
414.5464594595
 30
0.0
 40
10.0
100
AcDbArc
 50
90.0
 51
180.0
  0
LINE
  5
7B
330
1F
100
AcDbEntity
  8
0
  6
Continuous
 62
     7
370
    15
100
AcDbLine
 10
284.4943783784
 20
424.5464594595
 30
0.0
 11
104.4943783784
 21
424.5464594595
 31
0.0
  0
ARC
  5
7C
330
1F
100
AcDbEntity
  8
0
  6
Continuous
 62
     7
370
    15
100
AcDbCircle
 10
284.4943783784
 20
414.5464594595
 30
0.0
 40
10.0
100
AcDbArc
 50
0.0
 51
90.0
  0
LINE
  5
7D
330
1F
100
AcDbEntity
  8
0
  6
Continuous
 62
     7
370
    15
100
AcDbLine
 10
294.4943783784
 20
84.5464594595
 30
0.0
 11
294.4943783784
 21
414.5464594595
 31
0.0
  0
LINE
  5
7E
330
1F
100
AcDbEntity
  8
0
  6
Continuous
 62
     7
370
    15
100
AcDbLine
 10
104.4943783784
 20
389.5464594595
 30
0.0
 11
104.4943783784
 21
339.5464594595
 31
0.0
  0
LINE
  5
7F
330
1F
100
AcDbEntity
  8
0
  6
Continuous
 62
     7
370
    15
100
AcDbLine
 10
104.4943783784
 20
339.5464594595
 30
0.0
 11
116.4943783784
 21
339.5464594595
 31
0.0
  0
LINE
  5
80
330
1F
100
AcDbEntity
  8
0
  6
Continuous
 62
     7
370
    15
100
AcDbLine
 10
116.4943783784
 20
339.5464594595
 30
0.0
 11
116.4943783784
 21
389.5464594595
 31
0.0
  0
LINE
  5
81
330
1F
100
AcDbEntity
  8
0
  6
Continuous
 62
     7
370
    15
100
AcDbLine
 10
116.4943783784
 20
389.5464594595
 30
0.0
 11
104.4943783784
 21
389.5464594595
 31
0.0
  0
LINE
  5
82
330
1F
100
AcDbEntity
  8
0
  6
Continuous
 62
     7
370
    15
100
AcDbLine
 10
104.4943783784
 20
149.5464594595
 30
0.0
 11
104.4943783784
 21
99.5464594595
 31
0.0
  0
LINE
  5
83
330
1F
100
AcDbEntity
  8
0
  6
Continuous
 62
     7
370
    15
100
AcDbLine
 10
104.4943783784
 20
99.5464594595
 30
0.0
 11
116.4943783784
 21
99.5464594595
 31
0.0
  0
LINE
  5
84
330
1F
100
AcDbEntity
  8
0
  6
Continuous
 62
     7
370
    15
100
AcDbLine
 10
116.4943783784
 20
99.5464594595
 30
0.0
 11
116.4943783784
 21
149.5464594595
 31
0.0
  0
LINE
  5
85
330
1F
100
AcDbEntity
  8
0
  6
Continuous
 62
     7
370
    15
100
AcDbLine
 10
116.4943783784
 20
149.5464594595
 30
0.0
 11
104.4943783784
 21
149.5464594595
 31
0.0
  0
LINE
  5
86
330
1F
100
AcDbEntity
  8
0
  6
Continuous
 62
     7
370
    15
100
AcDbLine
 10
284.4943783784
 20
99.5464594595
 30
0.0
 11
284.4943783784
 21
149.5464594595
 31
0.0
  0
LINE
  5
87
330
1F
100
AcDbEntity
  8
0
  6
Continuous
 62
     7
370
    15
100
AcDbLine
 10
284.4943783784
 20
149.5464594595
 30
0.0
 11
272.4943783784
 21
149.5464594595
 31
0.0
  0
LINE
  5
88
330
1F
100
AcDbEntity
  8
0
  6
Continuous
 62
     7
370
    15
100
AcDbLine
 10
272.4943783784
 20
149.5464594595
 30
0.0
 11
272.4943783784
 21
99.5464594595
 31
0.0
  0
LINE
  5
89
330
1F
100
AcDbEntity
  8
0
  6
Continuous
 62
     7
370
    15
100
AcDbLine
 10
272.4943783784
 20
99.5464594595
 30
0.0
 11
284.4943783784
 21
99.5464594595
 31
0.0
  0
LINE
  5
8A
330
1F
100
AcDbEntity
  8
0
  6
Continuous
 62
     7
370
    15
100
AcDbLine
 10
272.4943783784
 20
389.5464594595
 30
0.0
 11
272.4943783784
 21
339.5464594595
 31
0.0
  0
LINE
  5
8B
330
1F
100
AcDbEntity
  8
0
  6
Continuous
 62
     7
370
    15
100
AcDbLine
 10
272.4943783784
 20
339.5464594595
 30
0.0
 11
284.4943783784
 21
339.5464594595
 31
0.0
  0
LINE
  5
8C
330
1F
100
AcDbEntity
  8
0
  6
Continuous
 62
     7
370
    15
100
AcDbLine
 10
284.4943783784
 20
339.5464594595
 30
0.0
 11
284.4943783784
 21
389.5464594595
 31
0.0
  0
LINE
  5
8D
330
1F
100
AcDbEntity
  8
0
  6
Continuous
 62
     7
370
    15
100
AcDbLine
 10
284.4943783784
 20
389.5464594595
 30
0.0
 11
272.4943783784
 21
389.5464594595
 31
0.0
  0
LINE
  5
8E
330
1F
100
AcDbEntity
  8
0
  6
Continuous
 62
     7
370
    15
100
AcDbLine
 10
204.4958731046
 20
362.5464594595
 30
0.0
 11
204.4958731046
 21
395.4266196309
 31
0.0
  0
LINE
  5
8F
330
1F
100
AcDbEntity
  8
0
  6
Continuous
 62
     7
370
    15
100
AcDbLine
 10
204.4958731046
 20
395.4266196309
 30
0.0
 11
194.4958731046
 21
395.4266196309
 31
0.0
  0
LINE
  5
90
330
1F
100
AcDbEntity
  8
0
  6
Continuous
 62
     7
370
    15
100
AcDbLine
 10
194.4958731046
 20
395.4266196309
 30
0.0
 11
194.4958731046
 21
362.5464594595
 31
0.0
  0
LINE
  5
91
330
1F
100
AcDbEntity
  8
0
  6
Continuous
 62
     7
370
    15
100
AcDbLine
 10
194.4958731046
 20
362.5464594595
 30
0.0
 11
130.0458731046
 21
362.5464594595
 31
0.0
  0
LINE
  5
92
330
1F
100
AcDbEntity
  8
0
  6
Continuous
 62
     7
370
    15
100
AcDbLine
 10
130.0458731046
 20
362.5464594595
 30
0.0
 11
130.0458731046
 21
266.5464594595
 31
0.0
  0
LINE
  5
93
330
1F
100
AcDbEntity
  8
0
  6
Continuous
 62
     7
370
    15
100
AcDbLine
 10
130.0458731046
 20
266.5464594595
 30
0.0
 11
212.0458731046
 21
266.5464594595
 31
0.0
  0
LINE
  5
94
330
1F
100
AcDbEntity
  8
0
  6
Continuous
 62
     7
370
    15
100
AcDbLine
 10
212.0458731046
 20
266.5464594595
 30
0.0
 11
212.0458731046
 21
362.5464594595
 31
0.0
  0
LINE
  5
95
330
1F
100
AcDbEntity
  8
0
  6
Continuous
 62
     7
370
    15
100
AcDbLine
 10
212.0458731046
 20
362.5464594595
 30
0.0
 11
204.4958731046
 21
362.5464594595
 31
0.0
  0
LINE
  5
96
330
1F
100
AcDbEntity
  8
0
  6
Continuous
 62
     7
370
    15
100
AcDbLine
 10
101.7639289708
 20
244.5464594595
 30
0.0
 11
101.7639289708
 21
174.5464594595
 31
0.0
  0
LINE
  5
97
330
1F
100
AcDbEntity
  8
0
  6
Continuous
 62
     7
370
    15
100
AcDbLine
 10
101.7639289708
 20
174.5464594595
 30
0.0
 11
147.7639289708
 21
174.5464594595
 31
0.0
  0
LINE
  5
98
330
1F
100
AcDbEntity
  8
0
  6
Continuous
 62
     7
370
    15
100
AcDbLine
 10
147.7639289708
 20
174.5464594595
 30
0.0
 11
147.7639289708
 21
244.5464594595
 31
0.0
  0
LINE
  5
99
330
1F
100
AcDbEntity
  8
0
  6
Continuous
 62
     7
370
    15
100
AcDbLine
 10
147.7639289708
 20
244.5464594595
 30
0.0
 11
101.7639289708
 21
244.5464594595
 31
0.0
  0
LINE
  5
9A
330
1F
100
AcDbEntity
  8
0
  6
Continuous
 62
     7
370
    15
100
AcDbLine
 10
188.3693783784
 20
111.0464594595
 30
0.0
 11
188.3693783784
 21
90.0464594595
 31
0.0
  0
LINE
  5
9B
330
1F
100
AcDbEntity
  8
0
  6
Continuous
 62
     7
370
    15
100
AcDbLine
 10
188.3693783784
 20
90.0464594595
 30
0.0
 11
200.6193783784
 21
90.0464594595
 31
0.0
  0
LINE
  5
9C
330
1F
100
AcDbEntity
  8
0
  6
Continuous
 62
     7
370
    15
100
AcDbLine
 10
200.6193783784
 20
90.0464594595
 30
0.0
 11
200.6193783784
 21
111.0464594595
 31
0.0
  0
LINE
  5
9D
330
1F
100
AcDbEntity
  8
0
  6
Continuous
 62
     7
370
    15
100
AcDbLine
 10
200.6193783784
 20
111.0464594595
 30
0.0
 11
188.3693783784
 21
111.0464594595
 31
0.0
  0
CIRCLE
  5
9E
330
1F
100
AcDbEntity
  8
0
  6
Continuous
 62
     7
370
    15
100
AcDbCircle
 10
352.5210392496
 20
142.9721565246
 30
0.0
 40
5.0
  0
CIRCLE
  5
9F
330
1F
100
AcDbEntity
  8
0
  6
Continuous
 62
     7
370
    15
100
AcDbCircle
 10
467.6961499396
 20
142.9721565246
 30
0.0
 40
5.0
  0
CIRCLE
  5
A0
330
1F
100
AcDbEntity
  8
0
  6
Continuous
 62
     7
370
    15
100
AcDbCircle
 10
467.6961499396
 20
344.5286002321
 30
0.0
 40
5.0
  0
CIRCLE
  5
A1
330
1F
100
AcDbEntity
  8
0
  6
Continuous
 62
     7
370
    15
100
AcDbCircle
 10
352.5210392496
 20
344.5286002321
 30
0.0
 40
5.0
  0
ARC
  5
A2
330
1F
100
AcDbEntity
  8
0
  6
Continuous
 62
     7
370
    15
100
AcDbCircle
 10
320.1085945946
 20
408.7503783784
 30
0.0
 40
10.0
100
AcDbArc
 50
90.0
 51
180.0
  0
LINE
  5
A3
330
1F
100
AcDbEntity
  8
0
  6
Continuous
 62
     7
370
    15
100
AcDbLine
 10
500.1085945946
 20
418.7503783784
 30
0.0
 11
320.1085945946
 21
418.7503783784
 31
0.0
  0
ARC
  5
A4
330
1F
100
AcDbEntity
  8
0
  6
Continuous
 62
     7
370
    15
100
AcDbCircle
 10
500.1085945946
 20
408.7503783784
 30
0.0
 40
10.0
100
AcDbArc
 50
0.0
 51
90.0
  0
LINE
  5
A5
330
1F
100
AcDbEntity
  8
0
  6
Continuous
 62
     7
370
    15
100
AcDbLine
 10
510.1085945946
 20
78.7503783784
 30
0.0
 11
510.1085945946
 21
408.7503783784
 31
0.0
  0
ARC
  5
A6
330
1F
100
AcDbEntity
  8
0
  6
Continuous
 62
     7
370
    15
100
AcDbCircle
 10
500.1085945946
 20
78.7503783784
 30
0.0
 40
10.00000000000006
100
AcDbArc
 50
270.0
 51
0.0
  0
LINE
  5
A7
330
1F
100
AcDbEntity
  8
0
  6
Continuous
 62
     7
370
    15
100
AcDbLine
 10
320.1085945946
 20
68.7503783784
 30
0.0
 11
500.1085945946
 21
68.7503783784
 31
0.0
  0
ARC
  5
A8
330
1F
100
AcDbEntity
  8
0
  6
Continuous
 62
     7
370
    15
100
AcDbCircle
 10
320.1085945946
 20
78.7503783784
 30
0.0
 40
10.00000000000006
100
AcDbArc
 50
180.0
 51
270.0
  0
LINE
  5
A9
330
1F
100
AcDbEntity
  8
0
  6
Continuous
 62
     7
370
    15
100
AcDbLine
 10
310.1085945946
 20
408.7503783784
 30
0.0
 11
310.1085945946
 21
78.7503783784
 31
0.0
  0
LINE
  5
AA
330
1F
100
AcDbEntity
  8
0
  6
Continuous
 62
     7
370
    15
100
AcDbLine
 10
459.1085945946
 20
286.7503783784
 30
0.0
 11
459.1085945946
 21
346.7503783784
 31
0.0
  0
LINE
  5
AB
330
1F
100
AcDbEntity
  8
0
  6
Continuous
 62
     7
370
    15
100
AcDbLine
 10
459.1085945946
 20
346.7503783784
 30
0.0
 11
455.1085945946
 21
346.7503783784
 31
0.0
  0
LINE
  5
AC
330
1F
100
AcDbEntity
  8
0
  6
Continuous
 62
     7
370
    15
100
AcDbLine
 10
455.1085945946
 20
346.7503783784
 30
0.0
 11
455.1085945946
 21
286.7503783784
 31
0.0
  0
LINE
  5
AD
330
1F
100
AcDbEntity
  8
0
  6
Continuous
 62
     7
370
    15
100
AcDbLine
 10
455.1085945946
 20
286.7503783784
 30
0.0
 11
459.1085945946
 21
286.7503783784
 31
0.0
  0
LINE
  5
AE
330
1F
100
AcDbEntity
  8
0
  6
Continuous
 62
     7
370
    15
100
AcDbLine
 10
415.1085945946
 20
346.7503783784
 30
0.0
 11
411.1085945946
 21
346.7503783784
 31
0.0
  0
LINE
  5
AF
330
1F
100
AcDbEntity
  8
0
  6
Continuous
 62
     7
370
    15
100
AcDbLine
 10
411.1085945946
 20
346.7503783784
 30
0.0
 11
411.1085945946
 21
331.7503783784
 31
0.0
  0
LINE
  5
B0
330
1F
100
AcDbEntity
  8
0
  6
Continuous
 62
     7
370
    15
100
AcDbLine
 10
411.1085945946
 20
331.7503783784
 30
0.0
 11
401.1085945946
 21
331.7503783784
 31
0.0
  0
LINE
  5
B1
330
1F
100
AcDbEntity
  8
0
  6
Continuous
 62
     7
370
    15
100
AcDbLine
 10
401.1085945946
 20
331.7503783784
 30
0.0
 11
401.1085945946
 21
301.7503783784
 31
0.0
  0
LINE
  5
B2
330
1F
100
AcDbEntity
  8
0
  6
Continuous
 62
     7
370
    15
100
AcDbLine
 10
401.1085945946
 20
301.7503783784
 30
0.0
 11
411.1085945946
 21
301.7503783784
 31
0.0
  0
LINE
  5
B3
330
1F
100
AcDbEntity
  8
0
  6
Continuous
 62
     7
370
    15
100
AcDbLine
 10
411.1085945946
 20
301.7503783784
 30
0.0
 11
411.1085945946
 21
286.7503783784
 31
0.0
  0
LINE
  5
B4
330
1F
100
AcDbEntity
  8
0
  6
Continuous
 62
     7
370
    15
100
AcDbLine
 10
411.1085945946
 20
286.7503783784
 30
0.0
 11
415.1085945946
 21
286.7503783784
 31
0.0
  0
LINE
  5
B5
330
1F
100
AcDbEntity
  8
0
  6
Continuous
 62
     7
370
    15
100
AcDbLine
 10
415.1085945946
 20
286.7503783784
 30
0.0
 11
415.1085945946
 21
346.7503783784
 31
0.0
  0
LINE
  5
B6
330
1F
100
AcDbEntity
  8
0
  6
Continuous
 62
     7
370
    15
100
AcDbLine
 10
326.1085945946
 20
367.1003783784
 30
0.0
 11
326.1085945946
 21
394.7503783784
 31
0.0
  0
LINE
  5
B7
330
1F
100
AcDbEntity
  8
0
  6
Continuous
 62
     7
370
    15
100
AcDbLine
 10
326.1085945946
 20
394.7503783784
 30
0.0
 11
320.1085945946
 21
394.7503783784
 31
0.0
  0
LINE
  5
B8
330
1F
100
AcDbEntity
  8
0
  6
Continuous
 62
     7
370
    15
100
AcDbLine
 10
320.1085945946
 20
394.7503783784
 30
0.0
 11
320.1085945946
 21
367.1003783784
 31
0.0
  0
LINE
  5
B9
330
1F
100
AcDbEntity
  8
0
  6
Continuous
 62
     7
370
    15
100
AcDbLine
 10
320.1085945946
 20
367.1003783784
 30
0.0
 11
326.1085945946
 21
367.1003783784
 31
0.0
  0
LINE
  5
BA
330
1F
100
AcDbEntity
  8
0
  6
Continuous
 62
     7
370
    15
100
AcDbLine
 10
326.1085945946
 20
326.0403783784
 30
0.0
 11
326.1085945946
 21
353.6903783784
 31
0.0
  0
LINE
  5
BB
330
1F
100
AcDbEntity
  8
0
  6
Continuous
 62
     7
370
    15
100
AcDbLine
 10
326.1085945946
 20
353.6903783784
 30
0.0
 11
320.1085945946
 21
353.6903783784
 31
0.0
  0
LINE
  5
BC
330
1F
100
AcDbEntity
  8
0
  6
Continuous
 62
     7
370
    15
100
AcDbLine
 10
320.1085945946
 20
353.6903783784
 30
0.0
 11
320.1085945946
 21
326.0403783784
 31
0.0
  0
LINE
  5
BD
330
1F
100
AcDbEntity
  8
0
  6
Continuous
 62
     7
370
    15
100
AcDbLine
 10
320.1085945946
 20
326.0403783784
 30
0.0
 11
326.1085945946
 21
326.0403783784
 31
0.0
  0
LINE
  5
BE
330
1F
100
AcDbEntity
  8
0
  6
Continuous
 62
     7
370
    15
100
AcDbLine
 10
326.1085945946
 20
127.0803783784
 30
0.0
 11
326.1085945946
 21
154.7303783784
 31
0.0
  0
LINE
  5
BF
330
1F
100
AcDbEntity
  8
0
  6
Continuous
 62
     7
370
    15
100
AcDbLine
 10
326.1085945946
 20
154.7303783784
 30
0.0
 11
320.1085945946
 21
154.7303783784
 31
0.0
  0
LINE
  5
C0
330
1F
100
AcDbEntity
  8
0
  6
Continuous
 62
     7
370
    15
100
AcDbLine
 10
320.1085945946
 20
154.7303783784
 30
0.0
 11
320.1085945946
 21
127.0803783784
 31
0.0
  0
LINE
  5
C1
330
1F
100
AcDbEntity
  8
0
  6
Continuous
 62
     7
370
    15
100
AcDbLine
 10
320.1085945946
 20
127.0803783784
 30
0.0
 11
326.1085945946
 21
127.0803783784
 31
0.0
  0
LINE
  5
C2
330
1F
100
AcDbEntity
  8
0
  6
Continuous
 62
     7
370
    15
100
AcDbLine
 10
326.1085945946
 20
86.0203783784
 30
0.0
 11
326.1085945946
 21
113.6703783784
 31
0.0
  0
LINE
  5
C3
330
1F
100
AcDbEntity
  8
0
  6
Continuous
 62
     7
370
    15
100
AcDbLine
 10
326.1085945946
 20
113.6703783784
 30
0.0
 11
320.1085945946
 21
113.6703783784
 31
0.0
  0
LINE
  5
C4
330
1F
100
AcDbEntity
  8
0
  6
Continuous
 62
     7
370
    15
100
AcDbLine
 10
320.1085945946
 20
113.6703783784
 30
0.0
 11
320.1085945946
 21
86.0203783784
 31
0.0
  0
LINE
  5
C5
330
1F
100
AcDbEntity
  8
0
  6
Continuous
 62
     7
370
    15
100
AcDbLine
 10
320.1085945946
 20
86.0203783784
 30
0.0
 11
326.1085945946
 21
86.0203783784
 31
0.0
  0
LINE
  5
C6
330
1F
100
AcDbEntity
  8
0
  6
Continuous
 62
     7
370
    15
100
AcDbLine
 10
500.1085945946
 20
127.0803783784
 30
0.0
 11
500.1085945946
 21
154.7303783784
 31
0.0
  0
LINE
  5
C7
330
1F
100
AcDbEntity
  8
0
  6
Continuous
 62
     7
370
    15
100
AcDbLine
 10
500.1085945946
 20
154.7303783784
 30
0.0
 11
494.1085945946
 21
154.7303783784
 31
0.0
  0
LINE
  5
C8
330
1F
100
AcDbEntity
  8
0
  6
Continuous
 62
     7
370
    15
100
AcDbLine
 10
494.1085945946
 20
154.7303783784
 30
0.0
 11
494.1085945946
 21
127.0803783784
 31
0.0
  0
LINE
  5
C9
330
1F
100
AcDbEntity
  8
0
  6
Continuous
 62
     7
370
    15
100
AcDbLine
 10
494.1085945946
 20
127.0803783784
 30
0.0
 11
500.1085945946
 21
127.0803783784
 31
0.0
  0
LINE
  5
CA
330
1F
100
AcDbEntity
  8
0
  6
Continuous
 62
     7
370
    15
100
AcDbLine
 10
500.1085945946
 20
86.0203783784
 30
0.0
 11
500.1085945946
 21
113.6703783784
 31
0.0
  0
LINE
  5
CB
330
1F
100
AcDbEntity
  8
0
  6
Continuous
 62
     7
370
    15
100
AcDbLine
 10
500.1085945946
 20
113.6703783784
 30
0.0
 11
494.1085945946
 21
113.6703783784
 31
0.0
  0
LINE
  5
CC
330
1F
100
AcDbEntity
  8
0
  6
Continuous
 62
     7
370
    15
100
AcDbLine
 10
494.1085945946
 20
113.6703783784
 30
0.0
 11
494.1085945946
 21
86.0203783784
 31
0.0
  0
LINE
  5
CD
330
1F
100
AcDbEntity
  8
0
  6
Continuous
 62
     7
370
    15
100
AcDbLine
 10
494.1085945946
 20
86.0203783784
 30
0.0
 11
500.1085945946
 21
86.0203783784
 31
0.0
  0
LINE
  5
CE
330
1F
100
AcDbEntity
  8
0
  6
Continuous
 62
     7
370
    15
100
AcDbLine
 10
500.1085945946
 20
367.1003783784
 30
0.0
 11
500.1085945946
 21
394.7503783784
 31
0.0
  0
LINE
  5
CF
330
1F
100
AcDbEntity
  8
0
  6
Continuous
 62
     7
370
    15
100
AcDbLine
 10
500.1085945946
 20
394.7503783784
 30
0.0
 11
494.1085945946
 21
394.7503783784
 31
0.0
  0
LINE
  5
D0
330
1F
100
AcDbEntity
  8
0
  6
Continuous
 62
     7
370
    15
100
AcDbLine
 10
494.1085945946
 20
394.7503783784
 30
0.0
 11
494.1085945946
 21
367.1003783784
 31
0.0
  0
LINE
  5
D1
330
1F
100
AcDbEntity
  8
0
  6
Continuous
 62
     7
370
    15
100
AcDbLine
 10
494.1085945946
 20
367.1003783784
 30
0.0
 11
500.1085945946
 21
367.1003783784
 31
0.0
  0
LINE
  5
D2
330
1F
100
AcDbEntity
  8
0
  6
Continuous
 62
     7
370
    15
100
AcDbLine
 10
500.1085945946
 20
326.0403783784
 30
0.0
 11
500.1085945946
 21
353.6903783784
 31
0.0
  0
LINE
  5
D3
330
1F
100
AcDbEntity
  8
0
  6
Continuous
 62
     7
370
    15
100
AcDbLine
 10
500.1085945946
 20
353.6903783784
 30
0.0
 11
494.1085945946
 21
353.6903783784
 31
0.0
  0
LINE
  5
D4
330
1F
100
AcDbEntity
  8
0
  6
Continuous
 62
     7
370
    15
100
AcDbLine
 10
494.1085945946
 20
353.6903783784
 30
0.0
 11
494.1085945946
 21
326.0403783784
 31
0.0
  0
LINE
  5
D5
330
1F
100
AcDbEntity
  8
0
  6
Continuous
 62
     7
370
    15
100
AcDbLine
 10
494.1085945946
 20
326.0403783784
 30
0.0
 11
500.1085945946
 21
326.0403783784
 31
0.0
  0
CIRCLE
  5
D6
330
1F
100
AcDbEntity
  8
0
  6
Continuous
 62
     7
370
    15
100
AcDbCircle
 10
414.7785945946
 20
73.7503783784
 30
0.0
 40
1.5
  0
CIRCLE
  5
D7
330
1F
100
AcDbEntity
  8
0
  6
Continuous
 62
     7
370
    15
100
AcDbCircle
 10
405.4385945946
 20
73.7503783784
 30
0.0
 40
1.5
  0
CIRCLE
  5
D8
330
1F
100
AcDbEntity
  8
0
  6
Continuous
 62
     7
370
    15
100
AcDbCircle
 10
583.991027027
 20
79.414027027
 30
0.0
 40
12.49999999999989
  0
ARC
  5
D9
330
1F
100
AcDbEntity
  8
0
  6
Continuous
 62
     7
370
    15
100
AcDbCircle
 10
556.949392461
 20
84.414027027
 30
0.0
 40
5.0
100
AcDbArc
 50
270.0
 51
349.5243183036
  0
ARC
  5
DA
330
1F
100
AcDbEntity
  8
0
  6
Continuous
 62
     7
370
    15
100
AcDbCircle
 10
583.991027027
 20
79.414027027
 30
0.0
 40
22.50000000000011
100
AcDbArc
 50
10.4756816964
 51
169.5243183036
  0
ARC
  5
DB
330
1F
100
AcDbEntity
  8
0
  6
Continuous
 62
     7
370
    15
100
AcDbCircle
 10
611.032661593
 20
84.414027027
 30
0.0
 40
5.000000000000048
100
AcDbArc
 50
190.4756816964
 51
270.0
  0
LINE
  5
DC
330
1F
100
AcDbEntity
  8
0
  6
Continuous
 62
     7
370
    15
100
AcDbLine
 10
611.032661593
 20
79.414027027
 30
0.0
 11
613.491027027
 21
79.414027027
 31
0.0
  0
ARC
  5
DD
330
1F
100
AcDbEntity
  8
0
  6
Continuous
 62
     7
370
    15
100
AcDbCircle
 10
613.491027027
 20
74.414027027
 30
0.0
 40
5.0
100
AcDbArc
 50
0.0
 51
90.0
  0
LINE
  5
DE
330
1F
100
AcDbEntity
  8
0
  6
Continuous
 62
     7
370
    15
100
AcDbLine
 10
618.491027027
 20
74.414027027
 30
0.0
 11
618.491027027
 21
49.414027027
 31
0.0
  0
LINE
  5
DF
330
1F
100
AcDbEntity
  8
0
  6
Continuous
 62
     7
370
    15
100
AcDbLine
 10
618.491027027
 20
49.414027027
 30
0.0
 11
614.991027027
 21
49.414027027
 31
0.0
  0
LINE
  5
E0
330
1F
100
AcDbEntity
  8
0
  6
Continuous
 62
     7
370
    15
100
AcDbLine
 10
614.991027027
 20
49.414027027
 30
0.0
 11
614.991027027
 21
62.914027027
 31
0.0
  0
LINE
  5
E1
330
1F
100
AcDbEntity
  8
0
  6
Continuous
 62
     7
370
    15
100
AcDbLine
 10
614.991027027
 20
62.914027027
 30
0.0
 11
616.991027027
 21
62.914027027
 31
0.0
  0
LINE
  5
E2
330
1F
100
AcDbEntity
  8
0
  6
Continuous
 62
     7
370
    15
100
AcDbLine
 10
616.991027027
 20
62.914027027
 30
0.0
 11
616.991027027
 21
67.914027027
 31
0.0
  0
LINE
  5
E3
330
1F
100
AcDbEntity
  8
0
  6
Continuous
 62
     7
370
    15
100
AcDbLine
 10
616.991027027
 20
67.914027027
 30
0.0
 11
614.991027027
 21
67.914027027
 31
0.0
  0
LINE
  5
E4
330
1F
100
AcDbEntity
  8
0
  6
Continuous
 62
     7
370
    15
100
AcDbLine
 10
614.991027027
 20
67.914027027
 30
0.0
 11
614.991027027
 21
73.414027027
 31
0.0
  0
LINE
  5
E5
330
1F
100
AcDbEntity
  8
0
  6
Continuous
 62
     7
370
    15
100
AcDbLine
 10
614.991027027
 20
73.414027027
 30
0.0
 11
609.991027027
 21
73.414027027
 31
0.0
  0
LINE
  5
E6
330
1F
100
AcDbEntity
  8
0
  6
Continuous
 62
     7
370
    15
100
AcDbLine
 10
609.991027027
 20
73.414027027
 30
0.0
 11
609.991027027
 21
67.914027027
 31
0.0
  0
LINE
  5
E7
330
1F
100
AcDbEntity
  8
0
  6
Continuous
 62
     7
370
    15
100
AcDbLine
 10
609.991027027
 20
67.914027027
 30
0.0
 11
607.991027027
 21
67.914027027
 31
0.0
  0
LINE
  5
E8
330
1F
100
AcDbEntity
  8
0
  6
Continuous
 62
     7
370
    15
100
AcDbLine
 10
607.991027027
 20
67.914027027
 30
0.0
 11
607.991027027
 21
62.914027027
 31
0.0
  0
LINE
  5
E9
330
1F
100
AcDbEntity
  8
0
  6
Continuous
 62
     7
370
    15
100
AcDbLine
 10
607.991027027
 20
62.914027027
 30
0.0
 11
609.991027027
 21
62.914027027
 31
0.0
  0
LINE
  5
EA
330
1F
100
AcDbEntity
  8
0
  6
Continuous
 62
     7
370
    15
100
AcDbLine
 10
609.991027027
 20
62.914027027
 30
0.0
 11
609.991027027
 21
49.414027027
 31
0.0
  0
LINE
  5
EB
330
1F
100
AcDbEntity
  8
0
  6
Continuous
 62
     7
370
    15
100
AcDbLine
 10
590.698226209
 20
49.414027027
 30
0.0
 11
609.991027027
 21
49.414027027
 31
0.0
  0
LINE
  5
EC
330
1F
100
AcDbEntity
  8
0
  6
Continuous
 62
     7
370
    15
100
AcDbLine
 10
590.698226209
 20
55.414027027
 30
0.0
 11
590.698226209
 21
49.414027027
 31
0.0
  0
LINE
  5
ED
330
1F
100
AcDbEntity
  8
0
  6
Continuous
 62
     7
370
    15
100
AcDbLine
 10
577.2838278451
 20
55.414027027
 30
0.0
 11
590.698226209
 21
55.414027027
 31
0.0
  0
LINE
  5
EE
330
1F
100
AcDbEntity
  8
0
  6
Continuous
 62
     7
370
    15
100
AcDbLine
 10
577.2838278451
 20
49.414027027
 30
0.0
 11
577.2838278451
 21
55.414027027
 31
0.0
  0
LINE
  5
EF
330
1F
100
AcDbEntity
  8
0
  6
Continuous
 62
     7
370
    15
100
AcDbLine
 10
557.991027027
 20
49.414027027
 30
0.0
 11
577.2838278451
 21
49.414027027
 31
0.0
  0
LINE
  5
F0
330
1F
100
AcDbEntity
  8
0
  6
Continuous
 62
     7
370
    15
100
AcDbLine
 10
557.991027027
 20
62.914027027
 30
0.0
 11
557.991027027
 21
49.414027027
 31
0.0
  0
LINE
  5
F1
330
1F
100
AcDbEntity
  8
0
  6
Continuous
 62
     7
370
    15
100
AcDbLine
 10
559.991027027
 20
62.914027027
 30
0.0
 11
557.991027027
 21
62.914027027
 31
0.0
  0
LINE
  5
F2
330
1F
100
AcDbEntity
  8
0
  6
Continuous
 62
     7
370
    15
100
AcDbLine
 10
559.991027027
 20
67.914027027
 30
0.0
 11
559.991027027
 21
62.914027027
 31
0.0
  0
LINE
  5
F3
330
1F
100
AcDbEntity
  8
0
  6
Continuous
 62
     7
370
    15
100
AcDbLine
 10
557.991027027
 20
67.914027027
 30
0.0
 11
559.991027027
 21
67.914027027
 31
0.0
  0
LINE
  5
F4
330
1F
100
AcDbEntity
  8
0
  6
Continuous
 62
     7
370
    15
100
AcDbLine
 10
557.991027027
 20
73.414027027
 30
0.0
 11
557.991027027
 21
67.914027027
 31
0.0
  0
LINE
  5
F5
330
1F
100
AcDbEntity
  8
0
  6
Continuous
 62
     7
370
    15
100
AcDbLine
 10
552.991027027
 20
73.414027027
 30
0.0
 11
557.991027027
 21
73.414027027
 31
0.0
  0
LINE
  5
F6
330
1F
100
AcDbEntity
  8
0
  6
Continuous
 62
     7
370
    15
100
AcDbLine
 10
552.991027027
 20
67.914027027
 30
0.0
 11
552.991027027
 21
73.414027027
 31
0.0
  0
LINE
  5
F7
330
1F
100
AcDbEntity
  8
0
  6
Continuous
 62
     7
370
    15
100
AcDbLine
 10
550.991027027
 20
67.914027027
 30
0.0
 11
552.991027027
 21
67.914027027
 31
0.0
  0
LINE
  5
F8
330
1F
100
AcDbEntity
  8
0
  6
Continuous
 62
     7
370
    15
100
AcDbLine
 10
550.991027027
 20
62.914027027
 30
0.0
 11
550.991027027
 21
67.914027027
 31
0.0
  0
LINE
  5
F9
330
1F
100
AcDbEntity
  8
0
  6
Continuous
 62
     7
370
    15
100
AcDbLine
 10
552.991027027
 20
62.914027027
 30
0.0
 11
550.991027027
 21
62.914027027
 31
0.0
  0
LINE
  5
FA
330
1F
100
AcDbEntity
  8
0
  6
Continuous
 62
     7
370
    15
100
AcDbLine
 10
552.991027027
 20
49.414027027
 30
0.0
 11
552.991027027
 21
62.914027027
 31
0.0
  0
LINE
  5
FB
330
1F
100
AcDbEntity
  8
0
  6
Continuous
 62
     7
370
    15
100
AcDbLine
 10
549.491027027
 20
49.414027027
 30
0.0
 11
552.991027027
 21
49.414027027
 31
0.0
  0
LINE
  5
FC
330
1F
100
AcDbEntity
  8
0
  6
Continuous
 62
     7
370
    15
100
AcDbLine
 10
549.491027027
 20
74.414027027
 30
0.0
 11
549.491027027
 21
49.414027027
 31
0.0
  0
ARC
  5
FD
330
1F
100
AcDbEntity
  8
0
  6
Continuous
 62
     7
370
    15
100
AcDbCircle
 10
554.491027027
 20
74.414027027
 30
0.0
 40
5.0
100
AcDbArc
 50
90.0
 51
180.0
  0
LINE
  5
FE
330
1F
100
AcDbEntity
  8
0
  6
Continuous
 62
     7
370
    15
100
AcDbLine
 10
556.949392461
 20
79.414027027
 30
0.0
 11
554.491027027
 21
79.414027027
 31
0.0
  0
CIRCLE
  5
FF
330
1F
100
AcDbEntity
  8
0
  6
Continuous
 62
     7
370
    15
100
AcDbCircle
 10
582.9078378378
 20
270.0742432432
 30
0.0
 40
12.49999999999989
  0
ARC
  5
100
330
1F
100
AcDbEntity
  8
0
  6
Continuous
 62
     7
370
    15
100
AcDbCircle
 10
555.8662032719
 20
275.0742432432
 30
0.0
 40
5.0
100
AcDbArc
 50
270.0
 51
349.5243183036
  0
ARC
  5
101
330
1F
100
AcDbEntity
  8
0
  6
Continuous
 62
     7
370
    15
100
AcDbCircle
 10
582.9078378378
 20
270.0742432432
 30
0.0
 40
22.5000000000001
100
AcDbArc
 50
10.4756816964
 51
169.5243183036
  0
ARC
  5
102
330
1F
100
AcDbEntity
  8
0
  6
Continuous
 62
     7
370
    15
100
AcDbCircle
 10
609.9494724038
 20
275.0742432432
 30
0.0
 40
5.000000000000053
100
AcDbArc
 50
190.4756816964
 51
270.0
  0
LINE
  5
103
330
1F
100
AcDbEntity
  8
0
  6
Continuous
 62
     7
370
    15
100
AcDbLine
 10
609.9494724038
 20
270.0742432432
 30
0.0
 11
612.4078378378
 21
270.0742432432
 31
0.0
  0
ARC
  5
104
330
1F
100
AcDbEntity
  8
0
  6
Continuous
 62
     7
370
    15
100
AcDbCircle
 10
612.4078378378
 20
265.0742432432
 30
0.0
 40
5.0
100
AcDbArc
 50
0.0
 51
90.0
  0
LINE
  5
105
330
1F
100
AcDbEntity
  8
0
  6
Continuous
 62
     7
370
    15
100
AcDbLine
 10
617.4078378378
 20
265.0742432432
 30
0.0
 11
617.4078378378
 21
240.0742432432
 31
0.0
  0
LINE
  5
106
330
1F
100
AcDbEntity
  8
0
  6
Continuous
 62
     7
370
    15
100
AcDbLine
 10
617.4078378378
 20
240.0742432432
 30
0.0
 11
613.9078378378
 21
240.0742432432
 31
0.0
  0
LINE
  5
107
330
1F
100
AcDbEntity
  8
0
  6
Continuous
 62
     7
370
    15
100
AcDbLine
 10
613.9078378378
 20
240.0742432432
 30
0.0
 11
613.9078378378
 21
253.5742432432
 31
0.0
  0
LINE
  5
108
330
1F
100
AcDbEntity
  8
0
  6
Continuous
 62
     7
370
    15
100
AcDbLine
 10
613.9078378378
 20
253.5742432432
 30
0.0
 11
615.9078378378
 21
253.5742432432
 31
0.0
  0
LINE
  5
109
330
1F
100
AcDbEntity
  8
0
  6
Continuous
 62
     7
370
    15
100
AcDbLine
 10
615.9078378378
 20
253.5742432432
 30
0.0
 11
615.9078378378
 21
258.5742432432
 31
0.0
  0
LINE
  5
10A
330
1F
100
AcDbEntity
  8
0
  6
Continuous
 62
     7
370
    15
100
AcDbLine
 10
615.9078378378
 20
258.5742432432
 30
0.0
 11
613.9078378378
 21
258.5742432432
 31
0.0
  0
LINE
  5
10B
330
1F
100
AcDbEntity
  8
0
  6
Continuous
 62
     7
370
    15
100
AcDbLine
 10
613.9078378378
 20
258.5742432432
 30
0.0
 11
613.9078378378
 21
264.0742432432
 31
0.0
  0
LINE
  5
10C
330
1F
100
AcDbEntity
  8
0
  6
Continuous
 62
     7
370
    15
100
AcDbLine
 10
613.9078378378
 20
264.0742432432
 30
0.0
 11
608.9078378378
 21
264.0742432432
 31
0.0
  0
LINE
  5
10D
330
1F
100
AcDbEntity
  8
0
  6
Continuous
 62
     7
370
    15
100
AcDbLine
 10
608.9078378378
 20
264.0742432432
 30
0.0
 11
608.9078378378
 21
258.5742432432
 31
0.0
  0
LINE
  5
10E
330
1F
100
AcDbEntity
  8
0
  6
Continuous
 62
     7
370
    15
100
AcDbLine
 10
608.9078378378
 20
258.5742432432
 30
0.0
 11
606.9078378378
 21
258.5742432432
 31
0.0
  0
LINE
  5
10F
330
1F
100
AcDbEntity
  8
0
  6
Continuous
 62
     7
370
    15
100
AcDbLine
 10
606.9078378378
 20
258.5742432432
 30
0.0
 11
606.9078378378
 21
253.5742432432
 31
0.0
  0
LINE
  5
110
330
1F
100
AcDbEntity
  8
0
  6
Continuous
 62
     7
370
    15
100
AcDbLine
 10
606.9078378378
 20
253.5742432432
 30
0.0
 11
608.9078378378
 21
253.5742432432
 31
0.0
  0
LINE
  5
111
330
1F
100
AcDbEntity
  8
0
  6
Continuous
 62
     7
370
    15
100
AcDbLine
 10
608.9078378378
 20
253.5742432432
 30
0.0
 11
608.9078378378
 21
240.0742432432
 31
0.0
  0
LINE
  5
112
330
1F
100
AcDbEntity
  8
0
  6
Continuous
 62
     7
370
    15
100
AcDbLine
 10
589.6150370198
 20
240.0742432432
 30
0.0
 11
608.9078378378
 21
240.0742432432
 31
0.0
  0
LINE
  5
113
330
1F
100
AcDbEntity
  8
0
  6
Continuous
 62
     7
370
    15
100
AcDbLine
 10
589.6150370198
 20
246.0742432432
 30
0.0
 11
589.6150370198
 21
240.0742432432
 31
0.0
  0
LINE
  5
114
330
1F
100
AcDbEntity
  8
0
  6
Continuous
 62
     7
370
    15
100
AcDbLine
 10
576.2006386559
 20
246.0742432432
 30
0.0
 11
589.6150370198
 21
246.0742432432
 31
0.0
  0
LINE
  5
115
330
1F
100
AcDbEntity
  8
0
  6
Continuous
 62
     7
370
    15
100
AcDbLine
 10
576.2006386559
 20
240.0742432432
 30
0.0
 11
576.2006386559
 21
246.0742432432
 31
0.0
  0
LINE
  5
116
330
1F
100
AcDbEntity
  8
0
  6
Continuous
 62
     7
370
    15
100
AcDbLine
 10
556.9078378378
 20
240.0742432432
 30
0.0
 11
576.2006386559
 21
240.0742432432
 31
0.0
  0
LINE
  5
117
330
1F
100
AcDbEntity
  8
0
  6
Continuous
 62
     7
370
    15
100
AcDbLine
 10
556.9078378378
 20
253.5742432432
 30
0.0
 11
556.9078378378
 21
240.0742432432
 31
0.0
  0
LINE
  5
118
330
1F
100
AcDbEntity
  8
0
  6
Continuous
 62
     7
370
    15
100
AcDbLine
 10
558.9078378378
 20
253.5742432432
 30
0.0
 11
556.9078378378
 21
253.5742432432
 31
0.0
  0
LINE
  5
119
330
1F
100
AcDbEntity
  8
0
  6
Continuous
 62
     7
370
    15
100
AcDbLine
 10
558.9078378378
 20
258.5742432432
 30
0.0
 11
558.9078378378
 21
253.5742432432
 31
0.0
  0
LINE
  5
11A
330
1F
100
AcDbEntity
  8
0
  6
Continuous
 62
     7
370
    15
100
AcDbLine
 10
556.9078378378
 20
258.5742432432
 30
0.0
 11
558.9078378378
 21
258.5742432432
 31
0.0
  0
LINE
  5
11B
330
1F
100
AcDbEntity
  8
0
  6
Continuous
 62
     7
370
    15
100
AcDbLine
 10
556.9078378378
 20
264.0742432432
 30
0.0
 11
556.9078378378
 21
258.5742432432
 31
0.0
  0
LINE
  5
11C
330
1F
100
AcDbEntity
  8
0
  6
Continuous
 62
     7
370
    15
100
AcDbLine
 10
551.9078378378
 20
264.0742432432
 30
0.0
 11
556.9078378378
 21
264.0742432432
 31
0.0
  0
LINE
  5
11D
330
1F
100
AcDbEntity
  8
0
  6
Continuous
 62
     7
370
    15
100
AcDbLine
 10
551.9078378378
 20
258.5742432432
 30
0.0
 11
551.9078378378
 21
264.0742432432
 31
0.0
  0
LINE
  5
11E
330
1F
100
AcDbEntity
  8
0
  6
Continuous
 62
     7
370
    15
100
AcDbLine
 10
549.9078378378
 20
258.5742432432
 30
0.0
 11
551.9078378378
 21
258.5742432432
 31
0.0
  0
LINE
  5
11F
330
1F
100
AcDbEntity
  8
0
  6
Continuous
 62
     7
370
    15
100
AcDbLine
 10
549.9078378378
 20
253.5742432432
 30
0.0
 11
549.9078378378
 21
258.5742432432
 31
0.0
  0
LINE
  5
120
330
1F
100
AcDbEntity
  8
0
  6
Continuous
 62
     7
370
    15
100
AcDbLine
 10
551.9078378378
 20
253.5742432432
 30
0.0
 11
549.9078378378
 21
253.5742432432
 31
0.0
  0
LINE
  5
121
330
1F
100
AcDbEntity
  8
0
  6
Continuous
 62
     7
370
    15
100
AcDbLine
 10
551.9078378378
 20
240.0742432432
 30
0.0
 11
551.9078378378
 21
253.5742432432
 31
0.0
  0
LINE
  5
122
330
1F
100
AcDbEntity
  8
0
  6
Continuous
 62
     7
370
    15
100
AcDbLine
 10
548.4078378378
 20
240.0742432432
 30
0.0
 11
551.9078378378
 21
240.0742432432
 31
0.0
  0
LINE
  5
123
330
1F
100
AcDbEntity
  8
0
  6
Continuous
 62
     7
370
    15
100
AcDbLine
 10
548.4078378378
 20
265.0742432432
 30
0.0
 11
548.4078378378
 21
240.0742432432
 31
0.0
  0
ARC
  5
124
330
1F
100
AcDbEntity
  8
0
  6
Continuous
 62
     7
370
    15
100
AcDbCircle
 10
553.4078378378
 20
265.0742432432
 30
0.0
 40
5.0
100
AcDbArc
 50
90.0
 51
180.0
  0
LINE
  5
125
330
1F
100
AcDbEntity
  8
0
  6
Continuous
 62
     7
370
    15
100
AcDbLine
 10
555.8662032719
 20
270.0742432432
 30
0.0
 11
553.4078378378
 21
270.0742432432
 31
0.0
  0
CIRCLE
  5
126
330
1F
100
AcDbEntity
  8
0
  6
Continuous
 62
     7
370
    15
100
AcDbCircle
 10
577.1117567568
 20
339.6272162162
 30
0.0
 40
12.49999999999989
  0
ARC
  5
127
330
1F
100
AcDbEntity
  8
0
  6
Continuous
 62
     7
370
    15
100
AcDbCircle
 10
550.0701221908
 20
344.6272162162
 30
0.0
 40
5.000000000000057
100
AcDbArc
 50
270.0
 51
349.5243183036
  0
ARC
  5
128
330
1F
100
AcDbEntity
  8
0
  6
Continuous
 62
     7
370
    15
100
AcDbCircle
 10
577.1117567568
 20
339.6272162162
 30
0.0
 40
22.50000000000011
100
AcDbArc
 50
10.4756816964
 51
169.5243183036
  0
ARC
  5
129
330
1F
100
AcDbEntity
  8
0
  6
Continuous
 62
     7
370
    15
100
AcDbCircle
 10
604.1533913227
 20
344.6272162162
 30
0.0
 40
5.000000000000057
100
AcDbArc
 50
190.4756816964
 51
270.0
  0
LINE
  5
12A
330
1F
100
AcDbEntity
  8
0
  6
Continuous
 62
     7
370
    15
100
AcDbLine
 10
604.1533913227
 20
339.6272162162
 30
0.0
 11
606.6117567568
 21
339.6272162162
 31
0.0
  0
ARC
  5
12B
330
1F
100
AcDbEntity
  8
0
  6
Continuous
 62
     7
370
    15
100
AcDbCircle
 10
606.6117567568
 20
334.6272162162
 30
0.0
 40
5.0
100
AcDbArc
 50
0.0
 51
90.0
  0
LINE
  5
12C
330
1F
100
AcDbEntity
  8
0
  6
Continuous
 62
     7
370
    15
100
AcDbLine
 10
611.6117567568
 20
334.6272162162
 30
0.0
 11
611.6117567568
 21
309.6272162162
 31
0.0
  0
LINE
  5
12D
330
1F
100
AcDbEntity
  8
0
  6
Continuous
 62
     7
370
    15
100
AcDbLine
 10
611.6117567568
 20
309.6272162162
 30
0.0
 11
608.1117567568
 21
309.6272162162
 31
0.0
  0
LINE
  5
12E
330
1F
100
AcDbEntity
  8
0
  6
Continuous
 62
     7
370
    15
100
AcDbLine
 10
608.1117567568
 20
309.6272162162
 30
0.0
 11
608.1117567568
 21
323.1272162162
 31
0.0
  0
LINE
  5
12F
330
1F
100
AcDbEntity
  8
0
  6
Continuous
 62
     7
370
    15
100
AcDbLine
 10
608.1117567568
 20
323.1272162162
 30
0.0
 11
610.1117567568
 21
323.1272162162
 31
0.0
  0
LINE
  5
130
330
1F
100
AcDbEntity
  8
0
  6
Continuous
 62
     7
370
    15
100
AcDbLine
 10
610.1117567568
 20
323.1272162162
 30
0.0
 11
610.1117567568
 21
328.1272162162
 31
0.0
  0
LINE
  5
131
330
1F
100
AcDbEntity
  8
0
  6
Continuous
 62
     7
370
    15
100
AcDbLine
 10
610.1117567568
 20
328.1272162162
 30
0.0
 11
608.1117567568
 21
328.1272162162
 31
0.0
  0
LINE
  5
132
330
1F
100
AcDbEntity
  8
0
  6
Continuous
 62
     7
370
    15
100
AcDbLine
 10
608.1117567568
 20
328.1272162162
 30
0.0
 11
608.1117567568
 21
333.6272162162
 31
0.0
  0
LINE
  5
133
330
1F
100
AcDbEntity
  8
0
  6
Continuous
 62
     7
370
    15
100
AcDbLine
 10
608.1117567568
 20
333.6272162162
 30
0.0
 11
603.1117567568
 21
333.6272162162
 31
0.0
  0
LINE
  5
134
330
1F
100
AcDbEntity
  8
0
  6
Continuous
 62
     7
370
    15
100
AcDbLine
 10
603.1117567568
 20
333.6272162162
 30
0.0
 11
603.1117567568
 21
328.1272162162
 31
0.0
  0
LINE
  5
135
330
1F
100
AcDbEntity
  8
0
  6
Continuous
 62
     7
370
    15
100
AcDbLine
 10
603.1117567568
 20
328.1272162162
 30
0.0
 11
601.1117567568
 21
328.1272162162
 31
0.0
  0
LINE
  5
136
330
1F
100
AcDbEntity
  8
0
  6
Continuous
 62
     7
370
    15
100
AcDbLine
 10
601.1117567568
 20
328.1272162162
 30
0.0
 11
601.1117567568
 21
323.1272162162
 31
0.0
  0
LINE
  5
137
330
1F
100
AcDbEntity
  8
0
  6
Continuous
 62
     7
370
    15
100
AcDbLine
 10
601.1117567568
 20
323.1272162162
 30
0.0
 11
603.1117567568
 21
323.1272162162
 31
0.0
  0
LINE
  5
138
330
1F
100
AcDbEntity
  8
0
  6
Continuous
 62
     7
370
    15
100
AcDbLine
 10
603.1117567568
 20
323.1272162162
 30
0.0
 11
603.1117567568
 21
309.6272162162
 31
0.0
  0
LINE
  5
139
330
1F
100
AcDbEntity
  8
0
  6
Continuous
 62
     7
370
    15
100
AcDbLine
 10
583.8189559387
 20
309.6272162162
 30
0.0
 11
603.1117567568
 21
309.6272162162
 31
0.0
  0
LINE
  5
13A
330
1F
100
AcDbEntity
  8
0
  6
Continuous
 62
     7
370
    15
100
AcDbLine
 10
583.8189559387
 20
315.6272162162
 30
0.0
 11
583.8189559387
 21
309.6272162162
 31
0.0
  0
LINE
  5
13B
330
1F
100
AcDbEntity
  8
0
  6
Continuous
 62
     7
370
    15
100
AcDbLine
 10
570.4045575748
 20
315.6272162162
 30
0.0
 11
583.8189559387
 21
315.6272162162
 31
0.0
  0
LINE
  5
13C
330
1F
100
AcDbEntity
  8
0
  6
Continuous
 62
     7
370
    15
100
AcDbLine
 10
570.4045575748
 20
309.6272162162
 30
0.0
 11
570.4045575748
 21
315.6272162162
 31
0.0
  0
LINE
  5
13D
330
1F
100
AcDbEntity
  8
0
  6
Continuous
 62
     7
370
    15
100
AcDbLine
 10
551.1117567568
 20
309.6272162162
 30
0.0
 11
570.4045575748
 21
309.6272162162
 31
0.0
  0
LINE
  5
13E
330
1F
100
AcDbEntity
  8
0
  6
Continuous
 62
     7
370
    15
100
AcDbLine
 10
551.1117567568
 20
323.1272162162
 30
0.0
 11
551.1117567568
 21
309.6272162162
 31
0.0
  0
LINE
  5
13F
330
1F
100
AcDbEntity
  8
0
  6
Continuous
 62
     7
370
    15
100
AcDbLine
 10
553.1117567568
 20
323.1272162162
 30
0.0
 11
551.1117567568
 21
323.1272162162
 31
0.0
  0
LINE
  5
140
330
1F
100
AcDbEntity
  8
0
  6
Continuous
 62
     7
370
    15
100
AcDbLine
 10
553.1117567568
 20
328.1272162162
 30
0.0
 11
553.1117567568
 21
323.1272162162
 31
0.0
  0
LINE
  5
141
330
1F
100
AcDbEntity
  8
0
  6
Continuous
 62
     7
370
    15
100
AcDbLine
 10
551.1117567568
 20
328.1272162162
 30
0.0
 11
553.1117567568
 21
328.1272162162
 31
0.0
  0
LINE
  5
142
330
1F
100
AcDbEntity
  8
0
  6
Continuous
 62
     7
370
    15
100
AcDbLine
 10
551.1117567568
 20
333.6272162162
 30
0.0
 11
551.1117567568
 21
328.1272162162
 31
0.0
  0
LINE
  5
143
330
1F
100
AcDbEntity
  8
0
  6
Continuous
 62
     7
370
    15
100
AcDbLine
 10
546.1117567568
 20
333.6272162162
 30
0.0
 11
551.1117567568
 21
333.6272162162
 31
0.0
  0
LINE
  5
144
330
1F
100
AcDbEntity
  8
0
  6
Continuous
 62
     7
370
    15
100
AcDbLine
 10
546.1117567568
 20
328.1272162162
 30
0.0
 11
546.1117567568
 21
333.6272162162
 31
0.0
  0
LINE
  5
145
330
1F
100
AcDbEntity
  8
0
  6
Continuous
 62
     7
370
    15
100
AcDbLine
 10
544.1117567568
 20
328.1272162162
 30
0.0
 11
546.1117567568
 21
328.1272162162
 31
0.0
  0
LINE
  5
146
330
1F
100
AcDbEntity
  8
0
  6
Continuous
 62
     7
370
    15
100
AcDbLine
 10
544.1117567568
 20
323.1272162162
 30
0.0
 11
544.1117567568
 21
328.1272162162
 31
0.0
  0
LINE
  5
147
330
1F
100
AcDbEntity
  8
0
  6
Continuous
 62
     7
370
    15
100
AcDbLine
 10
546.1117567568
 20
323.1272162162
 30
0.0
 11
544.1117567568
 21
323.1272162162
 31
0.0
  0
LINE
  5
148
330
1F
100
AcDbEntity
  8
0
  6
Continuous
 62
     7
370
    15
100
AcDbLine
 10
546.1117567568
 20
309.6272162162
 30
0.0
 11
546.1117567568
 21
323.1272162162
 31
0.0
  0
LINE
  5
149
330
1F
100
AcDbEntity
  8
0
  6
Continuous
 62
     7
370
    15
100
AcDbLine
 10
542.6117567568
 20
309.6272162162
 30
0.0
 11
546.1117567568
 21
309.6272162162
 31
0.0
  0
LINE
  5
14A
330
1F
100
AcDbEntity
  8
0
  6
Continuous
 62
     7
370
    15
100
AcDbLine
 10
542.6117567568
 20
334.6272162162
 30
0.0
 11
542.6117567568
 21
309.6272162162
 31
0.0
  0
ARC
  5
14B
330
1F
100
AcDbEntity
  8
0
  6
Continuous
 62
     7
370
    15
100
AcDbCircle
 10
547.6117567568
 20
334.6272162162
 30
0.0
 40
5.0
100
AcDbArc
 50
90.0
 51
180.0
  0
LINE
  5
14C
330
1F
100
AcDbEntity
  8
0
  6
Continuous
 62
     7
370
    15
100
AcDbLine
 10
550.0701221908
 20
339.6272162162
 30
0.0
 11
547.6117567568
 21
339.6272162162
 31
0.0
  0
CIRCLE
  5
14D
330
1F
100
AcDbEntity
  8
0
  6
Continuous
 62
     7
370
    15
100
AcDbCircle
 10
584.0670540541
 20
199.3620540541
 30
0.0
 40
12.5
  0
ARC
  5
14E
330
1F
100
AcDbEntity
  8
0
  6
Continuous
 62
     7
370
    15
100
AcDbCircle
 10
557.0254194881
 20
204.3620540541
 30
0.0
 40
5.000000000000048
100
AcDbArc
 50
270.0
 51
349.5243183036
  0
ARC
  5
14F
330
1F
100
AcDbEntity
  8
0
  6
Continuous
 62
     7
370
    15
100
AcDbCircle
 10
584.0670540541
 20
199.3620540541
 30
0.0
 40
22.50000000000011
100
AcDbArc
 50
10.4756816964
 51
169.5243183036
  0
ARC
  5
150
330
1F
100
AcDbEntity
  8
0
  6
Continuous
 62
     7
370
    15
100
AcDbCircle
 10
611.10868862
 20
204.3620540541
 30
0.0
 40
5.0
100
AcDbArc
 50
190.4756816964
 51
270.0
  0
LINE
  5
151
330
1F
100
AcDbEntity
  8
0
  6
Continuous
 62
     7
370
    15
100
AcDbLine
 10
611.10868862
 20
199.3620540541
 30
0.0
 11
613.5670540541
 21
199.3620540541
 31
0.0
  0
ARC
  5
152
330
1F
100
AcDbEntity
  8
0
  6
Continuous
 62
     7
370
    15
100
AcDbCircle
 10
613.5670540541
 20
194.3620540541
 30
0.0
 40
5.0
100
AcDbArc
 50
0.0
 51
90.0
  0
LINE
  5
153
330
1F
100
AcDbEntity
  8
0
  6
Continuous
 62
     7
370
    15
100
AcDbLine
 10
618.5670540541
 20
194.3620540541
 30
0.0
 11
618.5670540541
 21
169.3620540541
 31
0.0
  0
LINE
  5
154
330
1F
100
AcDbEntity
  8
0
  6
Continuous
 62
     7
370
    15
100
AcDbLine
 10
618.5670540541
 20
169.3620540541
 30
0.0
 11
615.0670540541
 21
169.3620540541
 31
0.0
  0
LINE
  5
155
330
1F
100
AcDbEntity
  8
0
  6
Continuous
 62
     7
370
    15
100
AcDbLine
 10
615.0670540541
 20
169.3620540541
 30
0.0
 11
615.0670540541
 21
182.8620540541
 31
0.0
  0
LINE
  5
156
330
1F
100
AcDbEntity
  8
0
  6
Continuous
 62
     7
370
    15
100
AcDbLine
 10
615.0670540541
 20
182.8620540541
 30
0.0
 11
617.0670540541
 21
182.8620540541
 31
0.0
  0
LINE
  5
157
330
1F
100
AcDbEntity
  8
0
  6
Continuous
 62
     7
370
    15
100
AcDbLine
 10
617.0670540541
 20
182.8620540541
 30
0.0
 11
617.0670540541
 21
187.8620540541
 31
0.0
  0
LINE
  5
158
330
1F
100
AcDbEntity
  8
0
  6
Continuous
 62
     7
370
    15
100
AcDbLine
 10
617.0670540541
 20
187.8620540541
 30
0.0
 11
615.0670540541
 21
187.8620540541
 31
0.0
  0
LINE
  5
159
330
1F
100
AcDbEntity
  8
0
  6
Continuous
 62
     7
370
    15
100
AcDbLine
 10
615.0670540541
 20
187.8620540541
 30
0.0
 11
615.0670540541
 21
193.3620540541
 31
0.0
  0
LINE
  5
15A
330
1F
100
AcDbEntity
  8
0
  6
Continuous
 62
     7
370
    15
100
AcDbLine
 10
615.0670540541
 20
193.3620540541
 30
0.0
 11
610.0670540541
 21
193.3620540541
 31
0.0
  0
LINE
  5
15B
330
1F
100
AcDbEntity
  8
0
  6
Continuous
 62
     7
370
    15
100
AcDbLine
 10
610.0670540541
 20
193.3620540541
 30
0.0
 11
610.0670540541
 21
187.8620540541
 31
0.0
  0
LINE
  5
15C
330
1F
100
AcDbEntity
  8
0
  6
Continuous
 62
     7
370
    15
100
AcDbLine
 10
610.0670540541
 20
187.8620540541
 30
0.0
 11
608.0670540541
 21
187.8620540541
 31
0.0
  0
LINE
  5
15D
330
1F
100
AcDbEntity
  8
0
  6
Continuous
 62
     7
370
    15
100
AcDbLine
 10
608.0670540541
 20
187.8620540541
 30
0.0
 11
608.0670540541
 21
182.8620540541
 31
0.0
  0
LINE
  5
15E
330
1F
100
AcDbEntity
  8
0
  6
Continuous
 62
     7
370
    15
100
AcDbLine
 10
608.0670540541
 20
182.8620540541
 30
0.0
 11
610.0670540541
 21
182.8620540541
 31
0.0
  0
LINE
  5
15F
330
1F
100
AcDbEntity
  8
0
  6
Continuous
 62
     7
370
    15
100
AcDbLine
 10
610.0670540541
 20
182.8620540541
 30
0.0
 11
610.0670540541
 21
169.3620540541
 31
0.0
  0
LINE
  5
160
330
1F
100
AcDbEntity
  8
0
  6
Continuous
 62
     7
370
    15
100
AcDbLine
 10
590.774253236
 20
169.3620540541
 30
0.0
 11
610.0670540541
 21
169.3620540541
 31
0.0
  0
LINE
  5
161
330
1F
100
AcDbEntity
  8
0
  6
Continuous
 62
     7
370
    15
100
AcDbLine
 10
590.774253236
 20
175.3620540541
 30
0.0
 11
590.774253236
 21
169.3620540541
 31
0.0
  0
LINE
  5
162
330
1F
100
AcDbEntity
  8
0
  6
Continuous
 62
     7
370
    15
100
AcDbLine
 10
577.3598548721
 20
175.3620540541
 30
0.0
 11
590.774253236
 21
175.3620540541
 31
0.0
  0
LINE
  5
163
330
1F
100
AcDbEntity
  8
0
  6
Continuous
 62
     7
370
    15
100
AcDbLine
 10
577.3598548721
 20
169.3620540541
 30
0.0
 11
577.3598548721
 21
175.3620540541
 31
0.0
  0
LINE
  5
164
330
1F
100
AcDbEntity
  8
0
  6
Continuous
 62
     7
370
    15
100
AcDbLine
 10
558.0670540541
 20
169.3620540541
 30
0.0
 11
577.3598548721
 21
169.3620540541
 31
0.0
  0
LINE
  5
165
330
1F
100
AcDbEntity
  8
0
  6
Continuous
 62
     7
370
    15
100
AcDbLine
 10
558.0670540541
 20
182.8620540541
 30
0.0
 11
558.0670540541
 21
169.3620540541
 31
0.0
  0
LINE
  5
166
330
1F
100
AcDbEntity
  8
0
  6
Continuous
 62
     7
370
    15
100
AcDbLine
 10
560.0670540541
 20
182.8620540541
 30
0.0
 11
558.0670540541
 21
182.8620540541
 31
0.0
  0
LINE
  5
167
330
1F
100
AcDbEntity
  8
0
  6
Continuous
 62
     7
370
    15
100
AcDbLine
 10
560.0670540541
 20
187.8620540541
 30
0.0
 11
560.0670540541
 21
182.8620540541
 31
0.0
  0
LINE
  5
168
330
1F
100
AcDbEntity
  8
0
  6
Continuous
 62
     7
370
    15
100
AcDbLine
 10
558.0670540541
 20
187.8620540541
 30
0.0
 11
560.0670540541
 21
187.8620540541
 31
0.0
  0
LINE
  5
169
330
1F
100
AcDbEntity
  8
0
  6
Continuous
 62
     7
370
    15
100
AcDbLine
 10
558.0670540541
 20
193.3620540541
 30
0.0
 11
558.0670540541
 21
187.8620540541
 31
0.0
  0
LINE
  5
16A
330
1F
100
AcDbEntity
  8
0
  6
Continuous
 62
     7
370
    15
100
AcDbLine
 10
553.0670540541
 20
193.3620540541
 30
0.0
 11
558.0670540541
 21
193.3620540541
 31
0.0
  0
LINE
  5
16B
330
1F
100
AcDbEntity
  8
0
  6
Continuous
 62
     7
370
    15
100
AcDbLine
 10
553.0670540541
 20
187.8620540541
 30
0.0
 11
553.0670540541
 21
193.3620540541
 31
0.0
  0
LINE
  5
16C
330
1F
100
AcDbEntity
  8
0
  6
Continuous
 62
     7
370
    15
100
AcDbLine
 10
551.0670540541
 20
187.8620540541
 30
0.0
 11
553.0670540541
 21
187.8620540541
 31
0.0
  0
LINE
  5
16D
330
1F
100
AcDbEntity
  8
0
  6
Continuous
 62
     7
370
    15
100
AcDbLine
 10
551.0670540541
 20
182.8620540541
 30
0.0
 11
551.0670540541
 21
187.8620540541
 31
0.0
  0
LINE
  5
16E
330
1F
100
AcDbEntity
  8
0
  6
Continuous
 62
     7
370
    15
100
AcDbLine
 10
553.0670540541
 20
182.8620540541
 30
0.0
 11
551.0670540541
 21
182.8620540541
 31
0.0
  0
LINE
  5
16F
330
1F
100
AcDbEntity
  8
0
  6
Continuous
 62
     7
370
    15
100
AcDbLine
 10
553.0670540541
 20
169.3620540541
 30
0.0
 11
553.0670540541
 21
182.8620540541
 31
0.0
  0
LINE
  5
170
330
1F
100
AcDbEntity
  8
0
  6
Continuous
 62
     7
370
    15
100
AcDbLine
 10
549.5670540541
 20
169.3620540541
 30
0.0
 11
553.0670540541
 21
169.3620540541
 31
0.0
  0
LINE
  5
171
330
1F
100
AcDbEntity
  8
0
  6
Continuous
 62
     7
370
    15
100
AcDbLine
 10
549.5670540541
 20
194.3620540541
 30
0.0
 11
549.5670540541
 21
169.3620540541
 31
0.0
  0
ARC
  5
172
330
1F
100
AcDbEntity
  8
0
  6
Continuous
 62
     7
370
    15
100
AcDbCircle
 10
554.5670540541
 20
194.3620540541
 30
0.0
 40
5.0
100
AcDbArc
 50
90.0
 51
180.0
  0
LINE
  5
173
330
1F
100
AcDbEntity
  8
0
  6
Continuous
 62
     7
370
    15
100
AcDbLine
 10
557.0254194881
 20
199.3620540541
 30
0.0
 11
554.5670540541
 21
199.3620540541
 31
0.0
  0
CIRCLE
  5
174
330
1F
100
AcDbEntity
  8
0
  6
Continuous
 62
     7
370
    15
100
AcDbCircle
 10
582.9078378378
 20
140.242027027
 30
0.0
 40
12.49999999999989
  0
ARC
  5
175
330
1F
100
AcDbEntity
  8
0
  6
Continuous
 62
     7
370
    15
100
AcDbCircle
 10
555.8662032719
 20
145.242027027
 30
0.0
 40
5.0
100
AcDbArc
 50
270.0
 51
349.5243183036
  0
ARC
  5
176
330
1F
100
AcDbEntity
  8
0
  6
Continuous
 62
     7
370
    15
100
AcDbCircle
 10
582.9078378378
 20
140.242027027
 30
0.0
 40
22.50000000000011
100
AcDbArc
 50
10.4756816964
 51
169.5243183036
  0
ARC
  5
177
330
1F
100
AcDbEntity
  8
0
  6
Continuous
 62
     7
370
    15
100
AcDbCircle
 10
609.9494724038
 20
145.242027027
 30
0.0
 40
5.000000000000048
100
AcDbArc
 50
190.4756816964
 51
270.0
  0
LINE
  5
178
330
1F
100
AcDbEntity
  8
0
  6
Continuous
 62
     7
370
    15
100
AcDbLine
 10
609.9494724038
 20
140.242027027
 30
0.0
 11
612.4078378378
 21
140.242027027
 31
0.0
  0
ARC
  5
179
330
1F
100
AcDbEntity
  8
0
  6
Continuous
 62
     7
370
    15
100
AcDbCircle
 10
612.4078378378
 20
135.242027027
 30
0.0
 40
5.0
100
AcDbArc
 50
0.0
 51
90.0
  0
LINE
  5
17A
330
1F
100
AcDbEntity
  8
0
  6
Continuous
 62
     7
370
    15
100
AcDbLine
 10
617.4078378378
 20
135.242027027
 30
0.0
 11
617.4078378378
 21
110.242027027
 31
0.0
  0
LINE
  5
17B
330
1F
100
AcDbEntity
  8
0
  6
Continuous
 62
     7
370
    15
100
AcDbLine
 10
617.4078378378
 20
110.242027027
 30
0.0
 11
613.9078378378
 21
110.242027027
 31
0.0
  0
LINE
  5
17C
330
1F
100
AcDbEntity
  8
0
  6
Continuous
 62
     7
370
    15
100
AcDbLine
 10
613.9078378378
 20
110.242027027
 30
0.0
 11
613.9078378378
 21
123.742027027
 31
0.0
  0
LINE
  5
17D
330
1F
100
AcDbEntity
  8
0
  6
Continuous
 62
     7
370
    15
100
AcDbLine
 10
613.9078378378
 20
123.742027027
 30
0.0
 11
615.9078378378
 21
123.742027027
 31
0.0
  0
LINE
  5
17E
330
1F
100
AcDbEntity
  8
0
  6
Continuous
 62
     7
370
    15
100
AcDbLine
 10
615.9078378378
 20
123.742027027
 30
0.0
 11
615.9078378378
 21
128.742027027
 31
0.0
  0
LINE
  5
17F
330
1F
100
AcDbEntity
  8
0
  6
Continuous
 62
     7
370
    15
100
AcDbLine
 10
615.9078378378
 20
128.742027027
 30
0.0
 11
613.9078378378
 21
128.742027027
 31
0.0
  0
LINE
  5
180
330
1F
100
AcDbEntity
  8
0
  6
Continuous
 62
     7
370
    15
100
AcDbLine
 10
613.9078378378
 20
128.742027027
 30
0.0
 11
613.9078378378
 21
134.242027027
 31
0.0
  0
LINE
  5
181
330
1F
100
AcDbEntity
  8
0
  6
Continuous
 62
     7
370
    15
100
AcDbLine
 10
613.9078378378
 20
134.242027027
 30
0.0
 11
608.9078378378
 21
134.242027027
 31
0.0
  0
LINE
  5
182
330
1F
100
AcDbEntity
  8
0
  6
Continuous
 62
     7
370
    15
100
AcDbLine
 10
608.9078378378
 20
134.242027027
 30
0.0
 11
608.9078378378
 21
128.742027027
 31
0.0
  0
LINE
  5
183
330
1F
100
AcDbEntity
  8
0
  6
Continuous
 62
     7
370
    15
100
AcDbLine
 10
608.9078378378
 20
128.742027027
 30
0.0
 11
606.9078378378
 21
128.742027027
 31
0.0
  0
LINE
  5
184
330
1F
100
AcDbEntity
  8
0
  6
Continuous
 62
     7
370
    15
100
AcDbLine
 10
606.9078378378
 20
128.742027027
 30
0.0
 11
606.9078378378
 21
123.742027027
 31
0.0
  0
LINE
  5
185
330
1F
100
AcDbEntity
  8
0
  6
Continuous
 62
     7
370
    15
100
AcDbLine
 10
606.9078378378
 20
123.742027027
 30
0.0
 11
608.9078378378
 21
123.742027027
 31
0.0
  0
LINE
  5
186
330
1F
100
AcDbEntity
  8
0
  6
Continuous
 62
     7
370
    15
100
AcDbLine
 10
608.9078378378
 20
123.742027027
 30
0.0
 11
608.9078378378
 21
110.242027027
 31
0.0
  0
LINE
  5
187
330
1F
100
AcDbEntity
  8
0
  6
Continuous
 62
     7
370
    15
100
AcDbLine
 10
589.6150370198
 20
110.242027027
 30
0.0
 11
608.9078378378
 21
110.242027027
 31
0.0
  0
LINE
  5
188
330
1F
100
AcDbEntity
  8
0
  6
Continuous
 62
     7
370
    15
100
AcDbLine
 10
589.6150370198
 20
116.242027027
 30
0.0
 11
589.6150370198
 21
110.242027027
 31
0.0
  0
LINE
  5
189
330
1F
100
AcDbEntity
  8
0
  6
Continuous
 62
     7
370
    15
100
AcDbLine
 10
576.2006386559
 20
116.242027027
 30
0.0
 11
589.6150370198
 21
116.242027027
 31
0.0
  0
LINE
  5
18A
330
1F
100
AcDbEntity
  8
0
  6
Continuous
 62
     7
370
    15
100
AcDbLine
 10
576.2006386559
 20
110.242027027
 30
0.0
 11
576.2006386559
 21
116.242027027
 31
0.0
  0
LINE
  5
18B
330
1F
100
AcDbEntity
  8
0
  6
Continuous
 62
     7
370
    15
100
AcDbLine
 10
556.9078378378
 20
110.242027027
 30
0.0
 11
576.2006386559
 21
110.242027027
 31
0.0
  0
LINE
  5
18C
330
1F
100
AcDbEntity
  8
0
  6
Continuous
 62
     7
370
    15
100
AcDbLine
 10
556.9078378378
 20
123.742027027
 30
0.0
 11
556.9078378378
 21
110.242027027
 31
0.0
  0
LINE
  5
18D
330
1F
100
AcDbEntity
  8
0
  6
Continuous
 62
     7
370
    15
100
AcDbLine
 10
558.9078378378
 20
123.742027027
 30
0.0
 11
556.9078378378
 21
123.742027027
 31
0.0
  0
LINE
  5
18E
330
1F
100
AcDbEntity
  8
0
  6
Continuous
 62
     7
370
    15
100
AcDbLine
 10
558.9078378378
 20
128.742027027
 30
0.0
 11
558.9078378378
 21
123.742027027
 31
0.0
  0
LINE
  5
18F
330
1F
100
AcDbEntity
  8
0
  6
Continuous
 62
     7
370
    15
100
AcDbLine
 10
556.9078378378
 20
128.742027027
 30
0.0
 11
558.9078378378
 21
128.742027027
 31
0.0
  0
LINE
  5
190
330
1F
100
AcDbEntity
  8
0
  6
Continuous
 62
     7
370
    15
100
AcDbLine
 10
556.9078378378
 20
134.242027027
 30
0.0
 11
556.9078378378
 21
128.742027027
 31
0.0
  0
LINE
  5
191
330
1F
100
AcDbEntity
  8
0
  6
Continuous
 62
     7
370
    15
100
AcDbLine
 10
551.9078378378
 20
134.242027027
 30
0.0
 11
556.9078378378
 21
134.242027027
 31
0.0
  0
LINE
  5
192
330
1F
100
AcDbEntity
  8
0
  6
Continuous
 62
     7
370
    15
100
AcDbLine
 10
551.9078378378
 20
128.742027027
 30
0.0
 11
551.9078378378
 21
134.242027027
 31
0.0
  0
LINE
  5
193
330
1F
100
AcDbEntity
  8
0
  6
Continuous
 62
     7
370
    15
100
AcDbLine
 10
549.9078378378
 20
128.742027027
 30
0.0
 11
551.9078378378
 21
128.742027027
 31
0.0
  0
LINE
  5
194
330
1F
100
AcDbEntity
  8
0
  6
Continuous
 62
     7
370
    15
100
AcDbLine
 10
549.9078378378
 20
123.742027027
 30
0.0
 11
549.9078378378
 21
128.742027027
 31
0.0
  0
LINE
  5
195
330
1F
100
AcDbEntity
  8
0
  6
Continuous
 62
     7
370
    15
100
AcDbLine
 10
551.9078378378
 20
123.742027027
 30
0.0
 11
549.9078378378
 21
123.742027027
 31
0.0
  0
LINE
  5
196
330
1F
100
AcDbEntity
  8
0
  6
Continuous
 62
     7
370
    15
100
AcDbLine
 10
551.9078378378
 20
110.242027027
 30
0.0
 11
551.9078378378
 21
123.742027027
 31
0.0
  0
LINE
  5
197
330
1F
100
AcDbEntity
  8
0
  6
Continuous
 62
     7
370
    15
100
AcDbLine
 10
548.4078378378
 20
110.242027027
 30
0.0
 11
551.9078378378
 21
110.242027027
 31
0.0
  0
LINE
  5
198
330
1F
100
AcDbEntity
  8
0
  6
Continuous
 62
     7
370
    15
100
AcDbLine
 10
548.4078378378
 20
135.242027027
 30
0.0
 11
548.4078378378
 21
110.242027027
 31
0.0
  0
ARC
  5
199
330
1F
100
AcDbEntity
  8
0
  6
Continuous
 62
     7
370
    15
100
AcDbCircle
 10
553.4078378378
 20
135.242027027
 30
0.0
 40
5.0
100
AcDbArc
 50
90.0
 51
180.0
  0
LINE
  5
19A
330
1F
100
AcDbEntity
  8
0
  6
Continuous
 62
     7
370
    15
100
AcDbLine
 10
555.8662032719
 20
140.242027027
 30
0.0
 11
553.4078378378
 21
140.242027027
 31
0.0
  0
CIRCLE
  5
19B
330
1F
100
AcDbEntity
  8
0
  6
Continuous
 62
     7
370
    15
100
AcDbCircle
 10
694.1165675676
 20
286.6413783784
 30
0.0
 40
5.0
  0
CIRCLE
  5
19C
330
1F
100
AcDbEntity
  8
0
  6
Continuous
 62
     7
370
    15
100
AcDbCircle
 10
694.1165675676
 20
286.6413783784
 30
0.0
 40
50.0
  0
CIRCLE
  5
19D
330
1F
100
AcDbEntity
  8
0
  6
Continuous
 62
     7
370
    15
100
AcDbCircle
 10
694.1165675676
 20
306.6413783784
 30
0.0
 40
2.5
  0
CIRCLE
  5
19E
330
1F
100
AcDbEntity
  8
0
  6
Continuous
 62
     7
370
    15
100
AcDbCircle
 10
674.1165675676
 20
286.6413783784
 30
0.0
 40
2.500000000000227
  0
CIRCLE
  5
19F
330
1F
100
AcDbEntity
  8
0
  6
Continuous
 62
     7
370
    15
100
AcDbCircle
 10
694.1165675676
 20
266.6413783784
 30
0.0
 40
2.500000000000227
  0
CIRCLE
  5
1A0
330
1F
100
AcDbEntity
  8
0
  6
Continuous
 62
     7
370
    15
100
AcDbCircle
 10
714.1165675676
 20
286.6413783784
 30
0.0
 40
2.500000000000114
  0
CIRCLE
  5
1A1
330
1F
100
AcDbEntity
  8
0
  6
Continuous
 62
     7
370
    15
100
AcDbCircle
 10
693.0333783784
 20
173.5869459459
 30
0.0
 40
5.0
  0
CIRCLE
  5
1A2
330
1F
100
AcDbEntity
  8
0
  6
Continuous
 62
     7
370
    15
100
AcDbCircle
 10
693.0333783784
 20
173.5869459459
 30
0.0
 40
50.0
  0
CIRCLE
  5
1A3
330
1F
100
AcDbEntity
  8
0
  6
Continuous
 62
     7
370
    15
100
AcDbCircle
 10
693.0333783784
 20
193.5869459459
 30
0.0
 40
2.499999999999886
  0
CIRCLE
  5
1A4
330
1F
100
AcDbEntity
  8
0
  6
Continuous
 62
     7
370
    15
100
AcDbCircle
 10
673.0333783784
 20
173.5869459459
 30
0.0
 40
2.500000000000227
  0
CIRCLE
  5
1A5
330
1F
100
AcDbEntity
  8
0
  6
Continuous
 62
     7
370
    15
100
AcDbCircle
 10
693.0333783784
 20
153.5869459459
 30
0.0
 40
2.500000000000114
  0
CIRCLE
  5
1A6
330
1F
100
AcDbEntity
  8
0
  6
Continuous
 62
     7
370
    15
100
AcDbCircle
 10
713.0333783784
 20
173.5869459459
 30
0.0
 40
2.5
  0
CIRCLE
  5
1A7
330
1F
100
AcDbEntity
  8
0
  6
Continuous
 62
     7
370
    15
100
AcDbCircle
 10
693.0333783784
 20
401.9525405405
 30
0.0
 40
5.0
  0
CIRCLE
  5
1A8
330
1F
100
AcDbEntity
  8
0
  6
Continuous
 62
     7
370
    15
100
AcDbCircle
 10
693.0333783784
 20
401.9525405405
 30
0.0
 40
50.0
  0
CIRCLE
  5
1A9
330
1F
100
AcDbEntity
  8
0
  6
Continuous
 62
     7
370
    15
100
AcDbCircle
 10
693.0333783784
 20
421.9525405405
 30
0.0
 40
2.499999999999886
  0
CIRCLE
  5
1AA
330
1F
100
AcDbEntity
  8
0
  6
Continuous
 62
     7
370
    15
100
AcDbCircle
 10
673.0333783784
 20
401.9525405405
 30
0.0
 40
2.500000000000227
  0
CIRCLE
  5
1AB
330
1F
100
AcDbEntity
  8
0
  6
Continuous
 62
     7
370
    15
100
AcDbCircle
 10
693.0333783784
 20
381.9525405405
 30
0.0
 40
2.500000000000114
  0
CIRCLE
  5
1AC
330
1F
100
AcDbEntity
  8
0
  6
Continuous
 62
     7
370
    15
100
AcDbCircle
 10
713.0333783784
 20
401.9525405405
 30
0.0
 40
2.5
  0
CIRCLE
  5
1AD
330
1F
100
AcDbEntity
  8
0
  6
Continuous
 62
     7
370
    15
100
AcDbCircle
 10
694.1925945946
 20
63.4614054054
 30
0.0
 40
5.0
  0
CIRCLE
  5
1AE
330
1F
100
AcDbEntity
  8
0
  6
Continuous
 62
     7
370
    15
100
AcDbCircle
 10
694.1925945946
 20
63.4614054054
 30
0.0
 40
50.00000000000011
  0
CIRCLE
  5
1AF
330
1F
100
AcDbEntity
  8
0
  6
Continuous
 62
     7
370
    15
100
AcDbCircle
 10
694.1925945946
 20
83.4614054054
 30
0.0
 40
2.499999999999886
  0
CIRCLE
  5
1B0
330
1F
100
AcDbEntity
  8
0
  6
Continuous
 62
     7
370
    15
100
AcDbCircle
 10
674.1925945946
 20
63.4614054054
 30
0.0
 40
2.500000000000114
  0
CIRCLE
  5
1B1
330
1F
100
AcDbEntity
  8
0
  6
Continuous
 62
     7
370
    15
100
AcDbCircle
 10
694.1925945946
 20
43.4614054054
 30
0.0
 40
2.500000000000114
  0
CIRCLE
  5
1B2
330
1F
100
AcDbEntity
  8
0
  6
Continuous
 62
     7
370
    15
100
AcDbCircle
 10
714.1925945946
 20
63.4614054054
 30
0.0
 40
2.500000000000114
  0
CIRCLE
  5
1B3
330
1F
100
AcDbEntity
  8
0
  6
Continuous
 62
     7
370
    15
100
AcDbCircle
 10
1018.1175
 20
288.9598108108
 30
0.0
 40
4.999999999999886
  0
CIRCLE
  5
1B4
330
1F
100
AcDbEntity
  8
0
  6
Continuous
 62
     7
370
    15
100
AcDbCircle
 10
1018.1175
 20
288.9598108108
 30
0.0
 40
50.00000000000011
  0
CIRCLE
  5
1B5
330
1F
100
AcDbEntity
  8
0
  6
Continuous
 62
     7
370
    15
100
AcDbCircle
 10
1018.1175
 20
308.9598108108
 30
0.0
 40
2.499999999999886
  0
CIRCLE
  5
1B6
330
1F
100
AcDbEntity
  8
0
  6
Continuous
 62
     7
370
    15
100
AcDbCircle
 10
998.1175
 20
288.9598108108
 30
0.0
 40
2.500000000000114
  0
CIRCLE
  5
1B7
330
1F
100
AcDbEntity
  8
0
  6
Continuous
 62
     7
370
    15
100
AcDbCircle
 10
1018.1175
 20
268.9598108108
 30
0.0
 40
2.500000000000114
  0
CIRCLE
  5
1B8
330
1F
100
AcDbEntity
  8
0
  6
Continuous
 62
     7
370
    15
100
AcDbCircle
 10
1038.1175
 20
288.9598108108
 30
0.0
 40
2.500000000000227
  0
CIRCLE
  5
1B9
330
1F
100
AcDbEntity
  8
0
  6
Continuous
 62
     7
370
    15
100
AcDbCircle
 10
1015.8750945946
 20
181.7014594595
 30
0.0
 40
4.999999999999886
  0
CIRCLE
  5
1BA
330
1F
100
AcDbEntity
  8
0
  6
Continuous
 62
     7
370
    15
100
AcDbCircle
 10
1015.8750945946
 20
181.7014594595
 30
0.0
 40
50.0
  0
CIRCLE
  5
1BB
330
1F
100
AcDbEntity
  8
0
  6
Continuous
 62
     7
370
    15
100
AcDbCircle
 10
1015.8750945946
 20
201.7014594595
 30
0.0
 40
2.499999999999886
  0
CIRCLE
  5
1BC
330
1F
100
AcDbEntity
  8
0
  6
Continuous
 62
     7
370
    15
100
AcDbCircle
 10
995.8750945946
 20
181.7014594595
 30
0.0
 40
2.500000000000114
  0
CIRCLE
  5
1BD
330
1F
100
AcDbEntity
  8
0
  6
Continuous
 62
     7
370
    15
100
AcDbCircle
 10
1015.8750945946
 20
161.7014594595
 30
0.0
 40
2.500000000000114
  0
CIRCLE
  5
1BE
330
1F
100
AcDbEntity
  8
0
  6
Continuous
 62
     7
370
    15
100
AcDbCircle
 10
1035.8750945946
 20
181.7014594595
 30
0.0
 40
2.500000000000227
  0
CIRCLE
  5
1BF
330
1F
100
AcDbEntity
  8
0
  6
Continuous
 62
     7
370
    15
100
AcDbCircle
 10
1017.0343108108
 20
403.1117567568
 30
0.0
 40
4.999999999999886
  0
CIRCLE
  5
1C0
330
1F
100
AcDbEntity
  8
0
  6
Continuous
 62
     7
370
    15
100
AcDbCircle
 10
1017.0343108108
 20
403.1117567568
 30
0.0
 40
50.0
  0
CIRCLE
  5
1C1
330
1F
100
AcDbEntity
  8
0
  6
Continuous
 62
     7
370
    15
100
AcDbCircle
 10
1017.0343108108
 20
423.1117567568
 30
0.0
 40
2.5
  0
CIRCLE
  5
1C2
330
1F
100
AcDbEntity
  8
0
  6
Continuous
 62
     7
370
    15
100
AcDbCircle
 10
997.0343108108
 20
403.1117567568
 30
0.0
 40
2.500000000000227
  0
CIRCLE
  5
1C3
330
1F
100
AcDbEntity
  8
0
  6
Continuous
 62
     7
370
    15
100
AcDbCircle
 10
1017.0343108108
 20
383.1117567568
 30
0.0
 40
2.500000000000227
  0
CIRCLE
  5
1C4
330
1F
100
AcDbEntity
  8
0
  6
Continuous
 62
     7
370
    15
100
AcDbCircle
 10
1037.0343108108
 20
403.1117567568
 30
0.0
 40
2.500000000000227
  0
CIRCLE
  5
1C5
330
1F
100
AcDbEntity
  8
0
  6
Continuous
 62
     7
370
    15
100
AcDbCircle
 10
1019.3527432432
 20
76.2127837838
 30
0.0
 40
4.999999999999886
  0
CIRCLE
  5
1C6
330
1F
100
AcDbEntity
  8
0
  6
Continuous
 62
     7
370
    15
100
AcDbCircle
 10
1019.3527432432
 20
76.2127837838
 30
0.0
 40
50.00000000000011
  0
CIRCLE
  5
1C7
330
1F
100
AcDbEntity
  8
0
  6
Continuous
 62
     7
370
    15
100
AcDbCircle
 10
1019.3527432432
 20
96.2127837838
 30
0.0
 40
2.5
  0
CIRCLE
  5
1C8
330
1F
100
AcDbEntity
  8
0
  6
Continuous
 62
     7
370
    15
100
AcDbCircle
 10
999.3527432432
 20
76.2127837838
 30
0.0
 40
2.500000000000114
  0
CIRCLE
  5
1C9
330
1F
100
AcDbEntity
  8
0
  6
Continuous
 62
     7
370
    15
100
AcDbCircle
 10
1019.3527432432
 20
56.2127837838
 30
0.0
 40
2.500000000000227
  0
CIRCLE
  5
1CA
330
1F
100
AcDbEntity
  8
0
  6
Continuous
 62
     7
370
    15
100
AcDbCircle
 10
1039.3527432432
 20
76.2127837838
 30
0.0
 40
2.5
  0
CIRCLE
  5
1CB
330
1F
100
AcDbEntity
  8
0
  6
Continuous
 62
     7
370
    15
100
AcDbCircle
 10
799.0256351351
 20
287.8005945946
 30
0.0
 40
5.0
  0
CIRCLE
  5
1CC
330
1F
100
AcDbEntity
  8
0
  6
Continuous
 62
     7
370
    15
100
AcDbCircle
 10
799.0256351351
 20
287.8005945946
 30
0.0
 40
50.00000000000011
  0
CIRCLE
  5
1CD
330
1F
100
AcDbEntity
  8
0
  6
Continuous
 62
     7
370
    15
100
AcDbCircle
 10
799.0256351351
 20
307.8005945946
 30
0.0
 40
2.499999999999886
  0
CIRCLE
  5
1CE
330
1F
100
AcDbEntity
  8
0
  6
Continuous
 62
     7
370
    15
100
AcDbCircle
 10
779.0256351351
 20
287.8005945946
 30
0.0
 40
2.500000000000114
  0
CIRCLE
  5
1CF
330
1F
100
AcDbEntity
  8
0
  6
Continuous
 62
     7
370
    15
100
AcDbCircle
 10
799.0256351351
 20
267.8005945946
 30
0.0
 40
2.500000000000114
  0
CIRCLE
  5
1D0
330
1F
100
AcDbEntity
  8
0
  6
Continuous
 62
     7
370
    15
100
AcDbCircle
 10
819.0256351351
 20
287.8005945946
 30
0.0
 40
2.500000000000114
  0
CIRCLE
  5
1D1
330
1F
100
AcDbEntity
  8
0
  6
Continuous
 62
     7
370
    15
100
AcDbCircle
 10
800.2608783784
 20
175.9053783784
 30
0.0
 40
5.0
  0
CIRCLE
  5
1D2
330
1F
100
AcDbEntity
  8
0
  6
Continuous
 62
     7
370
    15
100
AcDbCircle
 10
800.2608783784
 20
175.9053783784
 30
0.0
 40
50.0
  0
CIRCLE
  5
1D3
330
1F
100
AcDbEntity
  8
0
  6
Continuous
 62
     7
370
    15
100
AcDbCircle
 10
800.2608783784
 20
195.9053783784
 30
0.0
 40
2.5
  0
CIRCLE
  5
1D4
330
1F
100
AcDbEntity
  8
0
  6
Continuous
 62
     7
370
    15
100
AcDbCircle
 10
780.2608783784
 20
175.9053783784
 30
0.0
 40
2.500000000000227
  0
CIRCLE
  5
1D5
330
1F
100
AcDbEntity
  8
0
  6
Continuous
 62
     7
370
    15
100
AcDbCircle
 10
800.2608783784
 20
155.9053783784
 30
0.0
 40
2.500000000000227
  0
CIRCLE
  5
1D6
330
1F
100
AcDbEntity
  8
0
  6
Continuous
 62
     7
370
    15
100
AcDbCircle
 10
820.2608783784
 20
175.9053783784
 30
0.0
 40
2.500000000000114
  0
CIRCLE
  5
1D7
330
1F
100
AcDbEntity
  8
0
  6
Continuous
 62
     7
370
    15
100
AcDbCircle
 10
795.7579432895
 20
396.1564594595
 30
0.0
 40
5.0
  0
CIRCLE
  5
1D8
330
1F
100
AcDbEntity
  8
0
  6
Continuous
 62
     7
370
    15
100
AcDbCircle
 10
795.7579432895
 20
396.1564594595
 30
0.0
 40
50.00000000000011
  0
CIRCLE
  5
1D9
330
1F
100
AcDbEntity
  8
0
  6
Continuous
 62
     7
370
    15
100
AcDbCircle
 10
795.7579432895
 20
416.1564594595
 30
0.0
 40
2.499999999999886
  0
CIRCLE
  5
1DA
330
1F
100
AcDbEntity
  8
0
  6
Continuous
 62
     7
370
    15
100
AcDbCircle
 10
775.7579432895
 20
396.1564594595
 30
0.0
 40
2.500000000000114
  0
CIRCLE
  5
1DB
330
1F
100
AcDbEntity
  8
0
  6
Continuous
 62
     7
370
    15
100
AcDbCircle
 10
795.7579432895
 20
376.1564594595
 30
0.0
 40
2.500000000000114
  0
CIRCLE
  5
1DC
330
1F
100
AcDbEntity
  8
0
  6
Continuous
 62
     7
370
    15
100
AcDbCircle
 10
815.7579432895
 20
396.1564594595
 30
0.0
 40
2.500000000000114
  0
CIRCLE
  5
1DD
330
1F
100
AcDbEntity
  8
0
  6
Continuous
 62
     7
370
    15
100
AcDbCircle
 10
808.3753918919
 20
69.2574864865
 30
0.0
 40
5.0
  0
CIRCLE
  5
1DE
330
1F
100
AcDbEntity
  8
0
  6
Continuous
 62
     7
370
    15
100
AcDbCircle
 10
808.3753918919
 20
69.2574864865
 30
0.0
 40
50.0
  0
CIRCLE
  5
1DF
330
1F
100
AcDbEntity
  8
0
  6
Continuous
 62
     7
370
    15
100
AcDbCircle
 10
808.3753918919
 20
89.2574864865
 30
0.0
 40
2.5
  0
CIRCLE
  5
1E0
330
1F
100
AcDbEntity
  8
0
  6
Continuous
 62
     7
370
    15
100
AcDbCircle
 10
788.3753918919
 20
69.2574864865
 30
0.0
 40
2.500000000000227
  0
CIRCLE
  5
1E1
330
1F
100
AcDbEntity
  8
0
  6
Continuous
 62
     7
370
    15
100
AcDbCircle
 10
808.3753918919
 20
49.2574864865
 30
0.0
 40
2.500000000000227
  0
CIRCLE
  5
1E2
330
1F
100
AcDbEntity
  8
0
  6
Continuous
 62
     7
370
    15
100
AcDbCircle
 10
828.3753918919
 20
69.2574864865
 30
0.0
 40
2.500000000000114
  0
CIRCLE
  5
1E3
330
1F
100
AcDbEntity
  8
0
  6
Continuous
 62
     7
370
    15
100
AcDbCircle
 10
907.9919594595
 20
294.7558918919
 30
0.0
 40
5.0
  0
CIRCLE
  5
1E4
330
1F
100
AcDbEntity
  8
0
  6
Continuous
 62
     7
370
    15
100
AcDbCircle
 10
907.9919594595
 20
294.7558918919
 30
0.0
 40
50.00000000000011
  0
CIRCLE
  5
1E5
330
1F
100
AcDbEntity
  8
0
  6
Continuous
 62
     7
370
    15
100
AcDbCircle
 10
907.9919594595
 20
314.7558918919
 30
0.0
 40
2.499999999999886
  0
CIRCLE
  5
1E6
330
1F
100
AcDbEntity
  8
0
  6
Continuous
 62
     7
370
    15
100
AcDbCircle
 10
887.9919594595
 20
294.7558918919
 30
0.0
 40
2.500000000000114
  0
CIRCLE
  5
1E7
330
1F
100
AcDbEntity
  8
0
  6
Continuous
 62
     7
370
    15
100
AcDbCircle
 10
907.9919594595
 20
274.7558918919
 30
0.0
 40
2.500000000000114
  0
CIRCLE
  5
1E8
330
1F
100
AcDbEntity
  8
0
  6
Continuous
 62
     7
370
    15
100
AcDbCircle
 10
927.9919594595
 20
294.7558918919
 30
0.0
 40
2.5
  0
CIRCLE
  5
1E9
330
1F
100
AcDbEntity
  8
0
  6
Continuous
 62
     7
370
    15
100
AcDbCircle
 10
911.5456351351
 20
181.7014594595
 30
0.0
 40
5.0
  0
CIRCLE
  5
1EA
330
1F
100
AcDbEntity
  8
0
  6
Continuous
 62
     7
370
    15
100
AcDbCircle
 10
911.5456351351
 20
181.7014594595
 30
0.0
 40
50.00000000000011
  0
CIRCLE
  5
1EB
330
1F
100
AcDbEntity
  8
0
  6
Continuous
 62
     7
370
    15
100
AcDbCircle
 10
911.5456351351
 20
201.7014594595
 30
0.0
 40
2.499999999999886
  0
CIRCLE
  5
1EC
330
1F
100
AcDbEntity
  8
0
  6
Continuous
 62
     7
370
    15
100
AcDbCircle
 10
891.5456351351
 20
181.7014594595
 30
0.0
 40
2.500000000000114
  0
CIRCLE
  5
1ED
330
1F
100
AcDbEntity
  8
0
  6
Continuous
 62
     7
370
    15
100
AcDbCircle
 10
911.5456351351
 20
161.7014594595
 30
0.0
 40
2.500000000000114
  0
CIRCLE
  5
1EE
330
1F
100
AcDbEntity
  8
0
  6
Continuous
 62
     7
370
    15
100
AcDbCircle
 10
931.5456351351
 20
181.7014594595
 30
0.0
 40
2.5
  0
CIRCLE
  5
1EF
330
1F
100
AcDbEntity
  8
0
  6
Continuous
 62
     7
370
    15
100
AcDbCircle
 10
899.953472973
 20
407.7486216216
 30
0.0
 40
5.0
  0
CIRCLE
  5
1F0
330
1F
100
AcDbEntity
  8
0
  6
Continuous
 62
     7
370
    15
100
AcDbCircle
 10
899.953472973
 20
407.7486216216
 30
0.0
 40
50.0
  0
CIRCLE
  5
1F1
330
1F
100
AcDbEntity
  8
0
  6
Continuous
 62
     7
370
    15
100
AcDbCircle
 10
899.953472973
 20
427.7486216216
 30
0.0
 40
2.5
  0
CIRCLE
  5
1F2
330
1F
100
AcDbEntity
  8
0
  6
Continuous
 62
     7
370
    15
100
AcDbCircle
 10
879.953472973
 20
407.7486216216
 30
0.0
 40
2.500000000000227
  0
CIRCLE
  5
1F3
330
1F
100
AcDbEntity
  8
0
  6
Continuous
 62
     7
370
    15
100
AcDbCircle
 10
899.953472973
 20
387.7486216216
 30
0.0
 40
2.500000000000227
  0
CIRCLE
  5
1F4
330
1F
100
AcDbEntity
  8
0
  6
Continuous
 62
     7
370
    15
100
AcDbCircle
 10
919.953472973
 20
407.7486216216
 30
0.0
 40
2.5
  0
CIRCLE
  5
1F5
330
1F
100
AcDbEntity
  8
0
  6
Continuous
 62
     7
370
    15
100
AcDbCircle
 10
913.8640675676
 20
62.3021891892
 30
0.0
 40
5.0
  0
CIRCLE
  5
1F6
330
1F
100
AcDbEntity
  8
0
  6
Continuous
 62
     7
370
    15
100
AcDbCircle
 10
913.8640675676
 20
62.3021891892
 30
0.0
 40
50.00000000000011
  0
CIRCLE
  5
1F7
330
1F
100
AcDbEntity
  8
0
  6
Continuous
 62
     7
370
    15
100
AcDbCircle
 10
913.8640675676
 20
82.3021891892
 30
0.0
 40
2.499999999999886
  0
CIRCLE
  5
1F8
330
1F
100
AcDbEntity
  8
0
  6
Continuous
 62
     7
370
    15
100
AcDbCircle
 10
893.8640675676
 20
62.3021891892
 30
0.0
 40
2.500000000000227
  0
CIRCLE
  5
1F9
330
1F
100
AcDbEntity
  8
0
  6
Continuous
 62
     7
370
    15
100
AcDbCircle
 10
913.8640675676
 20
42.3021891892
 30
0.0
 40
2.500000000000114
  0
CIRCLE
  5
1FA
330
1F
100
AcDbEntity
  8
0
  6
Continuous
 62
     7
370
    15
100
AcDbCircle
 10
933.8640675676
 20
62.3021891892
 30
0.0
 40
2.5
  0
LINE
  5
1FB
330
1F
100
AcDbEntity
  8
0
  6
Continuous
 62
     7
370
    15
100
AcDbLine
 10
603.5900770533
 20
391.8274682187
 30
0.0
 11
600.5851980948
 21
391.7942651363
 31
0.0
  0
ARC
  5
1FC
330
1F
100
AcDbEntity
  8
0
  6
Continuous
 62
     7
370
    15
100
AcDbCircle
 10
602.1022223191
 20
390.4909472537
 30
0.0
 40
2.000000000000046
100
AcDbArc
 50
139.3332039797
 51
41.9329495631
  0
ARC
  5
1FD
330
1F
100
AcDbEntity
  8
0
  6
Continuous
 62
     7
370
    15
100
AcDbCircle
 10
602.1022223191
 20
390.4909472537
 30
0.0
 40
24.00000000000004
100
AcDbArc
 50
64.1323721697
 51
66.7767187394
  0
ARC
  5
1FE
330
1F
100
AcDbEntity
  8
0
  6
Continuous
 62
     7
370
    15
100
AcDbCircle
 10
603.8296255273
 20
411.0918897932
 30
0.0
 40
8.80000000000004
100
AcDbArc
 50
335.1787539662
 51
6.4880439842
  0
ARC
  5
1FF
330
1F
100
AcDbEntity
  8
0
  6
Continuous
 62
     7
370
    15
100
AcDbCircle
 10
602.1022223191
 20
390.4909472537
 30
0.0
 40
19.49900000000005
100
AcDbArc
 50
54.4266893355
 51
60.1187652099
  0
ARC
  5
200
330
1F
100
AcDbEntity
  8
0
  6
Continuous
 62
     7
370
    15
100
AcDbCircle
 10
620.1239095613
 20
400.6201892937
 30
0.0
 40
8.799999999999933
100
AcDbArc
 50
108.0574105613
 51
139.3667005793
  0
ARC
  5
201
330
1F
100
AcDbEntity
  8
0
  6
Continuous
 62
     7
370
    15
100
AcDbCircle
 10
602.1022223191
 20
390.4909472537
 30
0.0
 40
24.00000000000009
100
AcDbArc
 50
47.7687358061
 51
50.4130823758
  0
ARC
  5
202
330
1F
100
AcDbEntity
  8
0
  6
Continuous
 62
     7
370
    15
100
AcDbCircle
 10
609.563609775
 20
409.7707411476
 30
0.0
 40
8.799999999999981
100
AcDbArc
 50
318.8151176026
 51
350.1244076206
  0
ARC
  5
203
330
1F
100
AcDbEntity
  8
0
  6
Continuous
 62
     7
370
    15
100
AcDbCircle
 10
602.1022223191
 20
390.4909472537
 30
0.0
 40
19.49900000000008
100
AcDbArc
 50
38.0630529719
 51
43.7551288463
  0
ARC
  5
204
330
1F
100
AcDbEntity
  8
0
  6
Continuous
 62
     7
370
    15
100
AcDbCircle
 10
622.2476418594
 20
395.1325877938
 30
0.0
 40
8.800000000000063
100
AcDbArc
 50
91.6937741976
 51
123.0030642156
  0
ARC
  5
205
330
1F
100
AcDbEntity
  8
0
  6
Continuous
 62
     7
370
    15
100
AcDbCircle
 10
602.1022223191
 20
390.4909472537
 30
0.0
 40
24.00000000000007
100
AcDbArc
 50
31.4050994424
 51
34.0494460121
  0
ARC
  5
206
330
1F
100
AcDbEntity
  8
0
  6
Continuous
 62
     7
370
    15
100
AcDbCircle
 10
614.6931167856
 20
406.8876582621
 30
0.0
 40
8.800000000000027
100
AcDbArc
 50
302.4514812389
 51
333.7607712569
  0
ARC
  5
207
330
1F
100
AcDbEntity
  8
0
  6
Continuous
 62
     7
370
    15
100
AcDbCircle
 10
602.1022223191
 20
390.4909472537
 30
0.0
 40
19.49900000000009
100
AcDbArc
 50
21.6994166083
 51
27.3914924826
  0
ARC
  5
208
330
1F
100
AcDbEntity
  8
0
  6
Continuous
 62
     7
370
    15
100
AcDbCircle
 10
622.7393120758
 20
389.2689481822
 30
0.0
 40
8.800000000000024
100
AcDbArc
 50
75.330137834
 51
106.639427852
  0
ARC
  5
209
330
1F
100
AcDbEntity
  8
0
  6
Continuous
 62
     7
370
    15
100
AcDbCircle
 10
602.1022223191
 20
390.4909472537
 30
0.0
 40
24.00000000000003
100
AcDbArc
 50
15.0414630788
 51
17.6858096485
  0
ARC
  5
20A
330
1F
100
AcDbEntity
  8
0
  6
Continuous
 62
     7
370
    15
100
AcDbCircle
 10
618.8025844074
 20
402.6762113657
 30
0.0
 40
8.80000000000002
100
AcDbArc
 50
286.0878448753
 51
317.3971348933
  0
ARC
  5
20B
330
1F
100
AcDbEntity
  8
0
  6
Continuous
 62
     7
370
    15
100
AcDbCircle
 10
602.1022223191
 20
390.4909472537
 30
0.0
 40
19.49900000000007
100
AcDbArc
 50
5.3357802446
 51
11.027856119
  0
ARC
  5
20C
330
1F
100
AcDbEntity
  8
0
  6
Continuous
 62
     7
370
    15
100
AcDbCircle
 10
621.5590880137
 20
383.5043076679
 30
0.0
 40
8.800000000000056
100
AcDbArc
 50
58.9665014703
 51
90.2757914884
  0
ARC
  5
20D
330
1F
100
AcDbEntity
  8
0
  6
Continuous
 62
     7
370
    15
100
AcDbCircle
 10
602.1022223191
 20
390.4909472537
 30
0.0
 40
24.0000000000001
100
AcDbArc
 50
358.6778267151
 51
1.3221732849
  0
ARC
  5
20E
330
1F
100
AcDbEntity
  8
0
  6
Continuous
 62
     7
370
    15
100
AcDbCircle
 10
621.5590880137
 20
397.4775868395
 30
0.0
 40
8.800000000000033
100
AcDbArc
 50
269.7242085117
 51
301.0334985297
  0
ARC
  5
20F
330
1F
100
AcDbEntity
  8
0
  6
Continuous
 62
     7
370
    15
100
AcDbCircle
 10
602.1022223191
 20
390.4909472537
 30
0.0
 40
19.49900000000011
100
AcDbArc
 50
348.972143881
 51
354.6642197554
  0
ARC
  5
210
330
1F
100
AcDbEntity
  8
0
  6
Continuous
 62
     7
370
    15
100
AcDbCircle
 10
618.8025844074
 20
378.3056831417
 30
0.0
 40
8.8
100
AcDbArc
 50
42.6028651067
 51
73.9121551247
  0
ARC
  5
211
330
1F
100
AcDbEntity
  8
0
  6
Continuous
 62
     7
370
    15
100
AcDbCircle
 10
602.1022223191
 20
390.4909472537
 30
0.0
 40
24.00000000000004
100
AcDbArc
 50
342.3141903515
 51
344.9585369212
  0
ARC
  5
212
330
1F
100
AcDbEntity
  8
0
  6
Continuous
 62
     7
370
    15
100
AcDbCircle
 10
622.7393120758
 20
391.7129463252
 30
0.0
 40
8.800000000000045
100
AcDbArc
 50
253.360572148
 51
284.669862166
  0
ARC
  5
213
330
1F
100
AcDbEntity
  8
0
  6
Continuous
 62
     7
370
    15
100
AcDbCircle
 10
602.1022223191
 20
390.4909472537
 30
0.0
 40
19.49900000000001
100
AcDbArc
 50
332.6085075174
 51
338.3005833917
  0
ARC
  5
214
330
1F
100
AcDbEntity
  8
0
  6
Continuous
 62
     7
370
    15
100
AcDbCircle
 10
614.6931167856
 20
374.0942362453
 30
0.0
 40
8.800000000000002
100
AcDbArc
 50
26.2392287431
 51
57.5485187611
  0
ARC
  5
215
330
1F
100
AcDbEntity
  8
0
  6
Continuous
 62
     7
370
    15
100
AcDbCircle
 10
602.1022223191
 20
390.4909472537
 30
0.0
 40
24.00000000000003
100
AcDbArc
 50
325.9505539879
 51
328.5949005576
  0
ARC
  5
216
330
1F
100
AcDbEntity
  8
0
  6
Continuous
 62
     7
370
    15
100
AcDbCircle
 10
622.2476418594
 20
385.8493067136
 30
0.0
 40
8.799999999999999
100
AcDbArc
 50
236.9969357844
 51
268.3062258024
  0
ARC
  5
217
330
1F
100
AcDbEntity
  8
0
  6
Continuous
 62
     7
370
    15
100
AcDbCircle
 10
602.1022223191
 20
390.4909472537
 30
0.0
 40
19.49900000000008
100
AcDbArc
 50
316.2448711537
 51
321.9369470281
  0
ARC
  5
218
330
1F
100
AcDbEntity
  8
0
  6
Continuous
 62
     7
370
    15
100
AcDbCircle
 10
609.563609775
 20
371.2111533598
 30
0.0
 40
8.800000000000011
100
AcDbArc
 50
9.8755923794
 51
41.1848823974
  0
ARC
  5
219
330
1F
100
AcDbEntity
  8
0
  6
Continuous
 62
     7
370
    15
100
AcDbCircle
 10
602.1022223191
 20
390.4909472537
 30
0.0
 40
24.00000000000005
100
AcDbArc
 50
309.5869176242
 51
312.2312641939
  0
ARC
  5
21A
330
1F
100
AcDbEntity
  8
0
  6
Continuous
 62
     7
370
    15
100
AcDbCircle
 10
620.1239095613
 20
380.3617052137
 30
0.0
 40
8.799999999999953
100
AcDbArc
 50
220.6332994207
 51
251.9425894387
  0
ARC
  5
21B
330
1F
100
AcDbEntity
  8
0
  6
Continuous
 62
     7
370
    15
100
AcDbCircle
 10
602.1022223191
 20
390.4909472537
 30
0.0
 40
19.49900000000003
100
AcDbArc
 50
299.8812347901
 51
305.5733106645
  0
ARC
  5
21C
330
1F
100
AcDbEntity
  8
0
  6
Continuous
 62
     7
370
    15
100
AcDbCircle
 10
603.8296255273
 20
369.8900047142
 30
0.0
 40
8.800000000000036
100
AcDbArc
 50
353.5119560158
 51
24.8212460338
  0
ARC
  5
21D
330
1F
100
AcDbEntity
  8
0
  6
Continuous
 62
     7
370
    15
100
AcDbCircle
 10
602.1022223191
 20
390.4909472537
 30
0.0
 40
24.00000000000005
100
AcDbArc
 50
293.2232812606
 51
295.8676278303
  0
ARC
  5
21E
330
1F
100
AcDbEntity
  8
0
  6
Continuous
 62
     7
370
    15
100
AcDbCircle
 10
616.5401673418
 20
375.694714663
 30
0.0
 40
8.800000000000043
100
AcDbArc
 50
204.2696630571
 51
235.5789530751
  0
ARC
  5
21F
330
1F
100
AcDbEntity
  8
0
  6
Continuous
 62
     7
370
    15
100
AcDbCircle
 10
602.1022223191
 20
390.4909472537
 30
0.0
 40
19.49900000000001
100
AcDbArc
 50
283.5175984265
 51
289.2096743008
  0
ARC
  5
220
330
1F
100
AcDbEntity
  8
0
  6
Continuous
 62
     7
370
    15
100
AcDbCircle
 10
597.955697345
 20
370.2378219147
 30
0.0
 40
8.79999999999999
100
AcDbArc
 50
337.1483196522
 51
8.4576096702
  0
ARC
  5
221
330
1F
100
AcDbEntity
  8
0
  6
Continuous
 62
     7
370
    15
100
AcDbCircle
 10
602.1022223191
 20
390.4909472537
 30
0.0
 40
24.00000000000001
100
AcDbArc
 50
276.859644897
 51
279.5039914667
  0
ARC
  5
222
330
1F
100
AcDbEntity
  8
0
  6
Continuous
 62
     7
370
    15
100
AcDbCircle
 10
611.7867486824
 20
372.2264268801
 30
0.0
 40
8.799999999999997
100
AcDbArc
 50
187.9060266935
 51
219.2153167115
  0
ARC
  5
223
330
1F
100
AcDbEntity
  8
0
  6
Continuous
 62
     7
370
    15
100
AcDbCircle
 10
602.1022223191
 20
390.4909472537
 30
0.0
 40
19.49899999999999
100
AcDbArc
 50
267.1539620628
 51
272.8460379372
  0
ARC
  5
224
330
1F
100
AcDbEntity
  8
0
  6
Continuous
 62
     7
370
    15
100
AcDbCircle
 10
592.4176959558
 20
372.2264268801
 30
0.0
 40
8.799999999999983
100
AcDbArc
 50
320.7846832885
 51
352.0939733065
  0
ARC
  5
225
330
1F
100
AcDbEntity
  8
0
  6
Continuous
 62
     7
370
    15
100
AcDbCircle
 10
602.1022223191
 20
390.4909472537
 30
0.0
 40
24.00000000000001
100
AcDbArc
 50
260.4960085333
 51
263.140355103
  0
ARC
  5
226
330
1F
100
AcDbEntity
  8
0
  6
Continuous
 62
     7
370
    15
100
AcDbCircle
 10
606.2487472932
 20
370.2378219147
 30
0.0
 40
8.800000000000036
100
AcDbArc
 50
171.5423903298
 51
202.8516803478
  0
ARC
  5
227
330
1F
100
AcDbEntity
  8
0
  6
Continuous
 62
     7
370
    15
100
AcDbCircle
 10
602.1022223191
 20
390.4909472537
 30
0.0
 40
19.49900000000001
100
AcDbArc
 50
250.7903256992
 51
256.4824015735
  0
ARC
  5
228
330
1F
100
AcDbEntity
  8
0
  6
Continuous
 62
     7
370
    15
100
AcDbCircle
 10
587.6642772964
 20
375.694714663
 30
0.0
 40
8.799999999999997
100
AcDbArc
 50
304.4210469249
 51
335.7303369429
  0
ARC
  5
229
330
1F
100
AcDbEntity
  8
0
  6
Continuous
 62
     7
370
    15
100
AcDbCircle
 10
602.1022223191
 20
390.4909472537
 30
0.0
 40
23.99999999999998
100
AcDbArc
 50
244.1323721697
 51
246.7767187394
  0
ARC
  5
22A
330
1F
100
AcDbEntity
  8
0
  6
Continuous
 62
     7
370
    15
100
AcDbCircle
 10
600.3748191108
 20
369.8900047142
 30
0.0
 40
8.800000000000027
100
AcDbArc
 50
155.1787539662
 51
186.4880439842
  0
ARC
  5
22B
330
1F
100
AcDbEntity
  8
0
  6
Continuous
 62
     7
370
    15
100
AcDbCircle
 10
602.1022223191
 20
390.4909472537
 30
0.0
 40
19.49900000000001
100
AcDbArc
 50
234.4266893356
 51
240.1187652099
  0
ARC
  5
22C
330
1F
100
AcDbEntity
  8
0
  6
Continuous
 62
     7
370
    15
100
AcDbCircle
 10
584.0805350769
 20
380.3617052137
 30
0.0
 40
8.80000000000004
100
AcDbArc
 50
288.0574105613
 51
319.3667005793
  0
ARC
  5
22D
330
1F
100
AcDbEntity
  8
0
  6
Continuous
 62
     7
370
    15
100
AcDbCircle
 10
602.1022223191
 20
390.4909472537
 30
0.0
 40
24.0
100
AcDbArc
 50
227.7687358061
 51
230.4130823758
  0
ARC
  5
22E
330
1F
100
AcDbEntity
  8
0
  6
Continuous
 62
     7
370
    15
100
AcDbCircle
 10
594.6408348632
 20
371.2111533598
 30
0.0
 40
8.799999999999992
100
AcDbArc
 50
138.8151176026
 51
170.1244076206
  0
ARC
  5
22F
330
1F
100
AcDbEntity
  8
0
  6
Continuous
 62
     7
370
    15
100
AcDbCircle
 10
602.1022223191
 20
390.4909472537
 30
0.0
 40
19.49899999999995
100
AcDbArc
 50
218.0630529719
 51
223.7551288463
  0
ARC
  5
230
330
1F
100
AcDbEntity
  8
0
  6
Continuous
 62
     7
370
    15
100
AcDbCircle
 10
581.9568027788
 20
385.8493067136
 30
0.0
 40
8.800000000000066
100
AcDbArc
 50
271.6937741976
 51
303.0030642156
  0
ARC
  5
231
330
1F
100
AcDbEntity
  8
0
  6
Continuous
 62
     7
370
    15
100
AcDbCircle
 10
602.1022223191
 20
390.4909472537
 30
0.0
 40
23.99999999999999
100
AcDbArc
 50
211.4050994424
 51
214.0494460121
  0
ARC
  5
232
330
1F
100
AcDbEntity
  8
0
  6
Continuous
 62
     7
370
    15
100
AcDbCircle
 10
589.5113278526
 20
374.0942362453
 30
0.0
 40
8.800000000000045
100
AcDbArc
 50
122.4514812389
 51
153.7607712569
  0
ARC
  5
233
330
1F
100
AcDbEntity
  8
0
  6
Continuous
 62
     7
370
    15
100
AcDbCircle
 10
602.1022223191
 20
390.4909472537
 30
0.0
 40
19.49899999999993
100
AcDbArc
 50
201.6994166083
 51
207.3914924826
  0
ARC
  5
234
330
1F
100
AcDbEntity
  8
0
  6
Continuous
 62
     7
370
    15
100
AcDbCircle
 10
581.4651325623
 20
391.7129463252
 30
0.0
 40
8.799999999999992
100
AcDbArc
 50
255.330137834
 51
286.639427852
  0
ARC
  5
235
330
1F
100
AcDbEntity
  8
0
  6
Continuous
 62
     7
370
    15
100
AcDbCircle
 10
602.1022223191
 20
390.4909472537
 30
0.0
 40
24.00000000000001
100
AcDbArc
 50
195.0414630788
 51
197.6858096485
  0
ARC
  5
236
330
1F
100
AcDbEntity
  8
0
  6
Continuous
 62
     7
370
    15
100
AcDbCircle
 10
585.4018602308
 20
378.3056831417
 30
0.0
 40
8.799999999999935
100
AcDbArc
 50
106.0878448753
 51
137.3971348933
  0
ARC
  5
237
330
1F
100
AcDbEntity
  8
0
  6
Continuous
 62
     7
370
    15
100
AcDbCircle
 10
602.1022223191
 20
390.4909472537
 30
0.0
 40
19.49899999999995
100
AcDbArc
 50
185.3357802446
 51
191.027856119
  0
ARC
  5
238
330
1F
100
AcDbEntity
  8
0
  6
Continuous
 62
     7
370
    15
100
AcDbCircle
 10
582.6453566245
 20
397.4775868395
 30
0.0
 40
8.800000000000006
100
AcDbArc
 50
238.9665014703
 51
270.2757914884
  0
ARC
  5
239
330
1F
100
AcDbEntity
  8
0
  6
Continuous
 62
     7
370
    15
100
AcDbCircle
 10
602.1022223191
 20
390.4909472537
 30
0.0
 40
23.99999999999998
100
AcDbArc
 50
178.6778267151
 51
181.3221732849
  0
ARC
  5
23A
330
1F
100
AcDbEntity
  8
0
  6
Continuous
 62
     7
370
    15
100
AcDbCircle
 10
582.6453566245
 20
383.5043076679
 30
0.0
 40
8.800000000000065
100
AcDbArc
 50
89.7242085117
 51
121.0334985297
  0
ARC
  5
23B
330
1F
100
AcDbEntity
  8
0
  6
Continuous
 62
     7
370
    15
100
AcDbCircle
 10
602.1022223191
 20
390.4909472537
 30
0.0
 40
19.49900000000005
100
AcDbArc
 50
168.972143881
 51
174.6642197554
  0
ARC
  5
23C
330
1F
100
AcDbEntity
  8
0
  6
Continuous
 62
     7
370
    15
100
AcDbCircle
 10
585.4018602308
 20
402.6762113657
 30
0.0
 40
8.799999999999962
100
AcDbArc
 50
222.6028651067
 51
253.9121551247
  0
ARC
  5
23D
330
1F
100
AcDbEntity
  8
0
  6
Continuous
 62
     7
370
    15
100
AcDbCircle
 10
602.1022223191
 20
390.4909472537
 30
0.0
 40
23.99999999999998
100
AcDbArc
 50
162.3141903515
 51
164.9585369212
  0
ARC
  5
23E
330
1F
100
AcDbEntity
  8
0
  6
Continuous
 62
     7
370
    15
100
AcDbCircle
 10
581.4651325623
 20
389.2689481822
 30
0.0
 40
8.800000000000002
100
AcDbArc
 50
73.360572148
 51
104.669862166
  0
ARC
  5
23F
330
1F
100
AcDbEntity
  8
0
  6
Continuous
 62
     7
370
    15
100
AcDbCircle
 10
602.1022223191
 20
390.4909472537
 30
0.0
 40
19.49900000000002
100
AcDbArc
 50
152.6085075174
 51
158.3005833917
  0
ARC
  5
240
330
1F
100
AcDbEntity
  8
0
  6
Continuous
 62
     7
370
    15
100
AcDbCircle
 10
589.5113278526
 20
406.8876582621
 30
0.0
 40
8.800000000000095
100
AcDbArc
 50
206.2392287431
 51
237.5485187611
  0
ARC
  5
241
330
1F
100
AcDbEntity
  8
0
  6
Continuous
 62
     7
370
    15
100
AcDbCircle
 10
602.1022223191
 20
390.4909472537
 30
0.0
 40
24.0
100
AcDbArc
 50
145.9505539879
 51
148.5949005576
  0
ARC
  5
242
330
1F
100
AcDbEntity
  8
0
  6
Continuous
 62
     7
370
    15
100
AcDbCircle
 10
581.9568027788
 20
395.1325877938
 30
0.0
 40
8.800000000000066
100
AcDbArc
 50
56.9969357844
 51
88.3062258024
  0
ARC
  5
243
330
1F
100
AcDbEntity
  8
0
  6
Continuous
 62
     7
370
    15
100
AcDbCircle
 10
602.1022223191
 20
390.4909472537
 30
0.0
 40
19.49899999999997
100
AcDbArc
 50
136.2448711537
 51
141.9369470281
  0
ARC
  5
244
330
1F
100
AcDbEntity
  8
0
  6
Continuous
 62
     7
370
    15
100
AcDbCircle
 10
594.6408348632
 20
409.7707411476
 30
0.0
 40
8.8
100
AcDbArc
 50
189.8755923794
 51
221.1848823974
  0
ARC
  5
245
330
1F
100
AcDbEntity
  8
0
  6
Continuous
 62
     7
370
    15
100
AcDbCircle
 10
602.1022223191
 20
390.4909472537
 30
0.0
 40
23.99999999999999
100
AcDbArc
 50
129.5869176242
 51
132.2312641939
  0
ARC
  5
246
330
1F
100
AcDbEntity
  8
0
  6
Continuous
 62
     7
370
    15
100
AcDbCircle
 10
584.0805350769
 20
400.6201892937
 30
0.0
 40
8.800000000000077
100
AcDbArc
 50
40.6332994207
 51
71.9425894387
  0
ARC
  5
247
330
1F
100
AcDbEntity
  8
0
  6
Continuous
 62
     7
370
    15
100
AcDbCircle
 10
602.1022223191
 20
390.4909472537
 30
0.0
 40
19.49900000000001
100
AcDbArc
 50
119.8812347901
 51
125.5733106645
  0
ARC
  5
248
330
1F
100
AcDbEntity
  8
0
  6
Continuous
 62
     7
370
    15
100
AcDbCircle
 10
600.3748191108
 20
411.0918897932
 30
0.0
 40
8.80000000000002
100
AcDbArc
 50
173.5119560158
 51
204.8212460338
  0
ARC
  5
249
330
1F
100
AcDbEntity
  8
0
  6
Continuous
 62
     7
370
    15
100
AcDbCircle
 10
602.1022223191
 20
390.4909472537
 30
0.0
 40
23.99999999999998
100
AcDbArc
 50
113.2232812606
 51
115.8676278303
  0
ARC
  5
24A
330
1F
100
AcDbEntity
  8
0
  6
Continuous
 62
     7
370
    15
100
AcDbCircle
 10
587.6642772964
 20
405.2871798444
 30
0.0
 40
8.800000000000024
100
AcDbArc
 50
24.2696630571
 51
55.5789530751
  0
ARC
  5
24B
330
1F
100
AcDbEntity
  8
0
  6
Continuous
 62
     7
370
    15
100
AcDbCircle
 10
602.1022223191
 20
390.4909472537
 30
0.0
 40
19.49900000000001
100
AcDbArc
 50
103.5175984265
 51
109.2096743008
  0
ARC
  5
24C
330
1F
100
AcDbEntity
  8
0
  6
Continuous
 62
     7
370
    15
100
AcDbCircle
 10
606.2487472932
 20
410.7440725927
 30
0.0
 40
8.800000000000013
100
AcDbArc
 50
157.1483196522
 51
188.4576096702
  0
ARC
  5
24D
330
1F
100
AcDbEntity
  8
0
  6
Continuous
 62
     7
370
    15
100
AcDbCircle
 10
602.1022223191
 20
390.4909472537
 30
0.0
 40
24.00000000000003
100
AcDbArc
 50
96.859644897
 51
99.5039914667
  0
ARC
  5
24E
330
1F
100
AcDbEntity
  8
0
  6
Continuous
 62
     7
370
    15
100
AcDbCircle
 10
592.4176959558
 20
408.7554676273
 30
0.0
 40
8.799999999999997
100
AcDbArc
 50
7.9060266935
 51
39.2153167115
  0
ARC
  5
24F
330
1F
100
AcDbEntity
  8
0
  6
Continuous
 62
     7
370
    15
100
AcDbCircle
 10
602.1022223191
 20
390.4909472537
 30
0.0
 40
19.49900000000004
100
AcDbArc
 50
87.1539620628
 51
92.8460379372
  0
ARC
  5
250
330
1F
100
AcDbEntity
  8
0
  6
Continuous
 62
     7
370
    15
100
AcDbCircle
 10
611.7867486824
 20
408.7554676273
 30
0.0
 40
8.799999999999976
100
AcDbArc
 50
140.7846832885
 51
172.0939733065
  0
ARC
  5
251
330
1F
100
AcDbEntity
  8
0
  6
Continuous
 62
     7
370
    15
100
AcDbCircle
 10
602.1022223191
 20
390.4909472537
 30
0.0
 40
24.00000000000005
100
AcDbArc
 50
80.4960085333
 51
83.140355103
  0
ARC
  5
252
330
1F
100
AcDbEntity
  8
0
  6
Continuous
 62
     7
370
    15
100
AcDbCircle
 10
597.955697345
 20
410.7440725927
 30
0.0
 40
8.80000000000007
100
AcDbArc
 50
351.5423903298
 51
22.8516803478
  0
ARC
  5
253
330
1F
100
AcDbEntity
  8
0
  6
Continuous
 62
     7
370
    15
100
AcDbCircle
 10
602.1022223191
 20
390.4909472537
 30
0.0
 40
19.49900000000004
100
AcDbArc
 50
70.7903256992
 51
76.4824015735
  0
ARC
  5
254
330
1F
100
AcDbEntity
  8
0
  6
Continuous
 62
     7
370
    15
100
AcDbCircle
 10
616.5401673418
 20
405.2871798444
 30
0.0
 40
8.800000000000077
100
AcDbArc
 50
124.4210469249
 51
155.7303369429
  0
ARC
  5
255
330
1F
100
AcDbEntity
  8
0
  6
Continuous
 62
     7
370
    15
100
AcDbCircle
 10
536.1702419355
 20
386.8824193548
 30
0.0
 40
22.00000000000002
100
AcDbArc
 50
61.6080289041
 51
64.3919710959
  0
ARC
  5
256
330
1F
100
AcDbEntity
  8
0
  6
Continuous
 62
     7
370
    15
100
AcDbCircle
 10
538.6642823539
 20
405.5100507426
 30
0.0
 40
8.000000000000073
100
AcDbArc
 50
330.7129312225
 51
5.2074985155
  0
ARC
  5
257
330
1F
100
AcDbEntity
  8
0
  6
Continuous
 62
     7
370
    15
100
AcDbCircle
 10
536.1702419355
 20
386.8824193548
 30
0.0
 40
17.49900000000007
100
AcDbArc
 50
50.7693341381
 51
57.2306658619
  0
ARC
  5
258
330
1F
100
AcDbEntity
  8
0
  6
Continuous
 62
     7
370
    15
100
AcDbCircle
 10
553.115471276
 20
395.0106474105
 30
0.0
 40
7.999999999999971
100
AcDbArc
 50
102.7925014845
 51
137.2870687775
  0
ARC
  5
259
330
1F
100
AcDbEntity
  8
0
  6
Continuous
 62
     7
370
    15
100
AcDbCircle
 10
536.1702419355
 20
386.8824193548
 30
0.0
 40
22.00000000000001
100
AcDbArc
 50
43.6080289041
 51
46.3919710959
  0
ARC
  5
25A
330
1F
100
AcDbEntity
  8
0
  6
Continuous
 62
     7
370
    15
100
AcDbCircle
 10
544.2984699911
 20
403.8276486953
 30
0.0
 40
7.999999999999988
100
AcDbArc
 50
312.7129312225
 51
347.2074985155
  0
ARC
  5
25B
330
1F
100
AcDbEntity
  8
0
  6
Continuous
 62
     7
370
    15
100
AcDbCircle
 10
536.1702419355
 20
386.8824193548
 30
0.0
 40
17.49900000000002
100
AcDbArc
 50
32.7693341381
 51
39.2306658619
  0
ARC
  5
25C
330
1F
100
AcDbEntity
  8
0
  6
Continuous
 62
     7
370
    15
100
AcDbCircle
 10
554.7978733232
 20
389.3764597733
 30
0.0
 40
8.000000000000018
100
AcDbArc
 50
84.7925014845
 51
119.2870687775
  0
ARC
  5
25D
330
1F
100
AcDbEntity
  8
0
  6
Continuous
 62
     7
370
    15
100
AcDbCircle
 10
536.1702419355
 20
386.8824193548
 30
0.0
 40
21.99999999999999
100
AcDbArc
 50
25.6080289041
 51
28.3919710959
  0
ARC
  5
25E
330
1F
100
AcDbEntity
  8
0
  6
Continuous
 62
     7
370
    15
100
AcDbCircle
 10
549.1370100335
 20
400.4865295359
 30
0.0
 40
8.0
100
AcDbArc
 50
294.7129312225
 51
329.2074985155
  0
ARC
  5
25F
330
1F
100
AcDbEntity
  8
0
  6
Continuous
 62
     7
370
    15
100
AcDbCircle
 10
536.1702419355
 20
386.8824193548
 30
0.0
 40
17.49900000000002
100
AcDbArc
 50
14.7693341381
 51
21.2306658619
  0
ARC
  5
260
330
1F
100
AcDbEntity
  8
0
  6
Continuous
 62
     7
370
    15
100
AcDbCircle
 10
554.6568730239
 20
383.498138083
 30
0.0
 40
8.000000000000068
100
AcDbArc
 50
66.7925014845
 51
101.2870687775
  0
ARC
  5
261
330
1F
100
AcDbEntity
  8
0
  6
Continuous
 62
     7
370
    15
100
AcDbCircle
 10
536.1702419355
 20
386.8824193548
 30
0.0
 40
22.00000000000004
100
AcDbArc
 50
7.6080289041
 51
10.3919710959
  0
ARC
  5
262
330
1F
100
AcDbEntity
  8
0
  6
Continuous
 62
     7
370
    15
100
AcDbCircle
 10
552.7062724697
 20
395.8137452865
 30
0.0
 40
8.000000000000007
100
AcDbArc
 50
276.7129312225
 51
311.2074985155
  0
ARC
  5
263
330
1F
100
AcDbEntity
  8
0
  6
Continuous
 62
     7
370
    15
100
AcDbCircle
 10
536.1702419355
 20
386.8824193548
 30
0.0
 40
17.49900000000003
100
AcDbArc
 50
356.7693341381
 51
3.2306658619
  0
ARC
  5
264
330
1F
100
AcDbEntity
  8
0
  6
Continuous
 62
     7
370
    15
100
AcDbCircle
 10
552.7062724697
 20
377.9510934232
 30
0.0
 40
7.999999999999985
100
AcDbArc
 50
48.7925014845
 51
83.2870687775
  0
ARC
  5
265
330
1F
100
AcDbEntity
  8
0
  6
Continuous
 62
     7
370
    15
100
AcDbCircle
 10
536.1702419355
 20
386.8824193548
 30
0.0
 40
22.00000000000004
100
AcDbArc
 50
349.6080289041
 51
352.3919710959
  0
ARC
  5
266
330
1F
100
AcDbEntity
  8
0
  6
Continuous
 62
     7
370
    15
100
AcDbCircle
 10
554.6568730239
 20
390.2667006267
 30
0.0
 40
7.999999999999968
100
AcDbArc
 50
258.7129312225
 51
293.2074985155
  0
ARC
  5
267
330
1F
100
AcDbEntity
  8
0
  6
Continuous
 62
     7
370
    15
100
AcDbCircle
 10
536.1702419355
 20
386.8824193548
 30
0.0
 40
17.49900000000003
100
AcDbArc
 50
338.7693341381
 51
345.2306658619
  0
ARC
  5
268
330
1F
100
AcDbEntity
  8
0
  6
Continuous
 62
     7
370
    15
100
AcDbCircle
 10
549.1370100335
 20
373.2783091738
 30
0.0
 40
7.999999999999958
100
AcDbArc
 50
30.7925014845
 51
65.2870687775
  0
ARC
  5
269
330
1F
100
AcDbEntity
  8
0
  6
Continuous
 62
     7
370
    15
100
AcDbCircle
 10
536.1702419355
 20
386.8824193548
 30
0.0
 40
22.00000000000002
100
AcDbArc
 50
331.6080289041
 51
334.3919710959
  0
ARC
  5
26A
330
1F
100
AcDbEntity
  8
0
  6
Continuous
 62
     7
370
    15
100
AcDbCircle
 10
554.7978733232
 20
384.3883789364
 30
0.0
 40
8.000000000000028
100
AcDbArc
 50
240.7129312225
 51
275.2074985155
  0
ARC
  5
26B
330
1F
100
AcDbEntity
  8
0
  6
Continuous
 62
     7
370
    15
100
AcDbCircle
 10
536.1702419355
 20
386.8824193548
 30
0.0
 40
17.49900000000006
100
AcDbArc
 50
320.7693341381
 51
327.2306658619
  0
ARC
  5
26C
330
1F
100
AcDbEntity
  8
0
  6
Continuous
 62
     7
370
    15
100
AcDbCircle
 10
544.2984699911
 20
369.9371900143
 30
0.0
 40
8.000000000000032
100
AcDbArc
 50
12.7925014845
 51
47.2870687775
  0
ARC
  5
26D
330
1F
100
AcDbEntity
  8
0
  6
Continuous
 62
     7
370
    15
100
AcDbCircle
 10
536.1702419355
 20
386.8824193548
 30
0.0
 40
22.00000000000002
100
AcDbArc
 50
313.6080289041
 51
316.3919710959
  0
ARC
  5
26E
330
1F
100
AcDbEntity
  8
0
  6
Continuous
 62
     7
370
    15
100
AcDbCircle
 10
553.115471276
 20
378.7541912992
 30
0.0
 40
8.000000000000057
100
AcDbArc
 50
222.7129312225
 51
257.2074985155
  0
ARC
  5
26F
330
1F
100
AcDbEntity
  8
0
  6
Continuous
 62
     7
370
    15
100
AcDbCircle
 10
536.1702419355
 20
386.8824193548
 30
0.0
 40
17.49900000000005
100
AcDbArc
 50
302.7693341381
 51
309.2306658619
  0
ARC
  5
270
330
1F
100
AcDbEntity
  8
0
  6
Continuous
 62
     7
370
    15
100
AcDbCircle
 10
538.6642823539
 20
368.2547879671
 30
0.0
 40
8.000000000000057
100
AcDbArc
 50
354.7925014845
 51
29.2870687775
  0
ARC
  5
271
330
1F
100
AcDbEntity
  8
0
  6
Continuous
 62
     7
370
    15
100
AcDbCircle
 10
536.1702419355
 20
386.8824193548
 30
0.0
 40
22.00000000000001
100
AcDbArc
 50
295.6080289041
 51
298.3919710959
  0
ARC
  5
272
330
1F
100
AcDbEntity
  8
0
  6
Continuous
 62
     7
370
    15
100
AcDbCircle
 10
549.7743521165
 20
373.9156512568
 30
0.0
 40
8.000000000000037
100
AcDbArc
 50
204.7129312225
 51
239.2074985155
  0
ARC
  5
273
330
1F
100
AcDbEntity
  8
0
  6
Continuous
 62
     7
370
    15
100
AcDbCircle
 10
536.1702419355
 20
386.8824193548
 30
0.0
 40
17.49899999999999
100
AcDbArc
 50
284.7693341381
 51
291.2306658619
  0
ARC
  5
274
330
1F
100
AcDbEntity
  8
0
  6
Continuous
 62
     7
370
    15
100
AcDbCircle
 10
532.7859606636
 20
368.3957882664
 30
0.0
 40
8.000000000000057
100
AcDbArc
 50
336.7925014845
 51
11.2870687775
  0
ARC
  5
275
330
1F
100
AcDbEntity
  8
0
  6
Continuous
 62
     7
370
    15
100
AcDbCircle
 10
536.1702419355
 20
386.8824193548
 30
0.0
 40
22.00000000000004
100
AcDbArc
 50
277.6080289041
 51
280.3919710959
  0
ARC
  5
276
330
1F
100
AcDbEntity
  8
0
  6
Continuous
 62
     7
370
    15
100
AcDbCircle
 10
545.1015678671
 20
370.3463888206
 30
0.0
 40
7.999999999999974
100
AcDbArc
 50
186.7129312225
 51
221.2074985155
  0
ARC
  5
277
330
1F
100
AcDbEntity
  8
0
  6
Continuous
 62
     7
370
    15
100
AcDbCircle
 10
536.1702419355
 20
386.8824193548
 30
0.0
 40
17.49900000000003
100
AcDbArc
 50
266.7693341381
 51
273.2306658619
  0
ARC
  5
278
330
1F
100
AcDbEntity
  8
0
  6
Continuous
 62
     7
370
    15
100
AcDbCircle
 10
527.2389160038
 20
370.3463888206
 30
0.0
 40
8.000000000000057
100
AcDbArc
 50
318.7925014845
 51
353.2870687775
  0
ARC
  5
279
330
1F
100
AcDbEntity
  8
0
  6
Continuous
 62
     7
370
    15
100
AcDbCircle
 10
536.1702419355
 20
386.8824193548
 30
0.0
 40
21.99999999999999
100
AcDbArc
 50
259.6080289041
 51
262.3919710959
  0
ARC
  5
27A
330
1F
100
AcDbEntity
  8
0
  6
Continuous
 62
     7
370
    15
100
AcDbCircle
 10
539.5545232074
 20
368.3957882664
 30
0.0
 40
8.000000000000034
100
AcDbArc
 50
168.7129312225
 51
203.2074985155
  0
ARC
  5
27B
330
1F
100
AcDbEntity
  8
0
  6
Continuous
 62
     7
370
    15
100
AcDbCircle
 10
536.1702419355
 20
386.8824193548
 30
0.0
 40
17.49899999999997
100
AcDbArc
 50
248.7693341381
 51
255.2306658619
  0
ARC
  5
27C
330
1F
100
AcDbEntity
  8
0
  6
Continuous
 62
     7
370
    15
100
AcDbCircle
 10
522.5661317544
 20
373.9156512568
 30
0.0
 40
7.999999999999998
100
AcDbArc
 50
300.7925014845
 51
335.2870687775
  0
ARC
  5
27D
330
1F
100
AcDbEntity
  8
0
  6
Continuous
 62
     7
370
    15
100
AcDbCircle
 10
536.1702419355
 20
386.8824193548
 30
0.0
 40
22.00000000000001
100
AcDbArc
 50
241.6080289041
 51
244.3919710959
  0
ARC
  5
27E
330
1F
100
AcDbEntity
  8
0
  6
Continuous
 62
     7
370
    15
100
AcDbCircle
 10
533.676201517
 20
368.2547879671
 30
0.0
 40
8.000000000000034
100
AcDbArc
 50
150.7129312225
 51
185.2074985155
  0
ARC
  5
27F
330
1F
100
AcDbEntity
  8
0
  6
Continuous
 62
     7
370
    15
100
AcDbCircle
 10
536.1702419355
 20
386.8824193548
 30
0.0
 40
17.49900000000001
100
AcDbArc
 50
230.7693341381
 51
237.2306658619
  0
ARC
  5
280
330
1F
100
AcDbEntity
  8
0
  6
Continuous
 62
     7
370
    15
100
AcDbCircle
 10
519.225012595
 20
378.7541912992
 30
0.0
 40
8.000000000000071
100
AcDbArc
 50
282.7925014845
 51
317.2870687775
  0
ARC
  5
281
330
1F
100
AcDbEntity
  8
0
  6
Continuous
 62
     7
370
    15
100
AcDbCircle
 10
536.1702419355
 20
386.8824193548
 30
0.0
 40
22.00000000000002
100
AcDbArc
 50
223.6080289041
 51
226.3919710959
  0
ARC
  5
282
330
1F
100
AcDbEntity
  8
0
  6
Continuous
 62
     7
370
    15
100
AcDbCircle
 10
528.0420138798
 20
369.9371900143
 30
0.0
 40
8.000000000000066
100
AcDbArc
 50
132.7129312225
 51
167.2074985155
  0
ARC
  5
283
330
1F
100
AcDbEntity
  8
0
  6
Continuous
 62
     7
370
    15
100
AcDbCircle
 10
536.1702419355
 20
386.8824193548
 30
0.0
 40
17.49899999999999
100
AcDbArc
 50
212.7693341381
 51
219.2306658619
  0
ARC
  5
284
330
1F
100
AcDbEntity
  8
0
  6
Continuous
 62
     7
370
    15
100
AcDbCircle
 10
517.5426105477
 20
384.3883789364
 30
0.0
 40
8.00000000000003
100
AcDbArc
 50
264.7925014845
 51
299.2870687775
  0
ARC
  5
285
330
1F
100
AcDbEntity
  8
0
  6
Continuous
 62
     7
370
    15
100
AcDbCircle
 10
536.1702419355
 20
386.8824193548
 30
0.0
 40
22.00000000000004
100
AcDbArc
 50
205.6080289041
 51
208.3919710959
  0
ARC
  5
286
330
1F
100
AcDbEntity
  8
0
  6
Continuous
 62
     7
370
    15
100
AcDbCircle
 10
523.2034738374
 20
373.2783091738
 30
0.0
 40
8.000000000000087
100
AcDbArc
 50
114.7129312225
 51
149.2074985155
  0
ARC
  5
287
330
1F
100
AcDbEntity
  8
0
  6
Continuous
 62
     7
370
    15
100
AcDbCircle
 10
536.1702419355
 20
386.8824193548
 30
0.0
 40
17.499
100
AcDbArc
 50
194.7693341381
 51
201.2306658619
  0
ARC
  5
288
330
1F
100
AcDbEntity
  8
0
  6
Continuous
 62
     7
370
    15
100
AcDbCircle
 10
517.6836108471
 20
390.2667006267
 30
0.0
 40
8.000000000000016
100
AcDbArc
 50
246.7925014845
 51
281.2870687775
  0
ARC
  5
289
330
1F
100
AcDbEntity
  8
0
  6
Continuous
 62
     7
370
    15
100
AcDbCircle
 10
536.1702419355
 20
386.8824193548
 30
0.0
 40
22.00000000000001
100
AcDbArc
 50
187.6080289041
 51
190.3919710959
  0
ARC
  5
28A
330
1F
100
AcDbEntity
  8
0
  6
Continuous
 62
     7
370
    15
100
AcDbCircle
 10
519.6342114013
 20
377.9510934232
 30
0.0
 40
7.999999999999942
100
AcDbArc
 50
96.7129312225
 51
131.2074985155
  0
ARC
  5
28B
330
1F
100
AcDbEntity
  8
0
  6
Continuous
 62
     7
370
    15
100
AcDbCircle
 10
536.1702419355
 20
386.8824193548
 30
0.0
 40
17.49899999999991
100
AcDbArc
 50
176.7693341381
 51
183.2306658619
  0
ARC
  5
28C
330
1F
100
AcDbEntity
  8
0
  6
Continuous
 62
     7
370
    15
100
AcDbCircle
 10
519.6342114013
 20
395.8137452865
 30
0.0
 40
8.000000000000103
100
AcDbArc
 50
228.7925014845
 51
263.2870687775
  0
ARC
  5
28D
330
1F
100
AcDbEntity
  8
0
  6
Continuous
 62
     7
370
    15
100
AcDbCircle
 10
536.1702419355
 20
386.8824193548
 30
0.0
 40
22.00000000000005
100
AcDbArc
 50
169.6080289041
 51
172.3919710959
  0
ARC
  5
28E
330
1F
100
AcDbEntity
  8
0
  6
Continuous
 62
     7
370
    15
100
AcDbCircle
 10
517.6836108471
 20
383.498138083
 30
0.0
 40
8.00000000000007
100
AcDbArc
 50
78.7129312225
 51
113.2074985155
  0
ARC
  5
28F
330
1F
100
AcDbEntity
  8
0
  6
Continuous
 62
     7
370
    15
100
AcDbCircle
 10
536.1702419355
 20
386.8824193548
 30
0.0
 40
17.49900000000004
100
AcDbArc
 50
158.7693341381
 51
165.2306658619
  0
ARC
  5
290
330
1F
100
AcDbEntity
  8
0
  6
Continuous
 62
     7
370
    15
100
AcDbCircle
 10
523.2034738374
 20
400.4865295359
 30
0.0
 40
8.000000000000018
100
AcDbArc
 50
210.7925014845
 51
245.2870687775
  0
ARC
  5
291
330
1F
100
AcDbEntity
  8
0
  6
Continuous
 62
     7
370
    15
100
AcDbCircle
 10
536.1702419355
 20
386.8824193548
 30
0.0
 40
21.99999999999996
100
AcDbArc
 50
151.6080289041
 51
154.3919710959
  0
ARC
  5
292
330
1F
100
AcDbEntity
  8
0
  6
Continuous
 62
     7
370
    15
100
AcDbCircle
 10
517.5426105477
 20
389.3764597733
 30
0.0
 40
7.999999999999972
100
AcDbArc
 50
60.7129312225
 51
95.2074985155
  0
ARC
  5
293
330
1F
100
AcDbEntity
  8
0
  6
Continuous
 62
     7
370
    15
100
AcDbCircle
 10
536.1702419355
 20
386.8824193548
 30
0.0
 40
17.49900000000002
100
AcDbArc
 50
140.7693341381
 51
147.2306658619
  0
ARC
  5
294
330
1F
100
AcDbEntity
  8
0
  6
Continuous
 62
     7
370
    15
100
AcDbCircle
 10
528.0420138798
 20
403.8276486953
 30
0.0
 40
7.999999999999948
100
AcDbArc
 50
192.7925014845
 51
227.2870687775
  0
ARC
  5
295
330
1F
100
AcDbEntity
  8
0
  6
Continuous
 62
     7
370
    15
100
AcDbCircle
 10
536.1702419355
 20
386.8824193548
 30
0.0
 40
21.99999999999998
100
AcDbArc
 50
133.6080289041
 51
136.3919710959
  0
ARC
  5
296
330
1F
100
AcDbEntity
  8
0
  6
Continuous
 62
     7
370
    15
100
AcDbCircle
 10
519.225012595
 20
395.0106474105
 30
0.0
 40
8.000000000000071
100
AcDbArc
 50
42.7129312225
 51
77.2074985155
  0
ARC
  5
297
330
1F
100
AcDbEntity
  8
0
  6
Continuous
 62
     7
370
    15
100
AcDbCircle
 10
536.1702419355
 20
386.8824193548
 30
0.0
 40
17.49899999999998
100
AcDbArc
 50
122.7693341381
 51
129.2306658619
  0
ARC
  5
298
330
1F
100
AcDbEntity
  8
0
  6
Continuous
 62
     7
370
    15
100
AcDbCircle
 10
533.676201517
 20
405.5100507426
 30
0.0
 40
8.00000000000003
100
AcDbArc
 50
174.7925014845
 51
209.2870687775
  0
ARC
  5
299
330
1F
100
AcDbEntity
  8
0
  6
Continuous
 62
     7
370
    15
100
AcDbCircle
 10
536.1702419355
 20
386.8824193548
 30
0.0
 40
21.99999999999997
100
AcDbArc
 50
115.6080289041
 51
118.3919710959
  0
ARC
  5
29A
330
1F
100
AcDbEntity
  8
0
  6
Continuous
 62
     7
370
    15
100
AcDbCircle
 10
522.5661317544
 20
399.8491874529
 30
0.0
 40
8.000000000000028
100
AcDbArc
 50
24.7129312225
 51
59.2074985155
  0
ARC
  5
29B
330
1F
100
AcDbEntity
  8
0
  6
Continuous
 62
     7
370
    15
100
AcDbCircle
 10
536.1702419355
 20
386.8824193548
 30
0.0
 40
17.49900000000002
100
AcDbArc
 50
104.7693341381
 51
111.2306658619
  0
ARC
  5
29C
330
1F
100
AcDbEntity
  8
0
  6
Continuous
 62
     7
370
    15
100
AcDbCircle
 10
539.5545232074
 20
405.3690504433
 30
0.0
 40
7.999999999999923
100
AcDbArc
 50
156.7925014845
 51
191.2870687775
  0
ARC
  5
29D
330
1F
100
AcDbEntity
  8
0
  6
Continuous
 62
     7
370
    15
100
AcDbCircle
 10
536.1702419355
 20
386.8824193548
 30
0.0
 40
21.99999999999999
100
AcDbArc
 50
97.6080289041
 51
100.3919710959
  0
ARC
  5
29E
330
1F
100
AcDbEntity
  8
0
  6
Continuous
 62
     7
370
    15
100
AcDbCircle
 10
527.2389160038
 20
403.4184498891
 30
0.0
 40
7.999999999999948
100
AcDbArc
 50
6.7129312225
 51
41.2074985155
  0
ARC
  5
29F
330
1F
100
AcDbEntity
  8
0
  6
Continuous
 62
     7
370
    15
100
AcDbCircle
 10
536.1702419355
 20
386.8824193548
 30
0.0
 40
17.49899999999997
100
AcDbArc
 50
86.7693341381
 51
93.2306658619
  0
ARC
  5
2A0
330
1F
100
AcDbEntity
  8
0
  6
Continuous
 62
     7
370
    15
100
AcDbCircle
 10
545.1015678671
 20
403.4184498891
 30
0.0
 40
7.999999999999948
100
AcDbArc
 50
138.7925014845
 51
173.2870687775
  0
ARC
  5
2A1
330
1F
100
AcDbEntity
  8
0
  6
Continuous
 62
     7
370
    15
100
AcDbCircle
 10
536.1702419355
 20
386.8824193548
 30
0.0
 40
22.00000000000002
100
AcDbArc
 50
79.6080289041
 51
82.3919710959
  0
ARC
  5
2A2
330
1F
100
AcDbEntity
  8
0
  6
Continuous
 62
     7
370
    15
100
AcDbCircle
 10
532.7859606636
 20
405.3690504433
 30
0.0
 40
8.000000000000165
100
AcDbArc
 50
348.7129312225
 51
23.2074985155
  0
ARC
  5
2A3
330
1F
100
AcDbEntity
  8
0
  6
Continuous
 62
     7
370
    15
100
AcDbCircle
 10
536.1702419355
 20
386.8824193548
 30
0.0
 40
17.49900000000003
100
AcDbArc
 50
68.7693341381
 51
75.2306658619
  0
ARC
  5
2A4
330
1F
100
AcDbEntity
  8
0
  6
Continuous
 62
     7
370
    15
100
AcDbCircle
 10
549.7743521165
 20
399.8491874529
 30
0.0
 40
7.999999999999892
100
AcDbArc
 50
120.7925014845
 51
155.2870687775
  0
CIRCLE
  5
2A5
330
1F
100
AcDbEntity
  8
0
  6
Continuous
 62
     7
370
    15
100
AcDbCircle
 10
536.1702419355
 20
386.8824193548
 30
0.0
 40
5.0
  0
CIRCLE
  5
2A6
330
1F
100
AcDbEntity
  8
0
  6
Continuous
 62
     7
370
    15
100
AcDbCircle
 10
481.3475742813
 20
466.1740166346
 30
0.0
 40
1.5
  0
CIRCLE
  5
2A7
330
1F
100
AcDbEntity
  8
0
  6
Continuous
 62
     7
370
    15
100
AcDbCircle
 10
464.3475742813
 20
466.1740166346
 30
0.0
 40
1.5
  0
CIRCLE
  5
2A8
330
1F
100
AcDbEntity
  8
0
  6
Continuous
 62
     7
370
    15
100
AcDbCircle
 10
472.8475742813
 20
466.1740166346
 30
0.0
 40
5.0
  0
LINE
  5
2A9
330
1F
100
AcDbEntity
  8
0
  6
Continuous
 62
     7
370
    15
100
AcDbLine
 10
455.3475742813
 20
441.1740166346
 30
0.0
 11
455.3475742813
 21
450.6740166346
 31
0.0
  0
LINE
  5
2AA
330
1F
100
AcDbEntity
  8
0
  6
Continuous
 62
     7
370
    15
100
AcDbLine
 10
455.3475742813
 20
450.6740166346
 30
0.0
 11
457.8475742813
 21
450.6740166346
 31
0.0
  0
LINE
  5
2AB
330
1F
100
AcDbEntity
  8
0
  6
Continuous
 62
     7
370
    15
100
AcDbLine
 10
457.8475742813
 20
450.6740166346
 30
0.0
 11
457.8475742813
 21
455.6740166346
 31
0.0
  0
LINE
  5
2AC
330
1F
100
AcDbEntity
  8
0
  6
Continuous
 62
     7
370
    15
100
AcDbLine
 10
457.8475742813
 20
455.6740166346
 30
0.0
 11
455.3475742813
 21
455.6740166346
 31
0.0
  0
LINE
  5
2AD
330
1F
100
AcDbEntity
  8
0
  6
Continuous
 62
     7
370
    15
100
AcDbLine
 10
455.3475742813
 20
455.6740166346
 30
0.0
 11
455.3475742813
 21
461.1740166346
 31
0.0
  0
LINE
  5
2AE
330
1F
100
AcDbEntity
  8
0
  6
Continuous
 62
     7
370
    15
100
AcDbLine
 10
455.3475742813
 20
461.1740166346
 30
0.0
 11
450.3475742813
 21
461.1740166346
 31
0.0
  0
LINE
  5
2AF
330
1F
100
AcDbEntity
  8
0
  6
Continuous
 62
     7
370
    15
100
AcDbLine
 10
450.3475742813
 20
461.1740166346
 30
0.0
 11
450.3475742813
 21
455.6740166346
 31
0.0
  0
LINE
  5
2B0
330
1F
100
AcDbEntity
  8
0
  6
Continuous
 62
     7
370
    15
100
AcDbLine
 10
450.3475742813
 20
455.6740166346
 30
0.0
 11
447.8475742813
 21
455.6740166346
 31
0.0
  0
LINE
  5
2B1
330
1F
100
AcDbEntity
  8
0
  6
Continuous
 62
     7
370
    15
100
AcDbLine
 10
447.8475742813
 20
455.6740166346
 30
0.0
 11
447.8475742813
 21
450.6740166346
 31
0.0
  0
LINE
  5
2B2
330
1F
100
AcDbEntity
  8
0
  6
Continuous
 62
     7
370
    15
100
AcDbLine
 10
447.8475742813
 20
450.6740166346
 30
0.0
 11
450.3475742813
 21
450.6740166346
 31
0.0
  0
LINE
  5
2B3
330
1F
100
AcDbEntity
  8
0
  6
Continuous
 62
     7
370
    15
100
AcDbLine
 10
450.3475742813
 20
450.6740166346
 30
0.0
 11
450.3475742813
 21
441.1740166346
 31
0.0
  0
LINE
  5
2B4
330
1F
100
AcDbEntity
  8
0
  6
Continuous
 62
     7
370
    15
100
AcDbLine
 10
442.8475742813
 20
491.1740166346
 30
0.0
 11
442.8475742813
 21
441.1740166346
 31
0.0
  0
LINE
  5
2B5
330
1F
100
AcDbEntity
  8
0
  6
Continuous
 62
     7
370
    15
100
AcDbLine
 10
502.8475742813
 20
491.1740166346
 30
0.0
 11
442.8475742813
 21
491.1740166346
 31
0.0
  0
LINE
  5
2B6
330
1F
100
AcDbEntity
  8
0
  6
Continuous
 62
     7
370
    15
100
AcDbLine
 10
502.8475742813
 20
441.1740166346
 30
0.0
 11
502.8475742813
 21
491.1740166346
 31
0.0
  0
LINE
  5
2B7
330
1F
100
AcDbEntity
  8
0
  6
Continuous
 62
     7
370
    15
100
AcDbLine
 10
495.3475742813
 20
441.1740166346
 30
0.0
 11
502.8475742813
 21
441.1740166346
 31
0.0
  0
LINE
  5
2B8
330
1F
100
AcDbEntity
  8
0
  6
Continuous
 62
     7
370
    15
100
AcDbLine
 10
495.3475742813
 20
441.1740166346
 30
0.0
 11
495.3475742813
 21
450.6740166346
 31
0.0
  0
LINE
  5
2B9
330
1F
100
AcDbEntity
  8
0
  6
Continuous
 62
     7
370
    15
100
AcDbLine
 10
495.3475742813
 20
450.6740166346
 30
0.0
 11
497.8475742813
 21
450.6740166346
 31
0.0
  0
LINE
  5
2BA
330
1F
100
AcDbEntity
  8
0
  6
Continuous
 62
     7
370
    15
100
AcDbLine
 10
497.8475742813
 20
450.6740166346
 30
0.0
 11
497.8475742813
 21
455.6740166346
 31
0.0
  0
LINE
  5
2BB
330
1F
100
AcDbEntity
  8
0
  6
Continuous
 62
     7
370
    15
100
AcDbLine
 10
497.8475742813
 20
455.6740166346
 30
0.0
 11
495.3475742813
 21
455.6740166346
 31
0.0
  0
LINE
  5
2BC
330
1F
100
AcDbEntity
  8
0
  6
Continuous
 62
     7
370
    15
100
AcDbLine
 10
495.3475742813
 20
455.6740166346
 30
0.0
 11
495.3475742813
 21
461.1740166346
 31
0.0
  0
LINE
  5
2BD
330
1F
100
AcDbEntity
  8
0
  6
Continuous
 62
     7
370
    15
100
AcDbLine
 10
495.3475742813
 20
461.1740166346
 30
0.0
 11
490.3475742813
 21
461.1740166346
 31
0.0
  0
LINE
  5
2BE
330
1F
100
AcDbEntity
  8
0
  6
Continuous
 62
     7
370
    15
100
AcDbLine
 10
490.3475742813
 20
461.1740166346
 30
0.0
 11
490.3475742813
 21
455.6740166346
 31
0.0
  0
LINE
  5
2BF
330
1F
100
AcDbEntity
  8
0
  6
Continuous
 62
     7
370
    15
100
AcDbLine
 10
490.3475742813
 20
455.6740166346
 30
0.0
 11
487.8475742813
 21
455.6740166346
 31
0.0
  0
LINE
  5
2C0
330
1F
100
AcDbEntity
  8
0
  6
Continuous
 62
     7
370
    15
100
AcDbLine
 10
487.8475742813
 20
455.6740166346
 30
0.0
 11
487.8475742813
 21
450.6740166346
 31
0.0
  0
LINE
  5
2C1
330
1F
100
AcDbEntity
  8
0
  6
Continuous
 62
     7
370
    15
100
AcDbLine
 10
487.8475742813
 20
450.6740166346
 30
0.0
 11
490.3475742813
 21
450.6740166346
 31
0.0
  0
LINE
  5
2C2
330
1F
100
AcDbEntity
  8
0
  6
Continuous
 62
     7
370
    15
100
AcDbLine
 10
490.3475742813
 20
450.6740166346
 30
0.0
 11
490.3475742813
 21
441.1740166346
 31
0.0
  0
LINE
  5
2C3
330
1F
100
AcDbEntity
  8
0
  6
Continuous
 62
     7
370
    15
100
AcDbLine
 10
442.8475742813
 20
441.1740166346
 30
0.0
 11
450.3475742813
 21
441.1740166346
 31
0.0
  0
LINE
  5
2C4
330
1F
100
AcDbEntity
  8
0
  6
Continuous
 62
     7
370
    15
100
AcDbLine
 10
455.3475742813
 20
441.1740166346
 30
0.0
 11
490.3475742813
 21
441.1740166346
 31
0.0
  0
CIRCLE
  5
2C5
330
1F
100
AcDbEntity
  8
0
  6
Continuous
 62
     7
370
    15
100
AcDbCircle
 10
561.2571719955
 20
473.158893895
 30
0.0
 40
12.49999999999989
  0
LINE
  5
2C6
330
1F
100
AcDbEntity
  8
0
  6
Continuous
 62
     7
370
    15
100
AcDbLine
 10
543.7571719955
 20
448.158893895
 30
0.0
 11
543.7571719955
 21
457.658893895
 31
0.0
  0
LINE
  5
2C7
330
1F
100
AcDbEntity
  8
0
  6
Continuous
 62
     7
370
    15
100
AcDbLine
 10
543.7571719955
 20
457.658893895
 30
0.0
 11
546.2571719955
 21
457.658893895
 31
0.0
  0
LINE
  5
2C8
330
1F
100
AcDbEntity
  8
0
  6
Continuous
 62
     7
370
    15
100
AcDbLine
 10
546.2571719955
 20
457.658893895
 30
0.0
 11
546.2571719955
 21
462.658893895
 31
0.0
  0
LINE
  5
2C9
330
1F
100
AcDbEntity
  8
0
  6
Continuous
 62
     7
370
    15
100
AcDbLine
 10
546.2571719955
 20
462.658893895
 30
0.0
 11
543.7571719955
 21
462.658893895
 31
0.0
  0
LINE
  5
2CA
330
1F
100
AcDbEntity
  8
0
  6
Continuous
 62
     7
370
    15
100
AcDbLine
 10
543.7571719955
 20
462.658893895
 30
0.0
 11
543.7571719955
 21
468.158893895
 31
0.0
  0
LINE
  5
2CB
330
1F
100
AcDbEntity
  8
0
  6
Continuous
 62
     7
370
    15
100
AcDbLine
 10
543.7571719955
 20
468.158893895
 30
0.0
 11
538.7571719955
 21
468.158893895
 31
0.0
  0
LINE
  5
2CC
330
1F
100
AcDbEntity
  8
0
  6
Continuous
 62
     7
370
    15
100
AcDbLine
 10
538.7571719955
 20
468.158893895
 30
0.0
 11
538.7571719955
 21
462.658893895
 31
0.0
  0
LINE
  5
2CD
330
1F
100
AcDbEntity
  8
0
  6
Continuous
 62
     7
370
    15
100
AcDbLine
 10
538.7571719955
 20
462.658893895
 30
0.0
 11
536.2571719955
 21
462.658893895
 31
0.0
  0
LINE
  5
2CE
330
1F
100
AcDbEntity
  8
0
  6
Continuous
 62
     7
370
    15
100
AcDbLine
 10
536.2571719955
 20
462.658893895
 30
0.0
 11
536.2571719955
 21
457.658893895
 31
0.0
  0
LINE
  5
2CF
330
1F
100
AcDbEntity
  8
0
  6
Continuous
 62
     7
370
    15
100
AcDbLine
 10
536.2571719955
 20
457.658893895
 30
0.0
 11
538.7571719955
 21
457.658893895
 31
0.0
  0
LINE
  5
2D0
330
1F
100
AcDbEntity
  8
0
  6
Continuous
 62
     7
370
    15
100
AcDbLine
 10
538.7571719955
 20
457.658893895
 30
0.0
 11
538.7571719955
 21
448.158893895
 31
0.0
  0
LINE
  5
2D1
330
1F
100
AcDbEntity
  8
0
  6
Continuous
 62
     7
370
    15
100
AcDbLine
 10
531.2571719955
 20
498.158893895
 30
0.0
 11
531.2571719955
 21
448.158893895
 31
0.0
  0
LINE
  5
2D2
330
1F
100
AcDbEntity
  8
0
  6
Continuous
 62
     7
370
    15
100
AcDbLine
 10
591.2571719955
 20
498.158893895
 30
0.0
 11
531.2571719955
 21
498.158893895
 31
0.0
  0
LINE
  5
2D3
330
1F
100
AcDbEntity
  8
0
  6
Continuous
 62
     7
370
    15
100
AcDbLine
 10
591.2571719955
 20
448.158893895
 30
0.0
 11
591.2571719955
 21
498.158893895
 31
0.0
  0
LINE
  5
2D4
330
1F
100
AcDbEntity
  8
0
  6
Continuous
 62
     7
370
    15
100
AcDbLine
 10
583.7571719955
 20
448.158893895
 30
0.0
 11
591.2571719955
 21
448.158893895
 31
0.0
  0
LINE
  5
2D5
330
1F
100
AcDbEntity
  8
0
  6
Continuous
 62
     7
370
    15
100
AcDbLine
 10
583.7571719955
 20
448.158893895
 30
0.0
 11
583.7571719955
 21
457.658893895
 31
0.0
  0
LINE
  5
2D6
330
1F
100
AcDbEntity
  8
0
  6
Continuous
 62
     7
370
    15
100
AcDbLine
 10
583.7571719955
 20
457.658893895
 30
0.0
 11
586.2571719955
 21
457.658893895
 31
0.0
  0
LINE
  5
2D7
330
1F
100
AcDbEntity
  8
0
  6
Continuous
 62
     7
370
    15
100
AcDbLine
 10
586.2571719955
 20
457.658893895
 30
0.0
 11
586.2571719955
 21
462.658893895
 31
0.0
  0
LINE
  5
2D8
330
1F
100
AcDbEntity
  8
0
  6
Continuous
 62
     7
370
    15
100
AcDbLine
 10
586.2571719955
 20
462.658893895
 30
0.0
 11
583.7571719955
 21
462.658893895
 31
0.0
  0
LINE
  5
2D9
330
1F
100
AcDbEntity
  8
0
  6
Continuous
 62
     7
370
    15
100
AcDbLine
 10
583.7571719955
 20
462.658893895
 30
0.0
 11
583.7571719955
 21
468.158893895
 31
0.0
  0
LINE
  5
2DA
330
1F
100
AcDbEntity
  8
0
  6
Continuous
 62
     7
370
    15
100
AcDbLine
 10
583.7571719955
 20
468.158893895
 30
0.0
 11
578.7571719955
 21
468.158893895
 31
0.0
  0
LINE
  5
2DB
330
1F
100
AcDbEntity
  8
0
  6
Continuous
 62
     7
370
    15
100
AcDbLine
 10
578.7571719955
 20
468.158893895
 30
0.0
 11
578.7571719955
 21
462.658893895
 31
0.0
  0
LINE
  5
2DC
330
1F
100
AcDbEntity
  8
0
  6
Continuous
 62
     7
370
    15
100
AcDbLine
 10
578.7571719955
 20
462.658893895
 30
0.0
 11
576.2571719955
 21
462.658893895
 31
0.0
  0
LINE
  5
2DD
330
1F
100
AcDbEntity
  8
0
  6
Continuous
 62
     7
370
    15
100
AcDbLine
 10
576.2571719955
 20
462.658893895
 30
0.0
 11
576.2571719955
 21
457.658893895
 31
0.0
  0
LINE
  5
2DE
330
1F
100
AcDbEntity
  8
0
  6
Continuous
 62
     7
370
    15
100
AcDbLine
 10
576.2571719955
 20
457.658893895
 30
0.0
 11
578.7571719955
 21
457.658893895
 31
0.0
  0
LINE
  5
2DF
330
1F
100
AcDbEntity
  8
0
  6
Continuous
 62
     7
370
    15
100
AcDbLine
 10
578.7571719955
 20
457.658893895
 30
0.0
 11
578.7571719955
 21
448.158893895
 31
0.0
  0
LINE
  5
2E0
330
1F
100
AcDbEntity
  8
0
  6
Continuous
 62
     7
370
    15
100
AcDbLine
 10
531.2571719955
 20
448.158893895
 30
0.0
 11
538.7571719955
 21
448.158893895
 31
0.0
  0
LINE
  5
2E1
330
1F
100
AcDbEntity
  8
0
  6
Continuous
 62
     7
370
    15
100
AcDbLine
 10
543.7571719955
 20
448.158893895
 30
0.0
 11
578.7571719955
 21
448.158893895
 31
0.0
  0
ENDSEC
  0
SECTION
  2
OBJECTS
  0
DICTIONARY
  5
C
330
0
100
AcDbDictionary
281
     1
  3
ACAD_GROUP
350
D
  3
ACAD_LAYOUT
350
1A
  3
ACAD_MLINESTYLE
350
17
  3
ACAD_PLOTSETTINGS
350
19
  3
ACAD_PLOTSTYLENAME
350
E
  3
ACAD_SCALELIST
350
47
  0
DICTIONARY
  5
D
102
{ACAD_REACTORS
330
C
102
}
330
C
100
AcDbDictionary
281
     1
  0
DICTIONARY
  5
1A
102
{ACAD_REACTORS
330
C
102
}
330
C
100
AcDbDictionary
281
     1
  3
Layout1
350
1E
  3
Layout2
350
26
  3
Model
350
22
  0
DICTIONARY
  5
17
102
{ACAD_REACTORS
330
C
102
}
330
C
100
AcDbDictionary
281
     1
  3
Standard
350
18
  0
DICTIONARY
  5
19
102
{ACAD_REACTORS
330
C
102
}
330
C
100
AcDbDictionary
281
     1
  0
ACDBDICTIONARYWDFLT
  5
E
102
{ACAD_REACTORS
330
C
102
}
330
C
100
AcDbDictionary
281
     1
  3
Normal
350
F
100
AcDbDictionaryWithDefault
340
F
  0
DICTIONARY
  5
47
102
{ACAD_REACTORS
330
C
102
}
330
C
100
AcDbDictionary
281
     1
  3
A0
350
48
  3
A1
350
49
  3
A2
350
4A
  3
A3
350
4B
  3
A4
350
4C
  3
A5
350
4D
  3
A6
350
4E
  3
A7
350
4F
  3
A8
350
50
  3
A9
350
51
  3
B0
350
52
  3
B1
350
53
  3
B2
350
54
  3
B3
350
55
  3
B4
350
56
  3
B5
350
57
  3
B6
350
58
  3
B7
350
59
  3
B8
350
5A
  3
B9
350
5B
  3
C0
350
5C
  3
C1
350
5D
  3
C2
350
5E
  3
C3
350
5F
  3
C4
350
60
  3
C5
350
61
  3
C6
350
62
  3
C7
350
63
  3
C8
350
64
  3
C9
350
65
  3
D0
350
66
  3
D1
350
67
  3
D2
350
68
  0
LAYOUT
  5
1E
102
{ACAD_REACTORS
330
1A
102
}
330
1A
100
AcDbPlotSettings
  1

  2
none_device
  4

  6

 40
0.0
 41
0.0
 42
0.0
 43
0.0
 44
0.0
 45
0.0
 46
0.0
 47
0.0
 48
0.0
 49
0.0
140
0.0
141
0.0
142
1.0
143
1.0
 70
   688
 72
     1
 73
     0
 74
     5
  7

 75
    16
147
1.0
148
0.0
149
0.0
100
AcDbLayout
  1
Layout1
 70
     1
 71
     1
 10
0.0
 20
0.0
 11
420.0
 21
297.0
 12
0.0
 22
0.0
 32
0.0
 14
1.0000000000E+20
 24
1.0000000000E+20
 34
1.0000000000E+20
 15
-1.0000000000E+20
 25
-1.0000000000E+20
 35
-1.0000000000E+20
146
0.0
 13
0.0
 23
0.0
 33
0.0
 16
1.0
 26
0.0
 36
0.0
 17
0.0
 27
1.0
 37
0.0
 76
     0
330
1B
  0
LAYOUT
  5
26
102
{ACAD_REACTORS
330
1A
102
}
330
1A
100
AcDbPlotSettings
  1

  2
none_device
  4

  6

 40
0.0
 41
0.0
 42
0.0
 43
0.0
 44
0.0
 45
0.0
 46
0.0
 47
0.0
 48
0.0
 49
0.0
140
0.0
141
0.0
142
1.0
143
1.0
 70
   688
 72
     1
 73
     0
 74
     5
  7

 75
    16
147
1.0
148
0.0
149
0.0
100
AcDbLayout
  1
Layout2
 70
     1
 71
     2
 10
0.0
 20
0.0
 11
0.0
 21
0.0
 12
0.0
 22
0.0
 32
0.0
 14
0.0
 24
0.0
 34
0.0
 15
0.0
 25
0.0
 35
0.0
146
0.0
 13
0.0
 23
0.0
 33
0.0
 16
1.0
 26
0.0
 36
0.0
 17
0.0
 27
1.0
 37
0.0
 76
     0
330
23
  0
LAYOUT
  5
22
102
{ACAD_REACTORS
330
1A
102
}
330
1A
100
AcDbPlotSettings
  1

  2
none_device
  4
Letter_(8.50_x_11.00_Inches)
  6

 40
6.35
 41
6.35
 42
6.35000508
 43
6.35000508
 44
215.9
 45
279.4
 46
0.0
 47
0.0
 48
0.0
 49
0.0
140
0.0
141
0.0
142
1.0
143
1.0
 70
  1712
 72
     1
 73
     0
 74
     0
  7

 75
     0
147
1.0
148
0.0
149
0.0
100
AcDbLayout
  1
Model
 70
     1
 71
     0
 10
0.0
 20
0.0
 11
1189.0
 21
841.0
 12
0.0
 22
0.0
 32
0.0
 14
0.0
 24
0.0
 34
0.0
 15
1189.0
 25
841.0
 35
0.0
146
0.0
 13
0.0
 23
0.0
 33
0.0
 16
1.0
 26
0.0
 36
0.0
 17
0.0
 27
1.0
 37
0.0
 76
     0
330
1F
331
29
  0
MLINESTYLE
  5
18
102
{ACAD_REACTORS
330
17
102
}
330
17
100
AcDbMlineStyle
  2
Standard
 70
     0
  3

 62
   256
 51
90.0
 52
90.0
 71
     2
 49
0.5
 62
   256
  6
BYLAYER
 49
-0.5
 62
   256
  6
BYLAYER
  0
ACDBPLACEHOLDER
  5
F
102
{ACAD_REACTORS
330
E
102
}
330
E
  0
SCALE
  5
48
102
{ACAD_REACTORS
330
47
102
}
330
47
100
AcDbScale
 70
     0
300
1:1
140
1.0
141
1.0
290
     1
  0
SCALE
  5
49
102
{ACAD_REACTORS
330
47
102
}
330
47
100
AcDbScale
 70
     0
300
1:2
140
1.0
141
2.0
290
     0
  0
SCALE
  5
4A
102
{ACAD_REACTORS
330
47
102
}
330
47
100
AcDbScale
 70
     0
300
1:4
140
1.0
141
4.0
290
     0
  0
SCALE
  5
4B
102
{ACAD_REACTORS
330
47
102
}
330
47
100
AcDbScale
 70
     0
300
1:5
140
1.0
141
5.0
290
     0
  0
SCALE
  5
4C
102
{ACAD_REACTORS
330
47
102
}
330
47
100
AcDbScale
 70
     0
300
1:8
140
1.0
141
8.0
290
     0
  0
SCALE
  5
4D
102
{ACAD_REACTORS
330
47
102
}
330
47
100
AcDbScale
 70
     0
300
1:10
140
1.0
141
10.0
290
     0
  0
SCALE
  5
4E
102
{ACAD_REACTORS
330
47
102
}
330
47
100
AcDbScale
 70
     0
300
1:16
140
1.0
141
16.0
290
     0
  0
SCALE
  5
4F
102
{ACAD_REACTORS
330
47
102
}
330
47
100
AcDbScale
 70
     0
300
1:20
140
1.0
141
20.0
290
     0
  0
SCALE
  5
50
102
{ACAD_REACTORS
330
47
102
}
330
47
100
AcDbScale
 70
     0
300
1:30
140
1.0
141
30.0
290
     0
  0
SCALE
  5
51
102
{ACAD_REACTORS
330
47
102
}
330
47
100
AcDbScale
 70
     0
300
1:40
140
1.0
141
40.0
290
     0
  0
SCALE
  5
52
102
{ACAD_REACTORS
330
47
102
}
330
47
100
AcDbScale
 70
     0
300
1:50
140
1.0
141
50.0
290
     0
  0
SCALE
  5
53
102
{ACAD_REACTORS
330
47
102
}
330
47
100
AcDbScale
 70
     0
300
1:100
140
1.0
141
100.0
290
     0
  0
SCALE
  5
54
102
{ACAD_REACTORS
330
47
102
}
330
47
100
AcDbScale
 70
     0
300
2:1
140
2.0
141
1.0
290
     0
  0
SCALE
  5
55
102
{ACAD_REACTORS
330
47
102
}
330
47
100
AcDbScale
 70
     0
300
4:1
140
4.0
141
1.0
290
     0
  0
SCALE
  5
56
102
{ACAD_REACTORS
330
47
102
}
330
47
100
AcDbScale
 70
     0
300
8:1
140
8.0
141
1.0
290
     0
  0
SCALE
  5
57
102
{ACAD_REACTORS
330
47
102
}
330
47
100
AcDbScale
 70
     0
300
10:1
140
10.0
141
1.0
290
     0
  0
SCALE
  5
58
102
{ACAD_REACTORS
330
47
102
}
330
47
100
AcDbScale
 70
     0
300
100:1
140
100.0
141
1.0
290
     0
  0
SCALE
  5
59
102
{ACAD_REACTORS
330
47
102
}
330
47
100
AcDbScale
 70
     0
300
1/128" = 1'-0"
140
0.0078125
141
12.0
290
     0
  0
SCALE
  5
5A
102
{ACAD_REACTORS
330
47
102
}
330
47
100
AcDbScale
 70
     0
300
1/64" = 1'-0"
140
0.015625
141
12.0
290
     0
  0
SCALE
  5
5B
102
{ACAD_REACTORS
330
47
102
}
330
47
100
AcDbScale
 70
     0
300
1/32" = 1'-0"
140
0.03125
141
12.0
290
     0
  0
SCALE
  5
5C
102
{ACAD_REACTORS
330
47
102
}
330
47
100
AcDbScale
 70
     0
300
1/16" = 1'-0"
140
0.0625
141
12.0
290
     0
  0
SCALE
  5
5D
102
{ACAD_REACTORS
330
47
102
}
330
47
100
AcDbScale
 70
     0
300
3/32" = 1'-0"
140
0.09375
141
12.0
290
     0
  0
SCALE
  5
5E
102
{ACAD_REACTORS
330
47
102
}
330
47
100
AcDbScale
 70
     0
300
1/8" = 1'-0"
140
0.125
141
12.0
290
     0
  0
SCALE
  5
5F
102
{ACAD_REACTORS
330
47
102
}
330
47
100
AcDbScale
 70
     0
300
3/16" = 1'-0"
140
0.1875
141
12.0
290
     0
  0
SCALE
  5
60
102
{ACAD_REACTORS
330
47
102
}
330
47
100
AcDbScale
 70
     0
300
1/4" = 1'-0"
140
0.25
141
12.0
290
     0
  0
SCALE
  5
61
102
{ACAD_REACTORS
330
47
102
}
330
47
100
AcDbScale
 70
     0
300
3/8" = 1'-0"
140
0.375
141
12.0
290
     0
  0
SCALE
  5
62
102
{ACAD_REACTORS
330
47
102
}
330
47
100
AcDbScale
 70
     0
300
1/2" = 1'-0"
140
0.5
141
12.0
290
     0
  0
SCALE
  5
63
102
{ACAD_REACTORS
330
47
102
}
330
47
100
AcDbScale
 70
     0
300
3/4" = 1'-0"
140
0.75
141
12.0
290
     0
  0
SCALE
  5
64
102
{ACAD_REACTORS
330
47
102
}
330
47
100
AcDbScale
 70
     0
300
1" = 1'-0"
140
1.0
141
12.0
290
     0
  0
SCALE
  5
65
102
{ACAD_REACTORS
330
47
102
}
330
47
100
AcDbScale
 70
     0
300
1-1/2" = 1'-0"
140
1.5
141
12.0
290
     0
  0
SCALE
  5
66
102
{ACAD_REACTORS
330
47
102
}
330
47
100
AcDbScale
 70
     0
300
3" = 1'-0"
140
3.0
141
12.0
290
     0
  0
SCALE
  5
67
102
{ACAD_REACTORS
330
47
102
}
330
47
100
AcDbScale
 70
     0
300
6" = 1'-0"
140
6.0
141
12.0
290
     0
  0
SCALE
  5
68
102
{ACAD_REACTORS
330
47
102
}
330
47
100
AcDbScale
 70
     0
300
1'-0" = 1'-0"
140
12.0
141
12.0
290
     0
  0
ENDSEC
  0
EOF
